<svg width="341" height="272" viewBox="0 0 341 272" fill="none" xmlns="http://www.w3.org/2000/svg">
<g filter="url(#filter0_d_70_18)">
<path d="M231.471 164.915L229.897 170.74C229.622 171.724 228.874 172.511 227.89 172.747L152.602 192.937C151.028 193.37 149.729 191.599 150.634 190.221C153.232 186.325 157.207 183.334 162.087 182.035L230.291 163.774C230.999 163.538 231.668 164.207 231.471 164.915Z" fill="#6ADEDA"/>
<path d="M194.713 186.915C192.666 189.316 191.013 192.032 189.833 194.944C189.479 195.849 188.691 196.558 187.707 196.794L118.323 215.37C115.725 216.078 113.325 217.062 111.121 218.321C109.428 219.305 107.539 217.377 108.523 215.724C111.593 210.529 116.591 206.475 122.888 204.783L193.965 185.735C194.674 185.616 195.185 186.404 194.713 186.915Z" fill="#A1EEE9"/>
<path d="M187.865 202.854C187.59 205.688 187.708 208.64 188.298 211.552C188.495 212.536 187.904 213.481 186.921 213.756L138.591 226.704C127.217 229.735 119.307 239.259 117.733 250.239C117.575 251.341 116.788 252.246 115.725 252.522L105.69 255.198C103.092 255.906 100.928 254.253 100.928 251.538C97.1888 237.566 105.454 223.241 119.425 219.502L186.37 201.556C187.196 201.398 187.983 202.028 187.865 202.854Z" fill="#D0F7F4"/>
<path d="M123.045 260.432C119.661 247.76 127.178 234.694 139.85 231.309L189.242 218.085C190.108 217.849 191.013 218.164 191.604 218.873C195.185 223.162 201.049 225.288 206.795 223.753L250.756 211.985C263.901 208.483 274.133 198.211 277.675 185.066L283.382 163.813C283.893 161.885 282.122 160.075 280.194 160.626C279.289 160.862 278.58 161.57 278.344 162.475L272.716 183.452C269.647 194.944 260.673 203.917 249.181 206.987L205.496 218.676C200.419 220.053 195.185 217.023 193.847 211.946C190.462 199.273 197.979 186.207 210.652 182.822L229.031 177.903C231.983 177.116 234.305 174.794 235.092 171.842L246.623 128.865C254.534 99.3089 277.636 76.2463 307.192 68.2964L327.618 62.8259C332.931 61.4091 337.772 66.2499 336.355 71.5629L305.421 186.994C300.148 206.712 284.759 222.1 265.042 227.373L128.949 263.856C126.312 264.486 123.714 262.991 123.045 260.432Z" fill="#FBF9F1"/>
<path d="M109.133 99.0845L110.708 93.2599C110.983 92.276 111.731 91.4889 112.715 91.2527L188.003 71.0631C189.577 70.6301 190.876 72.4012 189.971 73.7786C187.373 77.6749 183.398 80.6659 178.518 81.9647L110.314 100.226C109.606 100.462 108.937 99.7929 109.133 99.0845Z" fill="#6ADEDA"/>
<path d="M145.892 77.0846C147.939 74.6838 149.592 71.9683 150.772 69.0559C151.126 68.1507 151.914 67.4423 152.897 67.2062L222.282 48.6301C224.88 47.9217 227.28 46.9378 229.484 45.6784C231.177 44.6945 233.066 46.623 232.082 48.2759C229.012 53.4709 224.014 57.5246 217.717 59.2169L146.64 78.2652C145.931 78.3833 145.42 77.5962 145.892 77.0846Z" fill="#A1EEE9"/>
<path d="M152.74 61.1453C153.015 58.3117 152.897 55.3599 152.307 52.4476C152.11 51.4637 152.701 50.5191 153.684 50.2437L202.014 37.2955C213.388 34.2651 221.298 24.741 222.872 13.7606C223.03 12.6587 223.817 11.7535 224.879 11.478L234.915 8.80177C237.513 8.09336 239.677 9.74631 239.677 12.4619C243.416 26.4333 235.151 40.7589 221.18 44.4977L154.235 62.444C153.409 62.6014 152.622 61.9718 152.74 61.1453Z" fill="#D0F7F4"/>
<path d="M217.559 3.56757C220.944 16.2402 213.427 29.3064 200.754 32.691L151.363 45.9146C150.497 46.1508 149.592 45.8359 149.001 45.1275C145.42 40.8377 139.556 38.7125 133.81 40.2474L89.8491 52.0148C76.7042 55.5175 66.4716 65.7895 62.9296 78.9344L57.2229 100.187C56.7113 102.115 58.4823 103.925 60.4108 103.374C61.316 103.138 62.0244 102.43 62.2605 101.525L67.8884 80.548C70.9582 69.056 79.9314 60.0828 91.4233 57.0131L135.109 45.3243C140.185 43.9468 145.42 46.9773 146.758 52.0542C150.143 64.7268 142.626 77.793 129.953 81.1776L111.574 86.0971C108.622 86.8843 106.3 89.2063 105.513 92.158L93.9815 135.135C86.0709 164.691 62.9689 187.754 33.4125 195.704L12.9868 201.174C7.6737 202.591 2.83291 197.75 4.24972 192.437L35.1836 77.0059C40.4573 57.2885 55.8455 41.9003 75.5628 36.6266L211.656 0.143595C214.293 -0.486102 216.89 1.00943 217.559 3.56757Z" fill="#FBF9F1"/>
</g>
<defs>
<filter id="filter0_d_70_18" x="0" y="0" width="340.605" height="272" filterUnits="userSpaceOnUse" color-interpolation-filters="sRGB">
<feFlood flood-opacity="0" result="BackgroundImageFix"/>
<feColorMatrix in="SourceAlpha" type="matrix" values="0 0 0 0 0 0 0 0 0 0 0 0 0 0 0 0 0 0 127 0" result="hardAlpha"/>
<feOffset dy="4"/>
<feGaussianBlur stdDeviation="2"/>
<feComposite in2="hardAlpha" operator="out"/>
<feColorMatrix type="matrix" values="0 0 0 0 0 0 0 0 0 0 0 0 0 0 0 0 0 0 0.25 0"/>
<feBlend mode="normal" in2="BackgroundImageFix" result="effect1_dropShadow_70_18"/>
<feBlend mode="normal" in="SourceGraphic" in2="effect1_dropShadow_70_18" result="shape"/>
</filter>
</defs>
</svg>
