<svg width="32" height="33" viewBox="0 0 32 33" fill="none" xmlns="http://www.w3.org/2000/svg">
<path d="M27.7438 18.2526C26.8585 18.4877 25.9464 18.6067 25.0304 18.6066C22.2412 18.6066 19.6218 17.5223 17.6544 15.5548C16.3624 14.2554 15.4336 12.64 14.9605 10.8698C14.4873 9.09949 14.4865 7.23613 14.9579 5.46542C15.0168 5.24402 15.0165 5.01104 14.9569 4.78983C14.8973 4.56863 14.7806 4.36699 14.6184 4.20513C14.4563 4.04327 14.2545 3.92689 14.0332 3.86766C13.8119 3.80843 13.5789 3.80844 13.3576 3.86768C11.1408 4.45841 9.11837 5.6217 7.49312 7.24083C2.40073 12.3332 2.40073 20.6224 7.49312 25.7174C8.70354 26.9346 10.1433 27.8996 11.7292 28.5566C13.3151 29.2137 15.0155 29.5497 16.7321 29.5452C18.4482 29.55 20.1482 29.2143 21.7336 28.5574C23.3191 27.9006 24.7584 26.9357 25.9684 25.7187C27.5887 24.0931 28.7525 22.0696 29.3428 19.8516C29.4015 19.6303 29.401 19.3975 29.3414 19.1764C29.2819 18.9554 29.1653 18.7538 29.0034 18.592C28.8415 18.4301 28.64 18.3135 28.4189 18.254C28.1979 18.1944 27.9651 18.1939 27.7438 18.2526ZM24.1224 23.8714C23.1543 24.8448 22.0028 25.6166 20.7345 26.142C19.4661 26.6674 18.1062 26.936 16.7334 26.9323C15.36 26.9358 13.9997 26.6669 12.7309 26.1413C11.4622 25.6157 10.3102 24.8437 9.34169 23.8701C5.2683 19.7954 5.2683 13.1641 9.34169 9.0894C10.1288 8.30316 11.0375 7.64897 12.0329 7.15199C11.8872 9.03199 12.1491 10.9213 12.8007 12.6908C13.4523 14.4602 14.4783 16.0682 15.8084 17.4047C17.142 18.739 18.7495 19.7678 20.5197 20.4199C22.2899 21.072 24.1806 21.3319 26.0611 21.1815C25.5615 22.1752 24.9071 23.0832 24.1224 23.8714Z" fill="#F0972E"/>
</svg>
