<svg width="32" height="33" viewBox="0 0 32 33" fill="none" xmlns="http://www.w3.org/2000/svg">
<path d="M9.78235 16.5553C9.78235 20.1623 12.7166 23.0965 16.3236 23.0965C19.9305 23.0965 22.8647 20.1623 22.8647 16.5553C22.8647 12.9483 19.9305 10.0141 16.3236 10.0141C12.7166 10.0141 9.78235 12.9483 9.78235 16.5553ZM16.3236 12.6269C18.4896 12.6269 20.2519 14.3893 20.2519 16.5553C20.2519 18.7213 18.4896 20.4837 16.3236 20.4837C14.1575 20.4837 12.3952 18.7213 12.3952 16.5553C12.3952 14.3893 14.1575 12.6269 16.3236 12.6269ZM15.0145 25.7002H17.6273V29.6194H15.0145V25.7002ZM15.0145 3.49121H17.6273V7.41044H15.0145V3.49121ZM3.25684 15.2489H7.17607V17.8617H3.25684V15.2489ZM25.4658 15.2489H29.385V17.8617H25.4658V15.2489ZM6.15837 24.868L8.92796 22.0958L10.7765 23.9431L8.00694 26.7153L6.15837 24.868ZM21.8627 9.16626L24.6349 6.39405L26.4822 8.24132L23.71 11.0135L21.8627 9.16626ZM8.93188 11.0148L6.15968 8.24262L8.00825 6.39536L10.7778 9.16756L8.93188 11.0148ZM26.4822 24.8693L24.6349 26.7166L21.8627 23.9444L23.71 22.0971L26.4822 24.8693Z" fill="#F0972E"/>
</svg>
