<svg width="421" height="427" viewBox="0 0 421 427" fill="none" xmlns="http://www.w3.org/2000/svg">
<path d="M415.315 192.293C425.211 163.622 423.11 126.773 401.059 104.225C383.617 88.9071 358.923 86.1056 341.301 70.8779C314.189 45.28 284.095 9.42492 246.342 2.53405C168.216 -12.2418 144.651 40.8066 90.1341 78.6047C70.6816 85.6085 56.6513 101.853 47.84 120.085C17.7913 158.787 47.6367 207.204 17.7235 242.359C-5.88616 268.25 -7.67101 318.723 23.2362 339.915C74.0705 362.17 48.8341 360.001 75.5842 393.506C112.095 428.503 160.15 396.737 201.879 399.335C240.287 406.136 279.102 423.826 318.007 408.802C374.083 391.427 421.212 343.056 418.049 281.445C413.418 251.599 406.21 222.364 415.315 192.293ZM70.9979 94.2165C80.6903 84.6822 94.8109 82.197 105.181 73.5891C115.551 65.7493 132.993 45.9352 138.528 42.6366C124.747 53.7524 117.856 70.7197 104.3 81.9485C90.2923 92.9287 72.7601 98.351 59.3399 110.167C49.8734 119.25 66.6826 97.4473 70.9979 94.2165ZM9.02523 261.563C30.7371 230.497 38.3961 221.144 34.2842 181.177C55.0924 218.772 23.2362 239.422 6.49481 268.951C7.12742 266.42 7.96336 263.958 9.02523 261.563ZM275.306 410.79C247.72 409.66 222.077 397.076 194.469 395.969C204.5 393.777 214.712 392.263 225.014 392.467C264.53 397.618 291.822 415.399 332.941 397.799C315.07 406.429 295.256 411.558 275.306 410.79ZM413.915 276.158C414.931 287.206 414.163 298.389 411.678 309.189C412.198 302.14 412.062 295.046 411.384 288.087C410.39 268.702 400.11 250.763 401.037 231.243C401.805 221.551 406.323 212.694 410.345 204.019C403.612 228.351 409.215 252.187 413.915 276.158Z" fill="#D4F5F9"/>
<path d="M300.565 79.8926H254.589V150.473H300.565V79.8926Z" fill="#BAECF2"/>
<path d="M358.313 79.8926H312.336V150.473H358.313V79.8926Z" fill="#BAECF2"/>
<path d="M416.874 131.11C413.666 121.101 408.515 111.838 401.059 104.224C392.248 96.4751 381.584 91.9339 370.897 87.3701V150.45H416.874V131.11Z" fill="#BAECF2"/>
<path d="M139.952 131.54H176.778L153.96 195.004H117.133L139.952 131.54Z" fill="#EBFFFF"/>
<path d="M164.352 195.004L187.149 131.54H223.975L201.156 195.004H164.352Z" fill="#EBFFFF"/>
<path d="M167.109 56.0117H203.913L181.116 119.475H144.29L167.109 56.0117Z" fill="#EBFFFF"/>
<path d="M214.305 56.0117H251.132L228.313 119.475H191.486L214.305 56.0117Z" fill="#EBFFFF"/>
<path d="M418.072 281.468C413.418 251.623 406.21 222.365 415.315 192.316C416.581 188.656 417.642 184.86 418.501 180.974C372.027 169.61 219.57 174.693 196.57 175.642C169.82 176.749 117.427 171.192 104.052 202.392C104.052 202.392 86.7679 260.344 86.7679 263.145C86.7679 265.404 34.6232 260.14 7.51158 267.189C7.15009 267.777 6.81119 268.387 6.4723 268.974C6.60786 268.432 6.76601 267.89 6.92416 267.347C5.65895 267.686 4.46152 268.048 3.33187 268.454C-4.37235 294.007 0.891825 324.598 23.2363 339.916C74.0706 362.17 48.8342 360.001 75.5843 393.507C112.095 428.503 160.15 396.738 201.879 399.336C240.287 406.136 279.102 423.827 318.007 408.802C374.083 391.451 421.235 343.057 418.072 281.468ZM275.307 410.79C247.72 409.661 222.077 397.076 194.469 395.969C204.5 393.778 214.712 392.264 225.014 392.468C264.53 397.619 291.822 415.399 332.941 397.799C315.07 406.43 295.256 411.559 275.307 410.79ZM411.678 309.19C412.198 302.141 412.062 295.046 411.384 288.088C410.39 268.703 400.11 250.764 401.037 231.244C401.805 221.551 406.323 212.695 410.345 204.019C403.612 228.352 409.215 252.188 413.915 276.159C414.931 287.207 414.163 298.39 411.678 309.19Z" fill="#7FBAC8"/>
<path d="M196.57 175.643C169.82 176.75 117.427 171.192 104.051 202.393C104.051 202.393 103.984 202.619 103.871 203.025C202.037 191.639 373.835 198.1 413.802 197.919C414.254 196.067 414.751 194.192 415.315 192.316C416.581 188.656 417.642 184.861 418.501 180.975C372.027 169.588 219.57 174.671 196.57 175.643Z" fill="#A9D1DA"/>
<path d="M225.647 329.704C225.986 328.755 224.721 329.275 224.246 329.343C224.45 329.004 224.45 328.507 224.043 328.213C220.293 325.344 219.795 320.125 219.75 315.764C219.954 267.596 226.506 218.953 244.919 174.219L244.377 174.174C225.06 218.818 218.598 267.844 218.237 316.239C218.327 320.78 219.027 325.637 222.439 328.846C115.664 300.107 111.191 305.552 9.74829 326.067C9.86126 326.225 9.95163 326.383 10.0646 326.541C104.774 310.161 110.039 299.204 221.513 330.088C172.192 346.22 120.612 364.136 80.2159 397.528C80.6677 397.89 81.1422 398.251 81.5941 398.59C122.917 365.853 173.661 347.101 223.388 330.585C274.267 346.107 326.999 357.539 377.337 375.161C378.082 374.483 378.805 373.806 379.551 373.105C329.349 355.663 276.21 345.474 225.647 329.704Z" fill="#4EA0B3"/>
<path d="M77.1884 263.733C60.831 263.484 27.4386 262.016 7.53411 267.189C7.17263 267.777 6.83373 268.387 6.49484 268.974C6.63039 268.432 6.78854 267.89 6.9467 267.348C5.68149 267.686 4.48406 268.048 3.35441 268.455C1.70512 273.9 0.665839 279.593 0.236572 285.309C35.8657 280.067 83.4014 269.358 77.1884 263.733Z" fill="#A9D1DA"/>
<path opacity="0.3" d="M418.072 281.468C413.485 252.052 406.414 223.201 414.931 193.604C396.789 165.159 361.047 178.535 327.948 191.48C327.948 191.48 292.319 214.819 282.514 225.867C272.686 236.915 240.762 338.855 230.934 350.535C221.106 362.193 202.693 373.264 178.111 370.801C173.706 370.372 169.006 369.897 164.104 369.445C186.629 353.472 204.658 338.086 206.85 324.734C211.278 297.713 216.497 180.997 188.459 181.155C160.421 181.313 104.39 265.021 92.8679 268.703C81.368 272.408 70.6364 274.984 57.7358 289.127C46.8233 301.079 22.7166 314.364 16.3002 334.155C18.4013 336.256 20.7058 338.199 23.2362 339.916C74.0705 362.171 48.8341 360.002 75.5842 393.507C112.095 428.504 160.15 396.738 201.879 399.336C240.287 406.137 279.102 423.827 318.007 408.802C374.083 391.451 421.235 343.057 418.072 281.468ZM401.037 231.244C401.805 221.552 406.323 212.695 410.345 204.019C403.612 228.352 409.215 252.188 413.915 276.159C414.931 287.207 414.163 298.39 411.678 309.19C412.198 302.141 412.062 295.047 411.384 288.088C410.39 268.703 400.11 250.764 401.037 231.244ZM275.306 410.791C247.72 409.661 222.077 397.077 194.469 395.97C204.5 393.778 214.712 392.264 225.014 392.468C264.53 397.619 291.822 415.4 332.941 397.8C315.07 406.43 295.256 411.559 275.306 410.791Z" fill="#6799AC"/>
<path d="M240.666 129.325C243.437 115.045 234.108 101.223 219.828 98.4516C205.548 95.6806 191.726 105.01 188.955 119.29C186.184 133.57 195.514 147.392 209.793 150.163C224.073 152.934 237.895 143.604 240.666 129.325Z" fill="white"/>
<path d="M212.868 129.344C212.868 130.073 212.281 130.68 211.533 130.68H201.034C200.306 130.68 199.699 130.073 199.699 129.344V118.846C199.699 118.118 200.286 117.511 201.034 117.511H211.533C212.261 117.511 212.868 118.118 212.868 118.846V129.344Z" fill="#5F5957"/>
<path d="M207.507 128.757L216.003 136.99C217.237 137.536 217.642 136.444 217.642 136.444L217.783 112.311C217.824 110.591 216.408 111.077 216.408 111.077L207.082 118.501L207.507 128.757Z" fill="#5F5957"/>
<path d="M222.456 131.488C222.193 131.488 221.95 131.367 221.789 131.144C221.526 130.78 221.607 130.254 221.991 129.991C223.286 129.081 224.115 126.937 224.115 124.55C224.115 121.9 223.144 119.573 221.586 118.441C221.222 118.178 221.141 117.672 221.404 117.288C221.667 116.924 222.173 116.843 222.557 117.106C224.58 118.562 225.794 121.333 225.774 124.55C225.774 127.503 224.681 130.113 222.962 131.346C222.8 131.448 222.618 131.488 222.456 131.488Z" fill="#5F5957"/>
<path d="M226.826 137.213C226.563 137.213 226.32 137.092 226.158 136.869C225.895 136.505 225.976 135.979 226.36 135.716C229.111 133.774 230.831 129.445 230.831 124.429C230.831 119.028 228.808 114.213 225.551 111.887C225.187 111.624 225.086 111.118 225.369 110.734C225.632 110.37 226.158 110.289 226.522 110.552C230.264 113.222 232.51 118.421 232.49 124.449C232.469 129.992 230.507 134.826 227.311 137.071C227.149 137.173 226.987 137.213 226.826 137.213Z" fill="#5F5957"/>
<path d="M234.249 104.747C233.906 104.343 233.4 104.12 232.874 104.12C232.449 104.12 232.024 104.282 231.701 104.545L192.74 137.639C192.376 137.942 192.154 138.387 192.113 138.873C192.073 139.358 192.235 139.824 192.538 140.188C192.882 140.592 193.388 140.815 193.914 140.815C194.338 140.815 194.763 140.653 195.087 140.39L234.047 107.276C234.411 106.972 234.634 106.527 234.674 106.042C234.715 105.577 234.573 105.111 234.249 104.747Z" fill="#8E8886"/>
<path d="M239.994 159.869C241.552 159.566 243.069 160.598 243.373 162.155C243.676 163.713 242.644 165.23 241.087 165.533C239.529 165.837 238.012 164.805 237.709 163.248C237.405 161.67 238.437 160.173 239.994 159.869Z" fill="white"/>
<path d="M261.032 147.733C262.185 147.51 263.318 148.258 263.541 149.411C263.763 150.564 262.994 151.697 261.841 151.92C260.688 152.142 259.576 151.374 259.333 150.221C259.131 149.088 259.879 147.955 261.032 147.733Z" fill="white"/>
<path d="M216.428 168.992C217.581 168.77 218.694 169.518 218.937 170.671C219.159 171.824 218.411 172.957 217.237 173.18C216.084 173.402 214.952 172.654 214.729 171.48C214.507 170.348 215.255 169.235 216.428 168.992Z" fill="white"/>
<path d="M240.662 149.29C241.35 149.148 242.038 149.614 242.159 150.302C242.301 150.989 241.835 151.677 241.148 151.798C240.46 151.92 239.772 151.475 239.651 150.787C239.529 150.099 239.974 149.411 240.662 149.29Z" fill="white"/>
<path d="M201.318 155.905C202.329 155.703 203.28 156.371 203.482 157.362C203.664 158.353 203.017 159.324 202.026 159.526C201.034 159.708 200.063 159.061 199.861 158.07C199.679 157.058 200.326 156.087 201.318 155.905Z" fill="white"/>
<path d="M181.392 148.603C182.08 148.461 182.768 148.926 182.889 149.614C183.031 150.302 182.566 150.969 181.878 151.111C181.17 151.253 180.502 150.787 180.381 150.099C180.26 149.412 180.705 148.744 181.392 148.603Z" fill="white"/>
<path d="M204.837 83.9727C203.381 84.2762 201.965 83.3457 201.641 81.8892C201.338 80.4327 202.268 78.9965 203.725 78.6931C205.181 78.3897 206.597 79.3202 206.9 80.7766C207.224 82.2331 206.294 83.6693 204.837 83.9727Z" fill="white"/>
<path d="M185.357 95.5631C184.285 95.7856 183.233 95.0979 182.99 94.0257C182.768 92.9334 183.456 91.8815 184.548 91.659C185.62 91.4365 186.672 92.1243 186.894 93.1964C187.137 94.2887 186.449 95.3406 185.357 95.5631Z" fill="white"/>
<path d="M226.704 75.1324C225.632 75.355 224.58 74.6672 224.337 73.5951C224.115 72.523 224.803 71.4508 225.875 71.2283C226.947 71.0058 228.019 71.6936 228.242 72.7657C228.484 73.8378 227.797 74.8897 226.704 75.1324Z" fill="white"/>
<path d="M204.352 93.8445C203.704 93.9861 203.077 93.5613 202.936 92.914C202.794 92.2667 203.219 91.6396 203.866 91.498C204.513 91.3564 205.141 91.7812 205.282 92.4285C205.424 93.0758 204.999 93.7231 204.352 93.8445Z" fill="white"/>
<path d="M240.985 87.1486C240.055 87.3508 239.145 86.744 238.942 85.8135C238.76 84.883 239.347 83.9727 240.277 83.7704C241.208 83.5883 242.118 84.175 242.3 85.1055C242.503 86.036 241.896 86.9463 240.985 87.1486Z" fill="white"/>
<path d="M253.426 106.79C252.779 106.931 252.152 106.507 252.01 105.859C251.869 105.212 252.293 104.585 252.941 104.443C253.588 104.302 254.215 104.726 254.357 105.374C254.478 106.021 254.073 106.668 253.426 106.79Z" fill="white"/>
<path d="M86.6156 141.391C81.0325 150.272 70.0888 153.468 65.8206 162.267C61.0871 171.997 63.7168 181.484 73.1029 186.865C85.685 194.087 94.5047 187.492 105.995 181.909C112.852 178.572 120.154 174.586 127.922 174C136.823 173.312 145.622 176.488 154.401 172.847C169.047 166.778 154.766 150.717 158.933 140.056C163.059 129.517 168.824 123.651 166.822 111.554C165.143 101.319 159.337 92.5192 150.861 86.6125C133.89 74.7586 106.581 80.8676 96.123 98.9115C89.1239 110.988 92.4818 124.865 88.4361 137.528C87.9911 138.924 87.364 140.198 86.6156 141.391Z" fill="#B57647"/>
<path d="M74.8829 185.753C71.97 184.216 69.9876 181.343 69.2796 177.641C68.3896 172.888 69.7247 167.466 72.5971 164.169C74.7009 161.762 78.6252 159.436 82.7721 156.988C91.6726 151.728 101.746 145.781 98.7931 136.598L99.5011 136.375C102.657 146.145 92.2997 152.254 83.1564 157.655C79.05 160.083 75.1864 162.369 73.1635 164.695C70.4327 167.851 69.1583 173.009 70.0281 177.54C70.4933 179.988 71.7677 183.305 75.2471 185.126L74.8829 185.753Z" fill="#D88F5D"/>
<path d="M150.416 171.107L150.295 170.359C152.965 169.954 154.765 168.963 155.817 167.345C157.962 164.027 156.444 158.586 155.21 154.217C154.745 152.538 154.3 150.96 154.118 149.706L154.867 149.604C155.028 150.798 155.473 152.356 155.939 154.014C157.213 158.525 158.791 164.149 156.465 167.77C155.312 169.55 153.269 170.662 150.416 171.107Z" fill="#D88F5D"/>
<path d="M191.501 211.058C191.298 211.058 191.116 210.896 191.096 210.694C190.428 204.908 187.455 198.415 182.924 192.872C182.782 192.69 182.802 192.447 182.984 192.306C183.166 192.164 183.409 192.184 183.551 192.367C188.183 198.031 191.238 204.686 191.905 210.613C191.925 210.835 191.763 211.037 191.541 211.058C191.541 211.058 191.521 211.058 191.501 211.058Z" fill="#9BA4FC"/>
<path d="M197.347 210.046C197.326 210.046 197.326 210.046 197.306 210.046C197.084 210.025 196.922 209.843 196.942 209.621C197.529 202.116 190.894 190.039 186.565 186.985C186.383 186.864 186.342 186.601 186.464 186.419C186.585 186.237 186.848 186.196 187.03 186.317C191.5 189.453 198.338 201.934 197.731 209.681C197.731 209.884 197.569 210.046 197.347 210.046Z" fill="#9BA4FC"/>
<path d="M133.04 231.286C145.703 241.805 164.515 251.737 182.033 249.35C190.732 248.157 192.107 242.574 190.044 234.503C186.099 219.068 175.864 202.865 167.671 189.352C156.829 171.531 142.669 164.249 122.096 168.679L133.04 231.286Z" fill="#F3B256"/>
<path d="M172.931 400.742C174.691 384.801 182.357 306.274 165.122 281.858L128.994 293.288C129.035 295.27 139.533 390.89 140.626 400.742H172.931Z" fill="#5A73A0"/>
<path d="M128.448 400.741L143.579 337.992L147.726 301.298L89.9733 295.209C81.7605 327.13 83.7631 369.063 89.7508 400.762H128.448V400.741Z" fill="#506695"/>
<path d="M107.936 163.865C95.5767 169.549 76.9665 178.348 79.6164 194.167C81.4572 205.192 98.9751 241.421 97.1343 252.446C96.6084 255.561 90.3375 289.221 86.2514 309.955C159.236 332.186 173.983 299.679 173.436 297.879C168.662 282.202 163.444 262.964 163.747 246.438C164.01 232.096 168.501 219.534 167.388 204.565C166.316 190.263 146.411 165.807 133.121 162.408L107.936 163.865Z" fill="#F0972E"/>
<path d="M126.41 179.289C125.46 179.251 124.552 179.174 123.686 179.059C114.482 177.861 106.838 173.081 103.245 166.256L103.907 165.898C107.387 172.516 114.814 177.145 123.776 178.313C129.295 179.02 136.652 178.302 140.649 175.061C142.532 173.537 143.563 171.554 143.759 169.173L144.506 169.223C144.301 171.826 143.162 173.967 141.112 175.626C137.596 178.502 131.624 179.498 126.41 179.289Z" fill="#F3B256"/>
<path d="M136.944 151.242C136.56 156.683 138.825 165.341 143.943 168.76C133.242 179.582 116.412 174.748 107.127 164.451C108.766 166.272 114.632 152.071 114.794 150.615C115.299 146.144 114.268 140.46 113.216 136.091C117.343 138.356 120.417 140.743 125.13 141.775C129.763 142.786 134.86 142.847 139.371 141.209C137.672 141.815 137.065 149.745 136.944 151.242Z" fill="#FFC3AB"/>
<path d="M136.236 157.655C133.08 161.741 127.801 159.739 123.876 157.412C115.866 152.699 114.005 140.319 111.84 132.167C113.843 134.089 116.392 135.1 118.799 136.415C121.732 138.013 124.928 139.389 128.165 140.36C132.737 141.755 136.175 141.594 140.565 140.279C139.554 145.457 139.533 153.387 136.236 157.655Z" fill="#EFA88F"/>
<path d="M155.656 102.572C158.528 106.82 159.115 114.042 159.762 118.775C161.239 129.577 153.552 156.886 142.568 157.351C134.031 157.715 121.975 152.314 117.403 145.841C110.95 136.718 110.141 124.945 111.861 114.669C111.861 114.669 139.614 78.8239 155.656 102.572Z" fill="#FFC3AB"/>
<path d="M103.021 130.286C103.688 133.967 105.893 137.245 109.19 139.045C111.921 140.542 115.886 140.137 118.799 139.571C117.929 134.938 115.542 127.231 111.031 124.743C106.358 122.154 102.07 124.865 103.021 130.286Z" fill="#FFC3AB"/>
<path d="M162.27 202.825L169.836 205.718L174.994 210.431C174.994 210.431 175.196 210.876 173.902 211.422C173.902 211.422 177.138 213.83 168.501 217.41L162.958 220.97L162.149 213.668L163.808 213.425L169.795 210.836L166.822 208.954L161.542 207.437L162.27 202.825Z" fill="#EFA88F"/>
<path d="M138.663 229.305L144.732 223.155C144.833 219.555 144.995 215.914 145.703 212.353C146.411 208.813 147.079 207.842 151.023 206.305C151.023 206.305 154.159 200.196 158.932 196.858C158.932 196.858 159.823 193.258 162.23 193.723C163.1 192.469 163.646 191.134 164.758 189.981C165.284 189.434 165.446 189.212 166.417 189.353C167.186 189.455 168.015 189.798 168.197 190.426C168.197 190.426 169.472 189.414 169.532 189.374C170.483 188.625 171.939 190.243 171.96 190.668C171.98 192.489 169.472 195.179 167.975 196.373C166.053 197.93 164.273 199.589 162.695 201.349C162.695 201.349 161.299 211.544 163.12 214.882C163.12 214.882 166.255 230.397 157.961 233.512L145.076 243.708L138.663 229.305Z" fill="#FFC3AB"/>
<path d="M155.939 213.628L155.554 213.608L155.979 207.074L158.771 196.798L159.135 196.899L156.363 207.175L155.939 213.628Z" fill="#EFA88F"/>
<path d="M163.059 201.208L162.675 201.168C163.423 195.099 162.715 194.108 162.472 193.926C162.391 193.865 162.331 193.885 162.331 193.885L162.149 193.542C162.25 193.501 162.472 193.44 162.695 193.602C163.484 194.148 163.605 196.717 163.059 201.208Z" fill="#EFA88F"/>
<path d="M168.435 190.289L163.045 194.786L163.292 195.081L168.681 190.584L168.435 190.289Z" fill="#EFA88F"/>
<path d="M150.841 206.285L149.39 211.571L149.76 211.673L151.211 206.387L150.841 206.285Z" fill="#EFA88F"/>
<path d="M178.372 230.802C177.28 229.77 175.904 228.961 174.994 227.788C174.165 226.695 174.549 225.239 172.89 225.502C170.22 225.906 171.049 228.9 171.677 230.438C172.506 232.501 175.742 235.515 173.76 237.356C175.378 239.298 177.239 239.075 179.889 238.104C181.002 237.7 181.487 236.931 181.912 235.96C182.742 234.139 182.013 233.755 180.415 232.703C179.485 232.117 179.1 231.51 178.372 230.802Z" fill="#EFA88F"/>
<path d="M177.159 237.456C177.159 237.456 181.305 236.364 179.788 232.116C179.788 232.116 186.888 235.858 187.03 240.086C187.03 240.086 189.316 245.548 189.316 245.568C189.822 247.166 182.256 250.038 181.265 250.139C177.239 250.524 171.393 251.151 167.368 250.301C167.368 250.301 157.658 245.932 158.346 243.019C158.346 243.019 158.629 242.291 159.863 242.412L156.687 238.164C156.687 238.164 158.063 233.916 163.322 239.985L157.658 231.994C157.658 231.994 158.629 229.203 161.522 230.902C161.522 230.902 162.634 227.746 169.269 232.359C169.269 232.359 176.188 237.335 177.159 237.456Z" fill="#FFC3AB"/>
<path d="M175.884 243.202C173.396 241.685 169.573 239.419 169.289 239.318C168.986 239.237 164.354 234.281 161.643 231.348L161.926 231.085C164.738 234.119 169.067 238.731 169.431 238.954C169.714 239.035 175.014 242.231 176.086 242.878L175.884 243.202Z" fill="#EFA88F"/>
<path d="M171.859 246.216L166.518 243.789L163.201 240.127L163.484 239.864L166.761 243.505L172.02 245.852L171.859 246.216Z" fill="#EFA88F"/>
<path d="M168.42 248.561L164.131 246.255L160.308 242.816L160.571 242.513L164.374 245.952L168.602 248.217L168.42 248.561Z" fill="#EFA88F"/>
<path d="M80.3243 183.973C82.8933 178.329 87.9707 171.573 94.5247 174.466C102.009 177.783 103.223 188.808 104.052 195.604C105.61 208.288 107.168 220.971 108.705 233.654L145.015 223.621C145.015 223.621 151.852 229.386 153.107 238.792C141.354 245.488 132.777 253.175 121.044 259.911C106.662 268.144 89.3462 282.587 82.8326 257.969C78.6858 242.272 76.7236 226.21 76.4606 210.007C76.3393 202.078 76.9056 191.538 80.3243 183.973Z" fill="#F3B256"/>
<path d="M114.753 138.458C115.3 127.414 115.886 120.779 127.113 117.279C135.427 114.69 151.246 114.993 156.242 105.83C162.574 94.2388 144.408 91.9125 135.973 92.1755C111.335 92.9442 105.347 118.918 114.753 138.458Z" fill="#B57647"/>
<path d="M112.346 124.824C111.901 118.027 114.571 109.309 121.489 106.193C122.359 105.809 123.694 105.324 125.252 104.777C132.271 102.289 144.004 98.1424 142.123 91.7704L142.851 91.5479C144.934 98.6076 132.777 102.916 125.515 105.485C123.978 106.032 122.663 106.497 121.813 106.881C115.219 109.834 112.69 118.229 113.115 124.763L112.346 124.824Z" fill="#D88F5D"/>
<path d="M114.207 122.983L113.479 122.821C115.016 115.397 124.281 113.01 132.473 110.907C140.019 108.965 147.139 107.124 146.977 101.824L147.726 101.804C147.908 107.71 140.504 109.612 132.656 111.635C124.301 113.799 115.643 116.024 114.207 122.983Z" fill="#D88F5D"/>
<path d="M137.531 123.55C137.531 125.411 136.701 126.908 135.67 126.908C134.638 126.908 133.809 125.411 133.809 123.55C133.809 121.689 134.638 120.192 135.67 120.192C136.701 120.192 137.531 121.689 137.531 123.55Z" fill="#49392E"/>
<path d="M154.988 123.084C154.988 124.884 154.219 126.341 153.248 126.341C152.298 126.341 151.509 124.884 151.509 123.084C151.509 121.284 152.298 119.827 153.248 119.827C154.219 119.827 154.988 121.284 154.988 123.084Z" fill="#49392E"/>
<path d="M131.563 119.828C131.462 119.828 131.361 119.787 131.3 119.727C131.138 119.585 131.138 119.322 131.28 119.18C132.433 117.987 134.335 117.218 135.933 117.319C137.045 117.38 137.935 117.845 138.542 118.634C138.663 118.816 138.643 119.059 138.461 119.18C138.279 119.302 138.036 119.282 137.915 119.1C137.45 118.493 136.762 118.149 135.872 118.088C134.496 118.007 132.838 118.675 131.826 119.706C131.766 119.787 131.664 119.828 131.563 119.828Z" fill="#49392E"/>
<path d="M149.465 118.775C149.364 118.775 149.263 118.735 149.202 118.674C149.041 118.533 149.041 118.27 149.182 118.128C150.234 117.036 151.873 116.409 153.268 116.591C154.219 116.712 154.988 117.218 155.433 117.987C155.534 118.169 155.473 118.411 155.291 118.513C155.109 118.614 154.866 118.553 154.765 118.371C154.361 117.663 153.693 117.44 153.187 117.38C152.034 117.238 150.659 117.764 149.769 118.695C149.668 118.735 149.567 118.775 149.465 118.775Z" fill="#49392E"/>
<path d="M141.556 147.946C140.767 147.946 139.918 147.804 139.028 147.501C136.378 146.591 134.274 144.507 133.91 142.444C133.869 142.221 134.011 142.019 134.233 141.979C134.456 141.938 134.658 142.08 134.699 142.302C135.022 144.103 136.924 145.923 139.311 146.753C141.334 147.461 143.175 147.238 144.388 146.186C144.55 146.045 144.793 146.065 144.934 146.227C145.076 146.388 145.056 146.631 144.894 146.773C144.004 147.562 142.851 147.946 141.556 147.946Z" fill="#DD5B45"/>
<path d="M146.067 138.842C145.926 138.842 145.784 138.761 145.723 138.619C145.622 138.417 145.703 138.194 145.885 138.093C148.414 136.798 147.746 135.443 146.836 133.582C146.452 132.793 146.047 131.964 145.865 131.074C145.825 130.851 145.966 130.649 146.168 130.608C146.391 130.568 146.593 130.71 146.634 130.912C146.795 131.701 147.16 132.47 147.544 133.218C148.434 135.059 149.466 137.142 146.249 138.781C146.189 138.821 146.128 138.842 146.067 138.842Z" fill="#C66A55"/>
<path d="M336.181 131.388C329.688 121.153 323.518 109.845 322.648 97.9102C318.38 101.147 300.559 117.309 294.693 113.102C303.532 119.454 299.649 135.677 297.747 144.577C307.072 145.447 323.377 140.896 336.181 131.388Z" fill="#EFA88F"/>
<path d="M321.131 111.241C325.177 105.274 321.333 103.15 322.446 97.4453C316.155 99.5491 302.035 118.867 294.672 113.102C299.143 116.602 300.316 121.8 300.114 127.545C305.616 126.595 317.268 116.946 321.131 111.241Z" fill="#E59076"/>
<path d="M254.559 218.553C255.469 214.588 257.068 211.21 259.05 211.19C261.032 211.169 263.116 212.747 264.957 213.293C268.234 214.244 271.329 213.617 274.707 213.496C280.391 213.293 278.753 230.973 277.943 233.34C275.091 233.846 256.4 231.216 254.458 229.294C252.415 227.292 254.013 220.98 254.559 218.553Z" fill="#E59076"/>
<path d="M251.747 194.279C252.921 197.293 255.045 200.266 256.562 203.098C257.533 204.919 259.657 205.971 260.587 207.812C261.376 209.369 261.396 211.392 261.275 213.051C261.154 214.75 260.304 216.045 259.535 217.481C257.897 220.495 259.515 224.5 258.038 227.615C256.157 231.6 247.722 228.404 244.485 228C242.644 227.777 239.974 227.878 238.781 226.321C238.316 225.714 238.032 224.521 238.032 223.792C238.032 223.509 238.72 221.345 238.74 221.385C237.81 220.637 237.243 220.07 237.061 219.018C237.001 218.735 237.668 216.186 237.911 216.51C237.385 215.842 236.535 215.236 236.293 214.406C235.888 213.01 236.96 210.886 238.316 210.199C237.87 209.207 237.405 208.135 237.911 207.083C239.367 204.13 245.193 205.445 247.661 203.665C249.198 202.552 247.863 200.469 247.014 199.033C245.739 196.929 244.789 193.712 245.78 191.406C247.459 187.563 250.412 189.687 251.201 192.6C251.363 193.186 251.545 193.733 251.747 194.279Z" fill="#EFA88F"/>
<path d="M251.282 226.159L251.08 225.856C253.507 224.217 252.273 221.507 252.233 221.385L252.172 221.284L252.253 221.203C253.022 220.354 253.366 219.545 253.285 218.796C253.204 217.947 252.577 217.502 252.577 217.502L252.293 217.299L252.637 217.178C254.883 216.429 254.822 213.618 254.822 213.577C254.964 212.404 253.285 211.736 253.285 211.736L253.062 211.655L253.204 211.453C253.972 210.361 254.256 209.349 254.074 208.439C253.851 207.327 252.961 206.74 252.961 206.74L248.511 204.495L248.673 204.171L253.123 206.416C253.184 206.457 254.154 207.084 254.417 208.358C254.62 209.309 254.337 210.361 253.608 211.473C254.114 211.716 255.328 212.404 255.186 213.577C255.186 213.577 255.267 216.429 253.042 217.4C253.264 217.643 253.608 218.108 253.669 218.756C253.75 219.585 253.406 220.455 252.637 221.345C252.819 221.932 253.669 224.541 251.282 226.159Z" fill="#C66A55"/>
<path d="M249.664 222.518H249.623L241.916 221.891L241.936 221.527L249.623 222.134L252.314 221.143L252.455 221.486L249.664 222.518Z" fill="#C66A55"/>
<path d="M252.658 217.521C252.293 217.501 249.158 217.319 248.875 217.278C248.571 217.218 242.988 216.995 242.705 217.036L242.665 216.672C242.968 216.631 248.592 216.874 248.936 216.934C249.138 216.975 251.282 217.096 252.678 217.177L252.658 217.521Z" fill="#C66A55"/>
<path d="M253.305 211.735L248.45 211.553C248.207 211.533 242.584 210.926 242.28 210.865L242.341 210.501C242.564 210.541 246.832 211.007 248.45 211.189L253.305 211.371V211.735Z" fill="#C66A55"/>
<path d="M292.205 396.443H347.348L351.737 302.967L276.123 302.158C276.042 304.161 294.531 384.691 292.205 396.443Z" fill="#58595B"/>
<path d="M311.664 396.443L310.815 302.158L273.453 309.481L276.042 396.443H311.664Z" fill="#636466"/>
<path d="M286.621 157.362C278.449 174.657 269.427 317.633 269.427 317.633C324.873 330.033 356.572 320.89 356.572 320.89L352.425 256.158C361.406 150.707 339.822 132.258 339.822 132.258L334.846 120.404L323.437 119.494L288.705 140.208L290.101 145.811L286.621 157.362Z" fill="#334A57"/>
<path d="M242.503 248.126C236.171 248.126 231.256 246.589 225.794 242.928C225.612 242.806 225.551 242.564 225.673 242.361C225.794 242.179 226.037 242.119 226.239 242.24C231.903 246.023 236.981 247.479 243.717 247.277C243.919 247.277 244.121 247.439 244.141 247.661C244.141 247.884 243.98 248.066 243.757 248.086C243.312 248.126 242.907 248.126 242.503 248.126Z" fill="#9BA4FC"/>
<path d="M242.968 256.3C236.596 256.3 224.904 253.205 221.445 248.188C221.323 248.006 221.364 247.764 221.546 247.622C221.728 247.501 221.971 247.541 222.112 247.723C225.936 253.225 240.925 256.442 245.497 255.228C245.719 255.167 245.942 255.309 245.982 255.511C246.043 255.734 245.901 255.956 245.699 255.997C244.991 256.219 244.06 256.3 242.968 256.3Z" fill="#9BA4FC"/>
<path d="M295.481 227.898C290.101 228.768 284.679 229.517 279.258 230.123C275.577 230.528 271.592 231.216 267.91 230.791C263.257 230.245 259.535 227.716 255.065 226.664C247.924 224.965 240.379 225.734 233.339 227.595C233.339 227.595 218.35 225.269 216.631 230.993C216.631 230.993 214.203 234.129 222.719 233.724C222.719 233.724 226.381 235.565 231.316 236.415C231.316 236.415 242.078 240.218 251.505 241.108L259.738 244.486L262.246 244.506C262.246 244.506 288.26 252.152 297.707 252.921C297.686 252.901 297.282 241.29 295.481 227.898Z" fill="#EFA88F"/>
<path d="M238.619 235.424L231.68 234.129L222.699 233.887L222.719 233.522L231.721 233.765L238.7 235.06L238.619 235.424Z" fill="#C66A55"/>
<path d="M275.961 53.9731C274.242 57.0073 271.187 61.842 271.41 65.2201C272.3 78.4901 272.259 83.264 264.694 91.3554C262.104 94.6122 269.083 97.4644 272.037 99.3457C272.785 99.8312 272.057 102.764 273.048 103.917C274.1 105.111 274.97 104.828 275.759 106.143C278.995 111.564 277.539 118.927 285.792 120.1C296.574 121.638 314.314 112.393 322.608 105.414C332.48 97.1003 337.193 93.439 338.487 81.0591C339.054 75.6378 339.256 70.1154 338.649 64.6942C337.476 53.9933 332.48 43.3935 320.524 41.3909C319.816 41.2695 319.108 41.1886 318.4 41.1279C318.421 41.1481 284.963 38.0734 275.961 53.9731Z" fill="#EFA88F"/>
<path d="M328.252 102.118C337.375 91.5785 344.515 80.6349 344.556 66.394C344.576 59.8804 343.605 43.5559 333.45 44.6281C333.329 36.3343 321.9 32.9359 315.71 31.965C307.497 30.6704 298.657 31.4188 290.829 34.3317C283.951 36.9007 278.449 41.0274 273.675 46.5295C271.652 48.8558 269.69 51.3237 267.283 53.2656C266.555 53.8523 260.142 58.08 259.353 56.6843C265.078 66.7176 271.956 67.365 281.22 61.8223C281.038 67.6077 282.09 69.5699 287.087 73.0896C292.832 77.1353 294.733 80.3315 296.999 87.1889C301.813 78.4502 314.314 75.1125 312.13 88.1195C310.127 99.9329 320.545 97.728 322.305 108.813C324.186 106.689 326.229 104.464 328.252 102.118Z" fill="#404040"/>
<path d="M270.418 59.9415C266.878 59.9415 263.338 59.2942 260.001 57.9591L260.284 57.2511C268.517 60.5281 278.085 59.5774 285.286 54.7832L285.711 55.4103C281.22 58.4243 275.84 59.9415 270.418 59.9415Z" fill="#5E5D5B"/>
<path d="M260.223 57.4937L260.081 56.7453C260.87 56.5835 261.7 56.4419 262.549 56.28C269.771 54.9449 278.752 53.2862 283.182 46.8535L283.81 47.2783C279.197 53.974 270.054 55.6529 262.691 57.0083C261.821 57.1903 261.012 57.3319 260.223 57.4937Z" fill="#5E5D5B"/>
<path d="M305.414 99.143C302.926 101.004 299.204 103.007 299.649 98.435C299.972 94.9961 303.876 94.0454 304.868 90.9707C306.243 86.7631 301.712 86.8036 301.368 83.6682C301.004 80.3507 305.818 78.8133 308.286 79.4606C312.251 80.4923 312.919 84.8819 312.352 88.7051C311.664 93.3576 308.893 96.5335 305.414 99.143Z" fill="#E59076"/>
<path d="M291.456 154.408L290.809 154.024C291.355 153.134 293.641 146.398 294.47 143.889L294.612 143.485L307.74 150.079L323.397 127.1L324.024 127.524L308.003 151.05L295.057 144.557C294.43 146.337 292.063 153.377 291.456 154.408Z" fill="#2D3E4A"/>
<path d="M322.102 142.614C322.102 142.614 302.298 144.718 305.05 194.015L307.942 224.479L294.409 228.565C294.409 228.565 285.974 238.194 295.825 253.325C295.825 253.325 334.381 264.512 339.984 239.469C339.964 239.448 354.893 141.664 322.102 142.614Z" fill="#2D3E4A"/>
<path d="M307.315 223.327L299.264 222.538L298.233 224.905L293.701 225.977C293.701 225.977 284.801 237.649 296.21 255.592L313.97 256.198C313.97 256.219 307.356 243.232 307.315 223.327Z" fill="#3C687E"/>
<path d="M300.053 245.74C299.891 245.74 299.75 245.639 299.689 245.477C297.605 239.388 296.25 230.508 298.698 223.893C298.779 223.691 298.981 223.59 299.183 223.671C299.385 223.751 299.487 223.954 299.406 224.156C297.039 230.589 298.374 239.267 300.417 245.234C300.478 245.436 300.377 245.639 300.174 245.72C300.134 245.74 300.093 245.74 300.053 245.74Z" fill="#2D3E4A"/>
<path d="M277.215 77.9646C277.438 79.7649 277.053 81.2821 276.345 81.3832C275.657 81.4641 274.909 80.0886 274.686 78.2882C274.464 76.4879 274.848 74.9707 275.556 74.8696C276.244 74.7887 276.993 76.1642 277.215 77.9646Z" fill="#49392E"/>
<path d="M274.322 71.5313C274.201 71.5313 274.1 71.4707 274.019 71.3898C273.877 71.2279 273.918 70.9649 274.08 70.8436C275.738 69.5287 278.874 68.76 280.512 70.702C280.654 70.8638 280.634 71.1268 280.472 71.2481C280.31 71.3897 280.047 71.3695 279.926 71.2077C278.631 69.6501 275.981 70.3581 274.585 71.4707C274.484 71.4909 274.403 71.5313 274.322 71.5313Z" fill="#49392E"/>
<path d="M278.934 106.366C278.186 106.366 277.458 106.224 276.73 105.941C276.527 105.86 276.426 105.638 276.507 105.435C276.588 105.233 276.81 105.132 277.013 105.213C278.429 105.779 279.926 105.698 281.342 104.99C283.182 104.08 284.74 102.178 285.306 100.115C285.367 99.9129 285.59 99.7915 285.792 99.832C285.994 99.8927 286.116 100.115 286.075 100.317C285.448 102.563 283.729 104.667 281.706 105.678C280.796 106.123 279.865 106.366 278.934 106.366Z" fill="#49392E"/>
<path d="M260.183 228.687C256.279 226.523 251.626 225.532 246.326 225.734C244.202 225.815 242.038 226.199 239.934 226.584C236.96 227.11 233.865 227.656 230.831 227.352L230.872 226.988C233.845 227.292 236.9 226.746 239.873 226.22C241.977 225.835 244.182 225.451 246.326 225.37C251.687 225.168 256.42 226.179 260.385 228.364L260.183 228.687Z" fill="#C66A55"/>
<path d="M88.6175 347.876C86.9775 353.103 79.0778 355.212 76.8992 360.476C74.8584 365.393 75.6609 371.484 79.4176 375.387C81.9465 378.007 86.5386 378.499 88.7262 381.331C92.2602 385.853 89.7341 385.508 89.3546 390.16C88.8514 396.471 90.1691 397.196 94.5782 400.609C96.619 402.187 100.543 405.175 103.498 408.457L113.125 410.006C119.369 405.704 127.996 403.404 130.106 396.532C131.896 390.755 125.849 390.519 125.378 387.33C123.498 374.693 149.449 367.23 134.409 352.21C124.346 342.17 142.868 330.706 142.79 320.367C142.693 305.558 128.325 308.267 121.802 317.482C121.14 307.971 125.885 298.47 120.455 289.688C114.749 280.451 105.488 285.927 102.164 294.49C99.3747 301.642 98.7621 309.78 98.2594 317.362C86.6264 307.91 74.1375 321.861 80.5888 333.594C83.8986 339.638 91.0746 340.116 88.6175 347.876Z" fill="#CDE0DF"/>
<path d="M109.99 311.054C109.99 311.054 110.009 311.446 110.013 312.184C110.037 312.926 110.07 313.996 110.097 315.353C110.122 316.73 110.144 318.373 110.185 320.285C110.249 322.18 110.314 324.321 110.347 326.662C110.38 329.003 110.488 331.52 110.589 334.2C110.64 335.54 110.684 336.92 110.725 338.32C110.756 339.021 110.763 339.739 110.794 340.441C110.821 341.162 110.869 341.887 110.896 342.609C111.022 345.518 111.212 348.54 111.313 351.609C111.496 354.671 111.693 357.776 111.89 360.881C111.989 362.433 112.024 363.996 112.166 365.535C112.284 367.091 112.406 368.626 112.508 370.159C112.755 373.21 112.905 376.226 113.131 379.151C113.4 382.063 113.622 384.885 113.83 387.541C113.944 388.871 114.041 390.177 114.124 391.44C114.208 392.704 114.278 393.924 114.401 395.07C114.62 397.4 114.808 399.541 114.955 401.429C115.122 403.32 115.245 404.979 115.332 406.345C115.44 407.715 115.492 408.789 115.54 409.514C115.587 410.238 115.644 410.391 115.644 410.391C115.644 410.391 115.524 410.249 115.394 409.531C115.263 408.813 115.044 407.754 114.831 406.408C114.597 405.059 114.305 403.435 113.995 401.541C113.682 399.667 113.327 397.541 112.962 395.228C112.596 392.915 112.286 390.386 111.955 387.731C111.624 385.076 111.259 382.251 110.927 379.35C110.772 377.891 110.641 376.415 110.493 374.916C110.345 373.417 110.2 371.898 110.078 370.362C109.956 368.826 109.815 367.287 109.676 365.728C109.538 364.17 109.459 362.62 109.364 361.048C109.19 357.926 109.036 354.807 108.876 351.729C108.775 348.66 108.731 345.621 108.672 342.681C108.667 341.943 108.64 341.221 108.633 340.503C108.625 339.785 108.638 339.07 108.651 338.355C108.673 336.944 108.691 335.554 108.7 334.224C108.713 332.874 108.739 331.566 108.758 330.299C108.778 329.032 108.851 327.815 108.897 326.634C108.987 324.292 109.108 322.14 109.21 320.23C109.332 318.324 109.476 316.667 109.592 315.313C109.687 313.955 109.797 312.887 109.876 312.142C109.949 311.436 109.99 311.054 109.99 311.054Z" fill="#8FC1C1"/>
<path d="M108.205 376.78C117.868 388.928 139.941 396.781 154.994 393.384C160.394 392.163 166.797 385.223 163.162 379.414C160.716 375.517 155.166 374.358 151.027 375.761C143.226 378.399 131.88 392.637 127.654 378.66C125.509 371.615 126.783 359.24 119.532 354.897C114.15 351.675 108.174 354.689 105.109 359.605C101.385 365.685 104.283 371.867 108.205 376.78Z" fill="#9E84B7"/>
<path d="M169.443 363.173C173.862 358.885 173.388 349.855 166.921 347.647C164.475 346.803 162.004 347.388 159.641 348.197C153.955 350.171 146.304 354.431 143.435 359.911C148.037 350.407 149.695 341.249 149.719 330.783C149.747 324.621 149.388 314.503 142.238 312.205C137.797 310.774 133.151 313.673 130.45 317.09C124.304 324.85 128.805 337.376 130.49 346.129C132.608 357.165 135.04 367.514 133.574 378.793C140.296 373.687 146.253 368.375 155.178 367.148C159.684 366.52 165.92 366.602 169.443 363.173Z" fill="#9E84B7"/>
<path d="M149.676 359.195C152.316 348.392 156.287 338.479 162.039 328.832C167.149 320.25 180.738 309.139 175.656 297.811C174.103 294.344 168.521 292.36 164.982 293.983C158.952 296.701 157.605 303.799 157.08 309.738C156.492 316.446 156.436 323.034 154.801 329.634C152.228 340.018 150.058 350.323 144.343 359.484C144.726 358.89 148.924 359.668 149.556 359.811C149.569 359.608 149.621 359.411 149.676 359.195Z" fill="#9E84B7"/>
<path d="M138.449 360.459C138.56 357.608 138.772 354.631 138.969 351.753C139.582 343.103 140.203 334.147 138.577 325.792L139.381 325.635C141.031 334.096 140.403 343.092 139.781 351.802C139.584 354.68 139.375 357.637 139.264 360.488L138.449 360.459Z" fill="#694B8C"/>
<path d="M160.726 323.496L159.916 323.305C161.675 315.556 163.345 309.125 167.196 302.635L167.907 303.056C164.112 309.453 162.471 315.827 160.726 323.496Z" fill="#694B8C"/>
<path d="M149.616 362.113L149.22 361.393C154.123 358.679 162.328 356.966 168.288 356.471L168.359 357.302C162.482 357.79 154.407 359.462 149.616 362.113Z" fill="#694B8C"/>
<path d="M127.699 381.944C120.192 378.687 114.462 371.762 112.722 363.86L113.529 363.683C115.211 371.309 120.77 378.022 128.027 381.177L127.699 381.944Z" fill="#694B8C"/>
<path d="M170.833 375.034C163.36 379.712 164.338 386.876 154.444 389.669C165.791 391.474 180.569 398.953 191.303 393.489C196.569 390.812 197.955 386.015 199.955 381.358C201.563 377.601 205.027 374.409 206.423 370.822C203.041 370.709 199.758 372.516 196.06 372.454C191.932 372.384 187.749 371.772 183.672 371.895C179.426 372.052 174.273 372.883 170.833 375.034Z" fill="#FF8A9E"/>
<path d="M165.505 399.747C156.423 395.582 146.668 400.815 138.813 403.792C144.591 405.705 147.916 408.596 153.564 410.038C161.99 412.172 168.349 406.905 175.408 407.221C172.445 404.88 169.169 401.423 165.505 399.747Z" fill="#FF8A9E"/>
<path d="M152.085 365.235C152.2 366.811 146.417 370.921 145.26 372.251C142.994 374.877 140.702 377.787 140.099 381.152C139.116 386.629 144.345 391.055 141.982 396.576C146 391.977 155.019 390.171 155.844 383.767C156.66 377.547 152.502 371.428 152.085 365.235Z" fill="#FF8A9E"/>
<path d="M158.899 388.974L158.917 389.755C153.229 389.454 149.342 392.599 145.538 396.126C138.193 402.935 128.706 407.268 116.523 409.385L116.279 408.609C128.253 406.519 137.604 402.266 144.829 395.561C148.776 391.914 152.822 388.672 158.899 388.974Z" fill="#FF8A9E"/>
<path d="M146.601 404.287L146.679 405.078C144.77 405.098 142.926 404.843 141.146 404.577C138.203 404.144 135.398 403.754 132.536 404.605L132.162 403.869C135.24 402.951 138.285 403.379 141.228 403.811C142.972 404.051 144.772 404.32 146.601 404.287Z" fill="#FF8A9E"/>
<path d="M143.866 390.345L144.778 390.533C144.182 393.47 142.978 397.517 140.599 400.208L139.838 399.716C142.118 397.133 143.283 393.202 143.866 390.345Z" fill="#FF8A9E"/>
<path d="M112.942 409.997C121.612 401.188 134.208 382.623 138.641 371.494L134.541 370.999C131.626 377.783 129.203 384.953 124.85 390.994C121.098 396.229 113.714 404.179 109.027 409.367L112.942 409.997Z" fill="#9E84B7"/>
<path d="M349.542 325.163C355.095 312.979 341.574 300.009 330.703 310.304C329.633 302.781 328.411 294.712 325.092 287.789C321.135 279.501 311.489 274.735 306.493 284.374C301.737 293.539 307.182 302.657 307.236 312.191C300.025 303.515 285.509 301.869 286.524 316.643C287.242 326.954 306.553 337 297.272 347.767C283.402 363.874 309.839 369.367 308.913 382.11C308.679 385.306 302.671 386.014 304.89 391.64C307.954 399.414 319.288 400.366 325.796 405.84L330.164 404.795C332.591 400.159 338.122 395.281 340.618 393.02C344.759 389.285 346.033 388.439 345.043 382.208C344.315 377.598 341.842 378.127 345.007 373.356C346.995 370.364 351.518 369.533 353.843 366.731C357.311 362.532 357.654 356.398 355.235 351.673C352.648 346.592 344.631 345.077 342.604 339.988C339.61 332.425 346.706 331.395 349.542 325.163Z" fill="#CDE0DF"/>
<path d="M318.562 304.845C318.562 304.845 318.632 305.224 318.742 305.946C318.852 306.668 319.043 307.725 319.264 309.087C319.461 310.433 319.748 312.07 320.013 313.961C320.259 315.858 320.536 317.975 320.806 320.323C320.941 321.497 321.106 322.706 321.22 323.968C321.335 325.23 321.439 326.537 321.572 327.877C321.686 329.223 321.804 330.588 321.932 331.993C321.998 332.705 322.065 333.417 322.111 334.134C322.158 334.851 322.185 335.572 322.236 336.309C322.397 339.244 322.577 342.259 322.712 345.346C322.783 348.428 322.844 351.554 322.925 354.675C322.943 356.231 322.985 357.801 322.964 359.366C322.943 360.931 322.937 362.472 322.911 364.017C322.905 365.558 322.875 367.083 322.84 368.589C322.805 370.095 322.789 371.596 322.74 373.043C322.631 375.981 322.474 378.805 322.344 381.478C322.193 384.155 322.093 386.696 321.902 389.029C321.712 391.363 321.518 393.51 321.346 395.402C321.174 397.294 321.01 398.956 320.878 400.318C320.746 401.681 320.627 402.749 320.551 403.475C320.475 404.2 320.422 404.587 320.422 404.587C320.422 404.587 320.411 404.194 320.404 403.468C320.397 402.742 320.369 401.667 320.373 400.293C320.378 398.92 320.375 397.256 320.38 395.363C320.404 393.464 320.412 391.32 320.456 388.98C320.487 387.808 320.466 386.586 320.459 385.34C320.467 384.069 320.471 382.779 320.46 381.429C320.463 378.745 320.473 375.914 320.527 373.01C320.538 370.096 320.461 367.078 320.473 363.997C320.479 362.456 320.466 360.92 320.467 359.36C320.468 357.8 320.411 356.254 320.393 354.698C320.356 351.587 320.319 348.476 320.273 345.409C320.142 342.341 320.11 339.333 320.012 336.403C319.985 335.682 319.978 334.956 319.951 334.234C319.924 333.513 319.902 332.811 319.86 332.114C319.796 330.715 319.757 329.331 319.687 327.995C319.567 325.32 319.501 322.778 319.363 320.461C319.22 318.124 319.144 315.979 319.046 314.089C318.923 312.184 318.842 310.539 318.763 309.165C318.684 307.79 318.636 306.72 318.609 305.999C318.573 305.238 318.562 304.845 318.562 304.845Z" fill="#8FC1C1"/>
<path d="M325.261 370.277C316.537 383.115 295.116 392.604 279.851 390.346C274.374 389.534 267.468 383.094 270.656 377.029C272.803 372.959 278.251 371.386 282.484 372.475C290.46 374.52 302.843 387.866 306.008 373.611C307.618 366.425 305.419 354.18 312.323 349.306C317.448 345.689 323.634 348.245 327.059 352.917C331.244 358.676 328.798 365.064 325.261 370.277Z" fill="#9E84B7"/>
<path d="M263.17 361.284C258.442 357.34 258.236 348.3 264.519 345.612C266.894 344.587 269.402 344.986 271.82 345.614C277.638 347.156 285.587 350.83 288.86 356.079C283.557 346.947 281.216 337.939 280.406 327.505C279.915 321.362 279.515 311.246 286.472 308.418C290.793 306.657 295.643 309.2 298.593 312.404C305.304 319.681 301.757 332.509 300.733 341.365C299.45 352.528 297.801 363.03 300.11 374.167C293.023 369.58 286.685 364.731 277.692 364.177C273.152 363.89 266.964 364.454 263.17 361.284Z" fill="#9E84B7"/>
<path d="M282.606 355.847C279.163 345.273 274.459 335.686 267.999 326.499C262.259 318.324 247.874 308.265 252.092 296.587C253.38 293.014 258.797 290.616 262.448 291.969C268.665 294.226 270.541 301.203 271.511 307.086C272.6 313.731 273.151 320.296 275.277 326.755C278.621 336.917 281.559 347.03 287.945 355.736C287.519 355.172 283.392 356.263 282.772 356.453C282.72 356.236 282.673 356.04 282.606 355.847Z" fill="#9E84B7"/>
<path d="M293.892 356.247L293.061 356.342C292.737 353.508 292.307 350.574 291.894 347.719C290.639 339.076 289.318 330.157 290.329 321.596L291.143 321.693C290.148 330.146 291.459 339.025 292.7 347.61C293.132 350.46 293.568 353.413 293.892 356.247Z" fill="#694B8C"/>
<path d="M268.904 321.061C266.587 313.545 264.473 307.312 260.208 301.218L260.885 300.744C265.213 306.927 267.346 313.239 269.696 320.809L268.904 321.061Z" fill="#694B8C"/>
<path d="M282.866 358.759C277.889 356.475 269.707 355.395 263.815 355.368L263.823 354.534C269.804 354.581 278.114 355.673 283.207 358.012L282.866 358.759Z" fill="#694B8C"/>
<path d="M306.205 376.869L305.82 376.129C312.82 372.438 317.859 365.327 318.964 357.596L319.782 357.712C318.66 365.718 313.447 373.058 306.205 376.869Z" fill="#694B8C"/>
<path d="M262.732 373.287C270.51 377.459 270.008 384.671 280.059 386.782C268.861 389.355 254.619 397.813 243.549 393.097C238.127 390.774 236.404 386.09 234.081 381.592C232.215 377.961 228.556 375.009 226.914 371.533C230.263 371.19 233.677 372.766 237.369 372.465C241.489 372.125 245.62 371.221 249.679 371.062C253.964 370.89 259.155 371.375 262.732 373.287Z" fill="#FF8A9E"/>
<path d="M269.842 397.46C278.586 392.624 288.706 397.11 296.762 399.489C291.144 401.831 288.046 404.963 282.521 406.825C274.28 409.585 267.543 404.81 260.528 405.656C263.331 403.113 266.314 399.406 269.842 397.46Z" fill="#FF8A9E"/>
<path d="M280.658 362.054C280.661 363.634 286.737 367.298 287.99 368.538C290.447 370.987 292.951 373.716 293.805 377.027C295.196 382.414 290.314 387.221 293.085 392.548C288.733 388.264 279.604 387.14 278.301 380.817C277.015 374.656 280.682 368.246 280.658 362.054Z" fill="#FF8A9E"/>
<path d="M275.625 386.24L275.666 387.02C281.315 386.293 285.427 389.137 289.486 392.368C297.321 398.607 307.106 402.216 319.414 403.413L319.598 402.62C307.502 401.435 297.858 397.896 290.149 391.752C285.96 388.407 281.658 385.463 275.625 386.24Z" fill="#FF8A9E"/>
<path d="M289.057 400.582L289.039 401.377C290.944 401.254 292.764 400.861 294.519 400.462C297.441 399.805 300.189 399.21 303.107 399.844L303.424 399.082C300.286 398.397 297.282 399.053 294.38 399.705C292.635 400.059 290.859 400.463 289.057 400.582Z" fill="#FF8A9E"/>
<path d="M290.739 386.476L289.843 386.732C290.657 389.615 292.162 393.561 294.737 396.065L295.459 395.518C292.967 393.098 291.51 389.266 290.739 386.476Z" fill="#FF8A9E"/>
<path d="M329.18 405.031C324.624 400.588 314.562 391.471 309.73 385.7C304.956 379.998 301.981 373.035 298.565 366.489L294.514 367.291C300.274 379.121 316.572 399.185 325.663 405.892L329.185 405.051L329.18 405.031Z" fill="#9E84B7"/>
</svg>
