<svg width="435" height="456" viewBox="0 0 435 456" fill="none" xmlns="http://www.w3.org/2000/svg">
<g clip-path="url(#clip0_182_739)">
<path fill-rule="evenodd" clip-rule="evenodd" d="M6.38684 210.278C6.38684 323.462 100.987 415.215 217.683 415.215C334.379 415.215 428.979 323.462 428.979 210.278C428.979 97.0943 334.379 5.34082 217.683 5.34082C100.987 5.34082 6.38684 97.0943 6.38684 210.278ZM323.759 106.784C241.636 18.3199 139.982 99.5387 139.982 99.5387C139.982 99.5387 83.6341 147.516 83.1208 173.304C82.6819 195.355 97.7564 206.28 121.658 223.602C125.707 226.537 130.01 229.656 134.533 233.043C165.757 256.423 195.698 235.809 199.975 222.318C204.253 208.826 268.411 207.63 274.571 216.34C280.73 225.05 312.809 224.282 315.375 213.693C316.169 210.419 313.888 207.505 311.429 204.364C305.936 197.346 299.558 189.198 324.614 173.389C360.885 150.504 323.759 106.784 323.759 106.784Z" fill="#D4F5F9"/>
<path d="M12.0733 418.374C8.13821 398.444 99.7397 390.691 214.986 386.268C292.524 383.296 414.374 390.708 427.309 416.496C439.576 440.969 326.793 449.747 214.986 450.481C94.8295 451.267 16.9493 443.086 12.0733 418.374Z" fill="#78B1C0"/>
<path d="M145.881 276.028H316.971V301.816H145.881V276.028Z" fill="#99DAF1"/>
<path d="M280.307 292.936C279.742 296.061 278.989 299.084 278.202 301.816H316.971V292.936H280.307Z" fill="#7A9DD2"/>
<path d="M145.881 292.936V301.816H202.7C202.649 298.691 202.854 295.719 203.265 292.936H145.881Z" fill="#7A9DD2"/>
<path d="M202.7 301.816H278.185C278.972 299.084 279.725 296.061 280.29 292.936H203.248C202.854 295.719 202.649 298.691 202.7 301.816Z" fill="#6780BF"/>
<path d="M203.265 292.936H280.306C281.333 287.214 281.726 281.169 280.495 276.028H208.5C206.481 280.178 204.274 285.968 203.265 292.936Z" fill="#7DA3D6"/>
<path d="M147.763 301.816H314.747V416.581H147.763V301.816Z" fill="#B288BD"/>
<path d="M192.127 416.581H310.299L314.747 416.445V301.816H202.632C199.107 321.354 193.735 394.004 192.127 416.581Z" fill="#8957A3"/>
<path d="M310.299 416.581H314.747V416.444L310.299 416.581Z" fill="#8957A3"/>
<path d="M187.456 181.586C187.456 181.586 170.433 178.085 170.433 166.301C170.433 154.518 175.908 152.639 183.093 147.686C190.279 142.734 196.609 140.343 195.925 127.534C195.241 114.726 208.072 107.553 215.087 107.04C222.102 106.528 234.934 105.162 242.804 117.458C242.804 117.458 246.739 121.557 244.857 130.779C242.975 140.001 252.214 139.66 252.043 147.003C251.871 154.347 241.606 160.836 242.29 165.789C242.975 170.742 250.674 167.326 251.016 173.303C251.358 179.281 245.028 186.454 227.748 186.624C210.468 186.795 187.456 181.586 187.456 181.586Z" fill="#B57647"/>
<path d="M199.347 140.514C199.347 146.491 206.02 146.15 206.02 146.15C206.02 146.15 206.088 146.474 206.276 147.038C207.2 149.821 210.947 158.19 222.786 159.351C222.872 159.351 222.957 159.368 223.043 159.368C223.043 159.368 240.836 158.343 239.81 134.776C239.81 134.776 233.736 134.69 230.314 121.711C230.314 121.711 226.379 131.958 220.733 131.616C215.087 131.275 209.099 136.057 209.099 136.057C209.099 136.057 199.347 134.537 199.347 140.514Z" fill="#FFC3AB"/>
<path d="M232.111 137.268C232.248 137.268 232.368 137.2 232.453 137.098C233.035 136.312 233.702 135.885 234.455 135.834C235.926 135.731 237.261 137.132 237.278 137.132C237.449 137.303 237.706 137.303 237.877 137.149C238.048 136.978 238.048 136.722 237.894 136.551C237.825 136.483 236.269 134.86 234.404 134.98C233.394 135.048 232.505 135.578 231.769 136.585C231.632 136.773 231.666 137.046 231.854 137.183C231.94 137.234 232.026 137.268 232.111 137.268Z" fill="#49392E"/>
<path d="M214.659 137.268C214.796 137.268 214.916 137.2 215.002 137.098C215.583 136.312 216.251 135.885 217.003 135.834C218.475 135.748 219.809 137.132 219.826 137.132C219.997 137.303 220.254 137.303 220.425 137.149C220.596 136.978 220.596 136.722 220.442 136.551C220.374 136.483 218.817 134.86 216.952 134.98C215.943 135.048 215.053 135.578 214.317 136.585C214.18 136.773 214.215 137.046 214.403 137.183C214.488 137.234 214.574 137.268 214.659 137.268Z" fill="#49392E"/>
<path d="M234.592 141.794C233.978 141.794 233.48 141.297 233.48 140.684C233.48 140.071 233.978 139.574 234.592 139.574C235.206 139.574 235.704 140.071 235.704 140.684C235.704 141.297 235.206 141.794 234.592 141.794Z" fill="#49392E"/>
<path d="M217.14 141.794C216.526 141.794 216.028 141.297 216.028 140.684C216.028 140.071 216.526 139.574 217.14 139.574C217.755 139.574 218.252 140.071 218.252 140.684C218.252 141.297 217.755 141.794 217.14 141.794Z" fill="#49392E"/>
<path d="M226.807 147.174C226.842 147.174 226.859 147.174 226.893 147.174C227.56 147.037 227.8 146.593 227.817 146.217C227.834 145.739 227.492 145.329 226.996 145.159C226.705 144.715 226.448 142.307 226.38 140.24C226.38 140.001 226.174 139.813 225.935 139.83C225.695 139.83 225.507 140.035 225.524 140.274C225.712 145.722 226.431 145.893 226.705 145.961C226.876 146.012 226.961 146.115 226.961 146.183C226.961 146.234 226.859 146.286 226.722 146.32C226.482 146.371 226.345 146.593 226.38 146.815C226.431 147.037 226.602 147.174 226.807 147.174Z" fill="#DD5B45"/>
<path d="M224.566 152.588C226.739 152.588 228.69 151.529 228.809 151.478C229.015 151.358 229.1 151.102 228.98 150.897C228.861 150.692 228.604 150.607 228.399 150.727C228.365 150.744 225.268 152.417 222.804 151.41C221.555 150.897 220.648 149.787 220.118 148.079C220.05 147.857 219.81 147.721 219.588 147.789C219.365 147.857 219.228 148.097 219.297 148.319C219.896 150.283 220.973 151.581 222.479 152.195C223.163 152.486 223.882 152.588 224.566 152.588Z" fill="#DD5B45"/>
<path d="M205.849 168.863C218.338 178.427 222.787 169.717 222.787 169.717V159.368C210.947 158.207 207.2 149.821 206.276 147.055L205.986 161.571L205.849 168.727V168.863Z" fill="#FFC3AB"/>
<g opacity="0.5">
<path d="M205.986 161.571C211.837 164.731 218.612 165.243 222.787 165.192V159.368C210.947 158.207 207.2 149.821 206.276 147.055L205.986 161.571Z" fill="#F597A9"/>
</g>
<path d="M162.05 234.443C162.05 234.443 163.641 245.099 175.429 248.293C176.473 248.583 177.602 248.805 178.817 248.959C190.708 250.462 201.606 249.779 207.526 247.012C209.014 246.312 210.195 245.475 210.982 244.519C210.982 244.519 210.965 244.177 210.982 243.613C210.982 241.649 211.102 236.936 212.025 234.05C212.077 233.879 212.128 233.725 212.197 233.572L212.881 232.701L233.241 206.759L233.668 206.776L237.381 206.861L238.767 206.896L245.474 207.032C245.474 207.032 253.6 173.132 222.804 169.717C222.804 169.717 218.356 178.426 205.866 168.863V168.709C189.322 168.948 184.052 174.157 175.241 182.696C163.932 193.626 159.313 226.928 162.05 234.443Z" fill="#F3B256"/>
<path d="M233.24 186.044C233.274 186.095 235.19 189.221 236.508 193.832C237.466 197.179 238.253 201.876 237.363 206.862L238.749 206.897C239.639 201.722 238.817 196.872 237.825 193.422C236.439 188.623 234.489 185.464 234.42 185.327C234.215 185.002 233.805 184.9 233.479 185.105C233.137 185.31 233.035 185.72 233.24 186.044Z" fill="#F0972E"/>
<path d="M174.47 223.889C174.727 224.162 175.155 224.179 175.428 223.923C175.463 223.889 176.78 222.728 179.346 222.54C181.759 222.369 185.796 223.069 191.305 227.373C197.191 231.984 204.924 233.487 210.382 233.948C210.929 233.999 211.477 234.033 212.007 234.067C212.059 233.897 212.11 233.743 212.178 233.589L212.863 232.718C206.755 232.462 198.32 231.13 192.161 226.314C190.176 224.76 188.277 223.564 186.429 222.71L195.446 199.433C195.583 199.074 195.412 198.682 195.052 198.545C194.693 198.408 194.3 198.579 194.163 198.938L185.163 222.181C183.042 221.361 181.023 221.037 179.124 221.191C176.113 221.447 174.556 222.864 174.504 222.932C174.231 223.189 174.214 223.616 174.47 223.889Z" fill="#F0972E"/>
<path d="M176.764 275.942L220.734 277.992C209.955 316.588 206.02 385.413 206.02 385.413C206.259 385.549 206.499 385.686 206.739 385.806C212.641 388.931 218.082 388.384 220.922 387.735C222.222 387.445 222.958 387.121 222.958 387.121C222.958 387.121 232.676 353.135 241.538 322.514C242.069 320.67 242.599 318.842 243.129 317.049C244.464 312.455 245.764 307.981 246.996 303.797C250.572 291.569 253.532 281.595 254.952 277.138C259.16 263.988 260.94 254.338 256.714 246.995C256.218 246.158 255.653 245.338 255.003 244.553C254.182 243.562 253.224 242.606 252.112 241.701C244.19 235.211 219.365 241.308 210.964 243.63C210.964 244.194 210.964 244.536 210.964 244.536C210.776 244.758 210.571 244.98 210.331 245.202C210.28 245.236 210.246 245.287 210.195 245.321C210.143 245.372 210.092 245.424 210.023 245.458L210.006 245.475C209.955 245.526 209.904 245.56 209.852 245.612C209.596 245.816 209.322 246.004 209.031 246.192C208.877 246.295 208.706 246.397 208.552 246.483C208.467 246.534 208.381 246.585 208.295 246.619C208.21 246.67 208.124 246.722 208.039 246.756C207.868 246.841 207.68 246.944 207.491 247.029C201.572 249.796 190.673 250.479 178.782 248.976C177.568 248.822 176.438 248.6 175.395 248.31C166.686 259.957 176.764 275.942 176.764 275.942Z" fill="#5A73A0"/>
<path d="M247.013 303.797C248.364 304.667 249.904 305.726 251.495 306.888C274.079 279.307 301.351 244.399 285.508 234.05C283.044 232.444 280.649 231.522 278.339 231.146C268.313 229.524 259.879 238.063 255.037 244.57C255.396 245.014 255.738 245.458 256.046 245.919C256.2 246.141 256.354 246.38 256.491 246.619C261.025 254.014 259.263 263.783 254.968 277.155C253.548 281.595 250.571 291.569 247.013 303.797Z" fill="#5A73A0"/>
<path d="M256.492 246.603C256.355 246.363 256.201 246.141 256.047 245.902C256.201 246.141 256.338 246.381 256.492 246.603Z" fill="#4C2A74"/>
<path d="M255.02 244.57C255.379 245.014 255.721 245.458 256.029 245.919C255.738 245.458 255.396 245.014 255.02 244.57Z" fill="#4C2A74"/>
<path d="M241.538 322.532C251.171 326.443 262.48 329.722 264.105 324.376C265.799 318.809 258.151 311.79 251.479 306.906C249.887 305.727 248.348 304.685 246.996 303.814C246.842 304.344 246.688 304.873 246.534 305.403C246.449 305.676 246.38 305.932 246.295 306.205C245.884 307.589 245.473 309.006 245.063 310.441C244.926 310.936 244.772 311.431 244.635 311.927C244.139 313.617 243.643 315.342 243.147 317.067C242.599 318.86 242.069 320.688 241.538 322.532Z" fill="#F3735D"/>
<path d="M197.978 415.642L250.503 416.666C250.503 416.666 255.464 409.494 245.37 405.224C235.276 400.955 223.128 396.002 223.128 396.002C223.128 396.002 222.889 396.668 222.29 397.59C220.425 400.408 215.121 405.634 202.683 401.296C202.375 401.194 202.067 401.074 201.759 400.955L197.978 415.642Z" fill="#F3735D"/>
<path d="M202.667 401.295C215.122 405.633 220.426 400.407 222.273 397.59C221.076 395.011 220.888 390.553 220.905 387.735C218.065 388.384 212.641 388.931 206.721 385.806C205.695 390.844 203.505 398.461 202.667 401.295Z" fill="#F9C4DB"/>
<path d="M210.981 243.631C218.561 241.548 239.451 236.39 249.306 240.13C250.4 240.54 251.341 241.069 252.128 241.701C252.163 241.735 252.197 241.77 252.248 241.804C253.309 242.675 254.233 243.597 255.02 244.553L255.037 244.57C259.879 238.064 268.314 229.525 278.339 231.147L304.414 205.581C282.514 207.972 274.986 215.145 274.986 215.145L274.028 215.128L269.905 215.059L269.272 215.042C259.177 210.773 233.685 211.456 233.685 211.456V206.777L233.257 206.759L212.898 232.701L212.213 233.572C212.162 233.726 212.093 233.879 212.042 234.05C211.084 236.953 210.981 241.667 210.981 243.631Z" fill="#8655A2"/>
<path d="M249.305 240.13C250.4 240.54 251.341 241.069 252.128 241.701C252.163 241.735 252.197 241.769 252.248 241.803L274.011 215.144L269.887 215.076L249.305 240.13Z" fill="#AD89BE"/>
<path d="M233.805 208.672L233.856 207.306C249.34 207.887 260.324 208.929 266.517 210.432C268.827 210.995 270.367 211.593 271.12 212.242C282.72 204.335 299.418 201.09 299.589 201.056L299.846 202.405C299.675 202.439 282.942 205.684 271.582 213.591V214.804H270.213V213.266H270.23C269.46 212.635 264.481 209.817 233.805 208.672Z" fill="#69657E"/>
<path d="M370.301 374.801C369.856 370.89 369.463 366.928 369.103 362.983C368.744 359.038 368.436 355.076 368.197 351.131C367.957 347.186 367.752 343.224 367.666 339.279C367.581 335.334 367.598 331.371 367.872 327.478C368.008 325.531 368.214 323.584 368.624 321.722C368.676 321.483 368.727 321.261 368.778 321.039C368.83 320.817 368.898 320.595 368.967 320.373C369.035 320.151 369.103 319.929 369.189 319.724L369.446 319.041L369.736 318.307C369.822 318.068 369.89 317.811 369.976 317.572C370.147 317.077 370.267 316.582 370.404 316.087C370.9 314.088 371.225 312.09 371.464 310.092C371.704 308.094 371.858 306.096 371.961 304.098C372.166 300.101 372.183 296.105 372.098 292.109C372.012 288.113 371.824 284.151 371.516 280.154L370.335 280.24C370.558 284.185 370.643 288.164 370.643 292.126C370.626 296.088 370.523 300.05 370.216 303.978C370.062 305.942 369.873 307.906 369.582 309.853C369.309 311.8 368.949 313.713 368.436 315.574C368.299 316.035 368.18 316.496 368.008 316.94C367.923 317.162 367.854 317.385 367.769 317.607L367.495 318.256L367.204 318.973C367.102 319.229 367.016 319.485 366.931 319.741C366.845 319.997 366.777 320.254 366.708 320.493C366.64 320.749 366.571 321.005 366.503 321.244C366.024 323.259 365.767 325.275 365.562 327.29C365.185 331.303 365.083 335.317 365.066 339.313C365.066 343.309 365.151 347.305 365.305 351.285C365.459 355.264 365.682 359.26 365.938 363.239C366.195 367.218 366.503 371.18 366.862 375.177L370.301 374.801Z" fill="#666766"/>
<path d="M368.197 280.53C368.197 280.53 407.462 284.202 406.093 238.261C404.724 192.321 340.394 200.86 337.144 230.918C333.893 260.975 348.778 279.42 368.197 280.53Z" fill="#81B0DE"/>
<path d="M358.308 236.622C360.259 238.501 362.26 240.448 363.68 242.838C363.817 243.06 363.937 243.3 364.074 243.539C364.621 244.529 365.152 245.468 365.939 246.032C364.929 235.205 366.982 226.785 372.081 220.979L372.851 221.662C369.737 225.214 367.804 229.808 367.051 235.392C369.241 235.529 371.448 234.658 373.604 233.804C374.288 233.531 375.006 233.258 375.708 233.001C378.942 231.874 382.449 231.43 385.871 231.686L385.785 232.711C382.517 232.455 379.147 232.899 376.033 233.975C375.349 234.214 374.647 234.487 373.963 234.761C371.876 235.58 369.72 236.434 367.496 236.434C367.307 236.434 367.119 236.434 366.914 236.417C366.657 238.911 366.623 241.592 366.811 244.444L375.674 244.051C377.847 243.949 380.088 243.863 382.312 244.222C384.827 244.632 386.949 245.622 388.437 247.074L387.718 247.808C386.042 246.152 383.766 245.503 382.158 245.246C380.054 244.905 377.847 245.007 375.725 245.093L366.897 245.486C367.034 247.091 367.239 248.747 367.513 250.472C367.906 252.88 368.385 255.34 368.881 257.731C369.994 258.465 371.431 258.499 372.936 258.516C373.364 258.516 373.792 258.533 374.202 258.55C376.187 258.67 378.12 259.199 379.968 259.729L382.688 260.497C383.219 260.651 384.451 260.992 384.741 262.051L383.749 262.307C383.629 261.863 382.979 261.624 382.415 261.471L379.694 260.702C377.881 260.19 376.016 259.677 374.134 259.558C373.74 259.541 373.33 259.524 372.902 259.524C371.619 259.507 370.301 259.473 369.121 258.994C370.575 266.167 372.047 273.562 371.311 280.94L370.284 280.837C370.9 274.792 369.976 268.678 368.813 262.7C366.366 262.598 363.868 261.078 361.542 258.294C361.063 257.713 360.584 257.099 360.139 256.518C358.787 254.742 357.487 253.068 355.725 251.924L356.289 251.07C358.205 252.317 359.608 254.144 360.96 255.903C361.405 256.484 361.867 257.082 362.346 257.645C363.8 259.404 366.041 261.454 368.625 261.676C368.437 260.736 368.248 259.797 368.06 258.858C367.513 256.159 366.948 253.376 366.503 250.626C366.315 249.414 366.144 248.218 366.024 247.057L365.939 247.245C364.587 246.596 363.868 245.298 363.167 244.051C363.047 243.829 362.91 243.59 362.791 243.368C361.456 241.079 359.489 239.184 357.589 237.356C356.905 236.69 356.152 236.041 355.365 236.11L355.28 235.085C356.512 235 357.487 235.836 358.308 236.622Z" fill="#666766"/>
<path d="M382.072 301.601C382.072 301.601 395.674 303.856 399.831 295.539C403.972 287.239 400.174 281.159 400.174 281.159C400.174 281.159 388.334 278.136 383.15 288.024C377.949 297.947 382.072 301.601 382.072 301.601Z" fill="#EEAA73"/>
<path d="M389.703 291.201L389.686 291.218C389.634 291.372 389.583 291.508 389.566 291.645C389.549 291.799 389.6 291.987 389.651 292.157L390.079 293.626L390.182 293.541C391.14 292.653 392.132 291.748 393.039 290.774C393.33 290.467 393.604 290.159 393.877 289.835C393.706 288.878 393.758 287.871 394.014 286.932C394.048 286.812 394.083 286.709 394.117 286.59C394.168 286.419 394.219 286.248 394.254 286.078C394.596 284.66 394.083 283.14 393.672 281.893L394.065 281.757C394.493 283.038 395.006 284.643 394.647 286.163C394.596 286.351 394.545 286.522 394.493 286.692C394.459 286.795 394.425 286.914 394.391 287.017C394.168 287.785 394.117 288.588 394.202 289.374C395.178 288.195 396.084 286.949 396.957 285.736L398.924 283.038L399.267 283.277L397.299 285.975C396.067 287.683 394.784 289.442 393.313 291.013C393.005 291.355 392.68 291.679 392.355 292.004C394.134 292.499 396.153 292.192 397.693 291.201L397.915 291.56C396.187 292.687 393.98 292.977 392.012 292.345C391.499 292.841 390.969 293.336 390.438 293.814L387.205 296.803C388.642 296.598 390.113 296.7 391.516 297.093L391.619 297.127C391.876 297.195 392.115 297.264 392.355 297.264C392.594 297.264 392.851 297.178 393.09 297.093L396.136 296.034L396.273 296.427L393.227 297.486C392.97 297.571 392.68 297.674 392.355 297.691C392.047 297.691 391.773 297.622 391.499 297.537L391.396 297.503C389.857 297.059 388.214 297.008 386.64 297.332L382.602 301.072L382.312 300.765L384.176 299.04C384.022 298.818 383.903 298.579 383.817 298.323C383.561 297.588 383.561 296.768 383.561 295.983C383.561 294.992 383.561 294.053 383.116 293.25L383.475 293.045C383.971 293.934 383.971 294.975 383.971 295.966C383.971 296.991 383.971 297.964 384.467 298.75L389.754 293.951L389.258 292.277C389.207 292.089 389.138 291.867 389.155 291.628C389.172 291.423 389.241 291.252 389.309 291.081L389.326 291.064C390.148 288.878 390.455 286.505 390.182 284.199L390.592 284.148C390.849 286.522 390.541 288.964 389.703 291.201Z" fill="#666766"/>
<path d="M350.574 336.457C350.574 336.457 343.919 331.248 346.947 324.4C349.975 317.569 339.573 304.828 333.961 303.582C328.35 302.335 319.402 306.758 321.249 316.134C323.114 325.51 332.695 338.762 341.643 339.377C350.591 340.009 350.574 336.457 350.574 336.457Z" fill="#70C6AF"/>
<path d="M326.519 326.825L326.947 326.398C327.768 327.218 328.624 328.055 329.616 328.669C330.369 329.13 331.549 329.66 332.815 329.472C333.5 329.387 334.184 329.079 334.766 328.618C334.68 328.533 334.612 328.464 334.526 328.379C332.696 326.535 331.395 324.502 330.694 322.47L327.101 322.453C326.776 322.453 326.006 322.487 325.903 322.914L325.305 322.777C325.441 322.163 326.074 321.838 327.101 321.838L330.489 321.855C329.975 320.113 329.907 318.388 330.318 316.783C330.437 316.339 330.591 315.895 330.745 315.468C330.951 314.87 331.156 314.307 331.258 313.709C331.344 313.265 331.361 312.804 331.395 312.326C331.412 312.018 331.43 311.711 331.464 311.386C331.72 308.995 332.918 306.741 334.749 305.17L335.142 305.631C333.431 307.083 332.319 309.2 332.08 311.438C332.046 311.728 332.028 312.035 332.011 312.343C331.977 312.821 331.96 313.316 331.874 313.794C331.772 314.392 331.584 314.956 331.378 315.502C333.637 314.836 335.57 313.06 336.357 310.857C336.443 310.635 336.511 310.396 336.579 310.174C336.785 309.508 337.007 308.808 337.452 308.227L337.931 308.603C337.555 309.098 337.349 309.696 337.161 310.345C337.093 310.584 337.007 310.823 336.922 311.045C336.631 311.865 336.169 312.65 335.621 313.333C334.475 314.734 332.884 315.775 331.122 316.185C331.036 316.424 330.968 316.663 330.899 316.903C330.01 320.335 331.515 324.451 334.937 327.918C335.348 328.328 335.758 328.721 336.186 329.096C337.024 328.345 337.144 326.996 337.093 325.937C337.076 325.715 337.058 325.493 337.041 325.254C336.956 324.11 336.87 322.948 337.366 321.872L337.931 322.128C337.503 323.051 337.589 324.144 337.657 325.203C337.674 325.442 337.691 325.664 337.709 325.886C337.709 325.971 337.709 326.056 337.726 326.142C339.351 325.305 340.737 323.99 341.644 322.402L342.174 322.709C341.9 323.17 341.609 323.614 341.267 324.041C340.309 325.22 339.077 326.193 337.709 326.842C337.64 327.85 337.366 328.652 336.904 329.233C336.836 329.318 336.75 329.404 336.665 329.489C337.743 330.411 338.872 331.265 339.967 332.119C341.541 333.315 343.149 334.561 344.604 335.945L344.176 336.389C342.756 335.022 341.148 333.793 339.591 332.597C338.102 331.47 336.579 330.292 335.176 328.977C334.492 329.54 333.688 329.899 332.867 330.001C331.412 330.206 330.095 329.626 329.257 329.113C328.247 328.533 327.358 327.662 326.519 326.825Z" fill="#666766"/>
<path d="M372.457 358.206C372.457 358.206 383.338 352.109 380.464 341.452C377.607 330.796 395.657 314.571 404.126 314.042C412.595 313.513 424.64 321.966 419.815 335.202C414.99 348.437 398.001 365.618 384.81 364.508C371.619 363.398 372.457 358.206 372.457 358.206Z" fill="#70C6AF"/>
<path d="M409.704 349.599L409.173 348.865C407.787 349.872 406.35 350.897 404.759 351.563C403.544 352.075 401.714 352.554 399.9 352.024C398.925 351.734 398.001 351.136 397.248 350.333C397.385 350.231 397.505 350.146 397.642 350.043C400.721 347.772 403.065 345.108 404.571 342.29L409.806 343.075C410.285 343.144 411.397 343.383 411.449 344.032L412.355 343.963C412.287 343.041 411.432 342.409 409.943 342.187L404.999 341.436C406.128 339.011 406.624 336.5 406.384 334.075C406.316 333.392 406.196 332.709 406.076 332.043C405.905 331.121 405.751 330.25 405.734 329.362C405.717 328.695 405.786 328.029 405.854 327.329C405.905 326.885 405.94 326.424 405.957 325.963C406.128 322.428 404.896 318.858 402.586 316.16L401.902 316.741C404.075 319.251 405.221 322.599 405.067 325.912C405.05 326.356 404.999 326.8 404.964 327.244C404.896 327.944 404.828 328.661 404.845 329.396C404.862 330.284 405.016 331.155 405.17 332.009C402.039 330.54 399.626 327.5 398.959 324.101C398.891 323.76 398.839 323.401 398.788 323.06C398.634 322.035 398.48 320.976 397.95 320.037L397.163 320.481C397.608 321.284 397.744 322.206 397.898 323.196C397.95 323.555 398.001 323.914 398.069 324.272C398.326 325.536 398.788 326.766 399.455 327.893C400.807 330.198 402.894 332.077 405.358 333.067C405.426 333.426 405.478 333.802 405.512 334.16C406.025 339.369 402.894 345.039 397.128 349.309C396.444 349.821 395.743 350.299 395.024 350.76C393.98 349.479 394.1 347.481 394.425 345.961C394.494 345.637 394.562 345.312 394.648 344.988C395.024 343.348 395.418 341.658 394.939 339.984L394.066 340.24C394.477 341.675 394.117 343.263 393.758 344.783C393.672 345.125 393.604 345.449 393.536 345.774C393.501 345.893 393.484 346.03 393.467 346.149C391.277 344.561 389.566 342.324 388.591 339.796L387.753 340.121C388.044 340.855 388.386 341.572 388.779 342.255C389.908 344.202 391.482 345.893 393.33 347.14C393.193 348.626 393.416 349.855 393.963 350.795C394.049 350.948 394.151 351.085 394.254 351.221C392.475 352.314 390.644 353.322 388.848 354.296C386.281 355.696 383.647 357.13 381.217 358.838L381.73 359.573C384.126 357.899 386.743 356.464 389.275 355.081C391.705 353.766 394.203 352.4 396.53 350.812C397.402 351.785 398.497 352.485 399.661 352.844C401.731 353.459 403.784 352.912 405.135 352.349C406.795 351.7 408.284 350.624 409.704 349.599Z" fill="#666766"/>
<path d="M314.748 363.451V416.445L326.228 416.103L336.955 415.796L347.374 415.488L357.349 415.198L360.138 415.113L363.97 414.993L403.714 413.849C403.714 413.849 421.935 373.288 412.354 368.165C402.773 363.042 398.667 375.338 398.667 375.338C398.667 375.338 390.284 347.842 372.833 347.842C355.381 347.842 367.187 370.214 348.367 368.848C329.547 367.482 345.116 356.723 338.101 354.673C331.087 352.624 337.246 336.741 327.665 338.62C318.905 340.345 328.178 361.795 314.748 363.451Z" fill="#756DB2"/>
<path d="M375.655 400.357C375.108 400.562 374.389 400.972 373.551 401.519C374.783 400.836 375.604 400.392 375.655 400.357Z" fill="#C7B5D8"/>
<path d="M371.029 308.382C371.406 308.263 381.217 305.136 383.03 300.627L382.318 300.494C380.744 304.422 371.67 306.69 371.584 306.724L371.029 308.382Z" fill="#666766"/>
<path d="M349.274 337.703C350.489 337.703 355.468 337.533 358.325 334.766C359.659 333.485 360.327 331.829 360.327 329.847C360.327 328.276 360.823 327.115 361.832 326.278C364.57 324.024 367.951 324.892 368.019 324.909V323.407C367.762 323.355 364.193 322.555 360.96 325.219C359.625 326.312 358.958 327.866 358.958 329.847C358.958 331.436 358.428 332.768 357.367 333.793C354.595 336.474 349.103 336.337 349.052 336.337L349.001 337.703C349.035 337.703 349.137 337.703 349.274 337.703Z" fill="#666766"/>
<path d="M73.3905 314.775C73.3905 314.775 49.455 346.062 16.5715 313.904C-16.312 281.746 33.6121 240.348 57.9411 258.349C82.2701 276.349 85.7432 299.78 73.3905 314.775Z" fill="#81B0DE"/>
<path d="M47.2306 277.22C47.299 279.919 47.3503 282.72 48.1715 285.384C48.2571 285.64 48.3256 285.896 48.4111 286.152C48.7704 287.228 49.0955 288.253 48.9757 289.209C41.6873 281.114 34.0908 276.913 26.3576 276.708L26.3234 277.733C31.0626 277.852 35.7504 279.56 40.3699 282.805C38.984 284.496 36.8454 285.537 34.7581 286.528C34.0909 286.852 33.4065 287.177 32.7392 287.536C29.7109 289.141 26.9906 291.412 24.8691 294.094L25.6732 294.725C27.7092 292.164 30.3269 289.978 33.2183 288.441C33.8513 288.099 34.5357 287.775 35.203 287.45C37.2218 286.477 39.3091 285.469 40.8147 283.83C40.9515 283.693 41.0713 283.539 41.1911 283.386C43.1929 284.889 45.1946 286.682 47.1621 288.765L40.866 294.999C39.3262 296.536 37.718 298.107 36.4861 299.986C35.0832 302.12 34.3646 304.34 34.4331 306.407L35.4596 306.373C35.3912 304.016 36.4348 301.915 37.3416 300.549C38.5221 298.773 40.079 297.219 41.5846 295.733L47.8465 289.534C48.9415 290.729 50.0193 292.01 51.0972 293.376C52.6028 295.306 54.0913 297.321 55.5113 299.302C55.306 300.617 54.3479 301.693 53.3385 302.82C53.0648 303.128 52.7739 303.452 52.5001 303.777C51.2341 305.314 50.3273 307.09 49.4547 308.798L48.1715 311.308C47.9149 311.804 47.3332 312.948 47.932 313.87L48.8046 313.324C48.5651 312.948 48.8388 312.299 49.0955 311.786L50.3786 309.276C51.2341 307.602 52.1066 305.895 53.3042 304.426C53.5609 304.118 53.8347 303.811 54.1084 303.487C54.9639 302.53 55.8364 301.54 56.2812 300.361C60.5585 306.287 65.0239 312.401 70.9608 316.859L71.5767 316.039C66.7177 312.384 62.834 307.568 59.224 302.65C60.798 300.788 61.3968 297.919 60.9007 294.333C60.798 293.581 60.6611 292.83 60.5414 292.095C60.165 289.892 59.8057 287.826 60.1478 285.742L59.1384 285.572C58.762 287.826 59.1555 290.08 59.5319 292.266C59.6517 292.984 59.7886 293.735 59.8912 294.469C60.1992 296.741 60.1821 299.764 58.5909 301.813C58.0264 301.027 57.4617 300.259 56.8971 299.473C55.2889 297.236 53.6122 294.93 51.9013 292.744C51.1314 291.771 50.3786 290.849 49.5916 289.961L49.7969 290.029C50.2417 288.594 49.7798 287.194 49.335 285.828C49.2494 285.572 49.1639 285.333 49.0955 285.093C48.3256 282.566 48.2571 279.833 48.2058 277.203C48.1887 276.247 48.2058 275.274 48.8046 274.727L48.1031 273.976C47.2477 274.795 47.1963 276.076 47.2306 277.22Z" fill="#666766"/>
<path d="M114.538 250.527C114.538 250.527 139.911 254.728 147.644 239.238C155.378 223.748 148.277 212.408 148.277 212.408C148.277 212.408 126.207 206.755 116.523 225.217C106.839 243.678 114.538 250.527 114.538 250.527Z" fill="#EEAA73"/>
<path d="M128.756 231.126L128.739 231.177C128.636 231.45 128.533 231.723 128.516 231.98C128.499 232.287 128.585 232.611 128.687 232.919L129.492 235.668L129.663 235.498C131.442 233.841 133.29 232.133 134.984 230.34C135.514 229.759 136.044 229.179 136.54 228.581C136.215 226.788 136.301 224.926 136.797 223.167C136.848 222.962 136.917 222.757 136.985 222.535C137.088 222.211 137.173 221.903 137.259 221.596C137.875 218.966 136.934 216.097 136.181 213.808L136.917 213.569C137.704 215.96 138.679 218.949 138.012 221.784C137.926 222.125 137.824 222.45 137.721 222.774C137.653 222.979 137.601 223.167 137.533 223.372C137.139 224.807 137.019 226.31 137.191 227.778C139.004 225.575 140.698 223.27 142.34 221.015L146.002 215.977L146.635 216.438L142.973 221.477C140.664 224.653 138.268 227.932 135.531 230.869C134.949 231.501 134.351 232.099 133.735 232.697C137.037 233.619 140.801 233.055 143.675 231.194L144.103 231.843C140.869 233.943 136.763 234.49 133.102 233.329C132.126 234.268 131.151 235.173 130.176 236.078L124.154 241.646C126.823 241.27 129.577 241.458 132.178 242.192L132.366 242.243C132.845 242.38 133.29 242.517 133.735 242.5C134.197 242.483 134.658 242.329 135.103 242.175L140.801 240.211L141.057 240.946L135.36 242.91C134.881 243.08 134.333 243.268 133.752 243.285C133.187 243.302 132.657 243.149 132.161 242.995L131.989 242.944C129.115 242.124 126.053 242.021 123.127 242.619L115.599 249.587L115.069 249.023L118.542 245.813C118.251 245.386 118.046 244.942 117.875 244.481C117.413 243.114 117.413 241.594 117.413 240.109C117.413 238.247 117.413 236.505 116.591 235.036L117.276 234.661C118.2 236.317 118.2 238.247 118.2 240.126C118.2 242.039 118.2 243.849 119.124 245.3L128.859 236.3L127.952 233.175C127.849 232.816 127.729 232.406 127.746 231.962C127.764 231.587 127.9 231.262 128.02 230.938L128.037 230.887C129.577 226.822 130.125 222.399 129.628 218.078L130.398 217.993C130.912 222.399 130.347 226.959 128.756 231.126Z" fill="#666766"/>
<path d="M96.0777 204.689C96.0777 204.689 133.016 218.454 143.709 173.743C154.385 129.033 90.0553 120.528 79.0713 148.707C68.0873 176.886 77.617 198.558 96.0777 204.689Z" fill="#81B0DE"/>
<path d="M98.1992 159.756C99.5851 162.078 101.022 164.469 101.758 167.168C101.826 167.424 101.895 167.68 101.963 167.936C102.237 169.029 102.494 170.071 103.11 170.839C104.957 160.114 109.149 152.532 115.582 148.245L116.147 149.099C112.211 151.712 109.149 155.657 106.959 160.849C109.046 161.549 111.407 161.276 113.7 161.02C114.436 160.934 115.206 160.849 115.941 160.798C119.363 160.558 122.87 161.037 126.104 162.164L125.762 163.137C122.665 162.044 119.295 161.583 116.027 161.822C115.308 161.873 114.555 161.959 113.82 162.044C111.578 162.3 109.286 162.557 107.147 161.976C106.959 161.925 106.771 161.873 106.6 161.805C105.693 164.145 104.974 166.724 104.41 169.542L113.067 171.471C115.188 171.95 117.378 172.428 119.431 173.367C121.758 174.426 123.538 175.929 124.598 177.705L123.709 178.217C122.528 176.185 120.492 174.955 119.004 174.289C117.053 173.401 114.915 172.923 112.845 172.462L104.222 170.532C103.931 172.12 103.691 173.777 103.52 175.502C103.263 177.927 103.092 180.42 102.938 182.862C103.811 183.853 105.197 184.263 106.651 184.69C107.062 184.809 107.472 184.929 107.866 185.065C109.748 185.697 111.476 186.722 113.135 187.696L115.565 189.147C116.044 189.42 117.139 190.086 117.139 191.179L116.112 191.162C116.112 190.701 115.548 190.308 115.052 190.018L112.622 188.566C111.014 187.61 109.337 186.62 107.558 186.022C107.181 185.902 106.788 185.783 106.377 185.663C105.145 185.305 103.879 184.929 102.87 184.177C102.408 191.47 101.895 199.001 99.2429 205.935L98.2848 205.576C100.458 199.906 101.159 193.758 101.604 187.678C99.2771 186.944 97.2582 184.826 95.7355 181.53C95.4275 180.847 95.1367 180.13 94.8459 179.447C93.9904 177.38 93.1863 175.433 91.7834 173.862L92.5533 173.179C94.076 174.887 94.9485 177.005 95.7868 179.054C96.0606 179.737 96.3515 180.437 96.6594 181.103C97.6175 183.187 99.2258 185.732 101.672 186.62C101.741 185.663 101.792 184.707 101.861 183.75C102.032 181.001 102.22 178.166 102.511 175.399C102.648 174.17 102.802 172.974 102.973 171.813L102.836 171.984C101.707 171.01 101.347 169.576 100.988 168.175C100.92 167.919 100.868 167.663 100.8 167.424C100.098 164.862 98.7125 162.539 97.3609 160.268C96.8647 159.448 96.3172 158.629 95.5302 158.492L95.7184 157.484C96.8818 157.706 97.6175 158.765 98.1992 159.756Z" fill="#666766"/>
<path d="M99.7193 228.376L97.0852 228L93.6483 395.246L104.649 395.195L99.7193 228.376Z" fill="#666766"/>
<path d="M127.609 328.001C127.609 328.001 130.963 318.915 139.5 319.803C148.037 320.691 158.286 304.86 157.653 298.302C157.02 291.744 149.03 283.564 139.449 288.909C129.868 294.238 118.764 309.352 121.245 319.325C123.726 329.282 127.609 328.001 127.609 328.001Z" fill="#70C6AF"/>
<path d="M129.628 298.404L130.261 298.712C129.662 299.89 129.046 301.12 128.738 302.418C128.499 303.408 128.345 304.877 128.978 306.192C129.32 306.909 129.885 307.541 130.603 308.019C130.654 307.9 130.723 307.797 130.774 307.678C132.143 305.048 133.905 302.913 135.873 301.41L134.624 297.499C134.504 297.141 134.196 296.321 133.7 296.355L133.631 295.655C134.35 295.587 134.932 296.167 135.291 297.277L136.472 300.966C138.2 299.805 140.064 299.105 141.964 299.002C142.494 298.968 143.041 298.985 143.555 299.002C144.29 299.019 144.975 299.036 145.659 298.934C146.172 298.866 146.686 298.729 147.216 298.592C147.558 298.507 147.9 298.404 148.26 298.336C150.963 297.773 153.854 298.268 156.198 299.719L155.839 300.317C153.632 298.968 150.929 298.507 148.414 299.019C148.071 299.088 147.729 299.173 147.404 299.258C146.874 299.395 146.326 299.532 145.762 299.617C145.077 299.702 144.393 299.702 143.709 299.685C145.231 301.905 147.866 303.374 150.552 303.46C150.826 303.477 151.1 303.46 151.373 303.46C152.178 303.442 153.016 303.442 153.803 303.733L153.563 304.399C152.896 304.16 152.161 304.16 151.391 304.177C151.117 304.177 150.826 304.177 150.535 304.177C149.526 304.143 148.533 303.938 147.575 303.562C145.642 302.811 143.931 301.444 142.87 299.668C142.579 299.668 142.289 299.668 142.015 299.685C137.943 299.924 133.974 303.033 131.407 307.968C131.099 308.549 130.826 309.147 130.552 309.761C131.664 310.41 133.187 310.052 134.316 309.625C134.555 309.539 134.795 309.437 135.034 309.334C136.249 308.839 137.498 308.327 138.833 308.498L138.747 309.198C137.584 309.061 136.42 309.539 135.291 310C135.052 310.103 134.795 310.205 134.555 310.291C134.47 310.325 134.367 310.359 134.282 310.393C135.77 311.879 137.703 312.921 139.756 313.348L139.62 314.031C139.021 313.911 138.422 313.723 137.84 313.501C136.215 312.87 134.726 311.879 133.512 310.615C132.4 310.906 131.424 310.888 130.62 310.581C130.501 310.53 130.364 310.479 130.244 310.41C129.611 311.896 129.08 313.433 128.55 314.936C127.797 317.071 127.01 319.274 126.001 321.34L125.368 321.033C126.36 319.001 127.13 316.815 127.883 314.697C128.601 312.682 129.337 310.598 130.278 308.617C129.423 308.071 128.738 307.319 128.328 306.465C127.592 304.962 127.763 303.323 128.037 302.213C128.379 300.898 129.012 299.634 129.628 298.404Z" fill="#666766"/>
<path d="M82.2706 237.531C82.2706 237.531 73.9043 236.352 73.0831 228.906C72.2618 221.46 56.8637 215.671 51.3888 217.413C45.914 219.154 40.3878 227.454 46.701 234.627C53.0142 241.8 67.9675 248.478 76.0258 244.533C84.0841 240.605 82.2706 237.531 82.2706 237.531Z" fill="#70C6AF"/>
<path d="M56.6243 241.253L56.7783 240.656C57.9075 240.946 59.0709 241.253 60.2343 241.27C61.124 241.287 62.4072 241.151 63.4166 240.365C63.9641 239.938 64.3918 239.341 64.6656 238.657C64.5629 238.623 64.4602 238.606 64.3405 238.572C61.8426 237.889 59.6868 236.779 58.0615 235.378L54.9477 237.172C54.6568 237.342 54.0238 237.752 54.1435 238.179L53.5618 238.367C53.3736 237.769 53.75 237.155 54.6397 236.659L57.5824 234.969C56.265 233.722 55.3412 232.253 54.8963 230.665C54.7766 230.221 54.6739 229.76 54.5883 229.316C54.4686 228.701 54.3488 228.103 54.1435 227.54C53.9896 227.113 53.7842 226.703 53.5618 226.276C53.4249 226.003 53.2881 225.729 53.1512 225.439C52.176 223.253 52.0733 220.691 52.8604 218.42L53.4421 218.625C52.6893 220.743 52.7919 223.133 53.6987 225.183C53.8185 225.456 53.9553 225.729 54.0922 226.003C54.3146 226.43 54.537 226.874 54.691 227.335C54.8963 227.898 55.0161 228.496 55.1359 229.06C56.7612 227.369 57.5311 224.841 57.1034 222.536C57.0692 222.297 57.0007 222.058 56.9494 221.836C56.7954 221.152 56.6243 220.452 56.727 219.718L57.3258 219.803C57.2402 220.418 57.3771 221.05 57.5311 221.699C57.5825 221.938 57.6338 222.177 57.6851 222.433C57.8391 223.304 57.8391 224.192 57.7022 225.063C57.4285 226.857 56.5559 228.547 55.2556 229.794C55.3069 230.033 55.3583 230.289 55.4267 230.511C56.3848 233.927 59.7553 236.745 64.4431 238.008C64.9906 238.162 65.5552 238.282 66.1198 238.401C66.462 237.342 65.8803 236.096 65.3157 235.225C65.196 235.037 65.0591 234.849 64.9393 234.661C64.2891 233.722 63.6219 232.748 63.5193 231.57L64.1352 231.519C64.2378 232.526 64.8537 233.432 65.4526 234.32C65.5894 234.507 65.7092 234.695 65.8461 234.9C65.8974 234.969 65.9316 235.054 65.983 235.122C66.9753 233.585 67.5056 231.741 67.5056 229.913H68.1216C68.1216 230.443 68.0874 230.989 68.0018 231.519C67.7623 233.022 67.1977 234.473 66.3251 235.72C66.77 236.625 66.941 237.462 66.8213 238.179C66.8042 238.299 66.77 238.418 66.7357 238.521C68.1216 238.777 69.5416 238.965 70.9104 239.136C72.8608 239.392 74.8967 239.648 76.8472 240.126L76.6932 240.724C74.777 240.246 72.7581 239.99 70.8248 239.75C68.9599 239.511 67.0608 239.272 65.1959 238.828C64.888 239.648 64.3576 240.365 63.7075 240.878C62.544 241.783 61.124 241.936 60.1317 241.902C58.9683 241.851 57.7706 241.544 56.6243 241.253Z" fill="#666766"/>
<path d="M97.4121 335.217L97.8569 333.919C97.6174 333.833 73.4595 325.55 71.4749 315.901L70.1404 316.175C72.2619 326.592 96.3855 334.875 97.4121 335.217Z" fill="#666766"/>
<path d="M98.146 228.343L99.7176 228.376C99.6548 228.239 92.4936 213.811 99.3428 205.839L98.876 204.55C95.7863 208.14 94.6958 213.403 95.7025 219.784C96.4546 224.523 98.0837 228.19 98.146 228.343Z" fill="#666766"/>
<path d="M124.94 336.249C124.974 336.249 125.008 336.249 125.06 336.249C126.086 336.147 127.25 334.9 127.917 326.413L126.89 326.327C126.206 334.866 125.077 335.225 124.957 335.225C124.803 335.242 123.879 335.037 121.912 329.572C120.594 325.917 119.14 320.913 117.754 316.097C115.958 309.864 114.093 303.425 112.485 299.856C111.065 296.68 109.405 295.074 107.557 295.074C107.54 295.074 107.506 295.074 107.489 295.074C103.502 295.177 100.389 302.964 100.252 303.289L101.21 303.664C102.031 301.581 104.769 296.167 107.506 296.099C107.523 296.099 107.54 296.099 107.557 296.099C108.96 296.099 110.295 297.499 111.544 300.283C113.118 303.784 114.965 310.188 116.762 316.388C120.646 329.828 122.75 336.249 124.94 336.249Z" fill="#666766"/>
<path d="M108.858 255.343C110.261 255.343 111.698 255.104 113.015 254.489C115.565 253.277 117.207 250.835 117.943 247.231L116.933 247.026C116.283 250.305 114.812 252.491 112.588 253.567C107.831 255.822 101.022 252.303 100.954 252.252L100.475 253.157C100.697 253.26 104.683 255.343 108.858 255.343Z" fill="#666766"/>
<path d="M97.1214 241.152L98.1479 241.032C98.1308 240.912 97.9598 239.802 96.5397 238.709C94.5893 237.224 90.1923 235.738 80.2862 237.172L80.4401 238.18C96.1462 235.909 97.1214 241.1 97.1214 241.152Z" fill="#666766"/>
<path d="M50.7728 175.707C50.7728 175.707 68.7201 157.314 60.388 142.132C52.073 126.949 38.6938 126.283 38.6938 126.283C38.6938 126.283 21.4479 141.141 31.0974 159.62C40.7298 178.115 50.7728 175.707 50.7728 175.707Z" fill="#EEAA73"/>
<path d="M42.9373 152.994L42.9715 153.028C43.1426 153.267 43.2965 153.506 43.5019 153.66C43.7414 153.848 44.0664 153.95 44.3744 154.07L47.0947 154.975L47.0605 154.736C46.7183 152.328 46.3762 149.834 45.8458 147.426C45.6747 146.658 45.4865 145.906 45.2983 145.138C43.6387 144.387 42.1502 143.242 40.9868 141.842C40.8499 141.671 40.7131 141.5 40.5762 141.33C40.3709 141.056 40.1656 140.817 39.9603 140.578C38.1638 138.563 35.2553 137.709 32.9456 137.009L33.168 136.257C35.5804 136.975 38.5916 137.88 40.542 140.049C40.7815 140.305 40.9868 140.578 41.1921 140.851C41.329 141.022 41.4487 141.176 41.5856 141.347C42.5266 142.491 43.7071 143.447 45.0245 144.147C44.2546 141.415 43.3137 138.7 42.3898 136.07L40.3367 130.195L41.0723 129.938L43.1254 135.813C44.4086 139.519 45.7431 143.362 46.5986 147.273C46.7868 148.11 46.9407 148.946 47.0776 149.783C49.7295 147.597 51.4062 144.199 51.5088 140.783L52.2959 140.8C52.1761 144.643 50.2941 148.314 47.2316 150.654C47.454 151.986 47.6422 153.318 47.8133 154.633L48.9425 162.745C50.1572 160.337 51.8853 158.186 53.9726 156.478L54.1265 156.358C54.5029 156.051 54.8622 155.761 55.1188 155.385C55.3755 155.009 55.5124 154.531 55.6321 154.07L57.2575 148.28L58.0103 148.485L56.3849 154.275C56.248 154.77 56.0941 155.334 55.769 155.812C55.461 156.273 55.0333 156.614 54.6227 156.956L54.4858 157.076C52.1761 158.971 50.3283 161.413 49.1478 164.163L50.5678 174.307L49.7979 174.41L49.1478 169.73C48.6346 169.73 48.1384 169.645 47.6764 169.508C46.2906 169.116 45.0245 168.245 43.8098 167.391C42.2871 166.332 40.8499 165.324 39.1561 165.171L39.2417 164.402C41.1237 164.59 42.7148 165.7 44.2546 166.759C45.8287 167.852 47.3171 168.894 49.0452 168.945L47.2145 155.829L44.1178 154.787C43.7585 154.668 43.3478 154.531 43.0057 154.258C42.7148 154.019 42.5095 153.728 42.3213 153.455L42.2871 153.421C39.8234 149.834 36.5042 146.863 32.6547 144.796L33.0311 144.113C36.9833 146.231 40.4051 149.305 42.9373 152.994Z" fill="#666766"/>
<path d="M97.085 228.375H99.3428C99.3086 228.307 96.7453 224.004 91.8179 216.661C88.9094 212.323 85.864 208.839 82.7502 206.26C78.8322 203.015 74.8116 201.256 70.791 201.017C63.9132 200.607 58.4041 195.723 54.4177 186.501C51.4236 179.55 50.4826 172.65 50.4826 172.582L49.4732 172.719C49.4903 172.787 50.4313 179.84 53.4938 186.911C55.2902 191.095 57.4631 194.476 59.9439 196.952C63.0748 200.095 66.7191 201.803 70.7397 202.042C79.3626 202.554 86.497 210.581 90.9454 217.207C95.8385 224.465 97.0508 228.307 97.085 228.375Z" fill="#666766"/>
<path d="M171.203 46.3288C169.502 46.3288 168.123 44.9525 168.123 43.2547C168.123 41.557 169.502 40.1807 171.203 40.1807C172.903 40.1807 174.282 41.557 174.282 43.2547C174.282 44.9525 172.903 46.3288 171.203 46.3288Z" fill="#F5DDEB"/>
<path d="M292.848 162.289C291.147 162.289 289.768 160.912 289.768 159.215C289.768 157.517 291.147 156.141 292.848 156.141C294.549 156.141 295.928 157.517 295.928 159.215C295.928 160.912 294.549 162.289 292.848 162.289Z" fill="#F5DDEB"/>
<path d="M279.512 121.764C279.092 120.753 279.573 119.594 280.586 119.176C281.598 118.757 282.759 119.237 283.179 120.248C283.598 121.259 283.118 122.418 282.105 122.836C281.092 123.255 279.931 122.775 279.512 121.764Z" fill="#F5DDEB"/>
<path d="M179.936 102.122C179.517 101.111 179.997 99.9518 181.01 99.5331C182.023 99.1144 183.184 99.5944 183.603 100.605C184.023 101.616 183.542 102.775 182.529 103.194C181.517 103.612 180.356 103.132 179.936 102.122Z" fill="#F5DDEB"/>
<path d="M359.368 79.2888C358.461 79.2888 357.725 78.5547 357.725 77.6493C357.725 76.7438 358.461 76.0098 359.368 76.0098C360.275 76.0098 361.01 76.7438 361.01 77.6493C361.01 78.5547 360.275 79.2888 359.368 79.2888Z" fill="#F5DDEB"/>
<path d="M215.425 65.6706C210.187 60.4419 210.187 51.9644 215.425 46.7356C220.663 41.5068 229.156 41.5068 234.394 46.7356C239.632 51.9644 239.632 60.4419 234.394 65.6706C229.156 70.8994 220.663 70.8994 215.425 65.6706Z" fill="#E58868"/>
<path d="M224.908 39.7192C225.097 39.7192 225.233 39.5655 225.233 39.3948V29.4212C225.233 29.2333 225.079 29.0967 224.908 29.0967C224.737 29.0967 224.583 29.2504 224.583 29.4212V39.3948C224.583 39.5655 224.72 39.7192 224.908 39.7192Z" fill="#E58868"/>
<path d="M216.354 41.9899C216.508 41.9045 216.559 41.6996 216.473 41.5459L211.443 32.9214C211.358 32.7677 211.153 32.7165 210.999 32.8019C210.845 32.8873 210.793 33.0922 210.879 33.2459L215.909 41.8703C215.994 42.0241 216.2 42.0753 216.354 41.9899Z" fill="#E58868"/>
<path d="M210.109 48.2415C210.194 48.0878 210.143 47.8829 209.989 47.7975L201.298 42.879C201.144 42.7936 200.938 42.8449 200.853 42.9986C200.767 43.1523 200.819 43.3572 200.972 43.4426L209.664 48.3611C209.818 48.4465 210.023 48.3953 210.109 48.2415Z" fill="#E58868"/>
<path d="M207.868 56.7805C207.868 56.5927 207.714 56.4561 207.543 56.4561L197.551 56.5585C197.363 56.5585 197.226 56.7122 197.226 56.883C197.226 57.0709 197.38 57.2075 197.551 57.2075L207.543 57.105C207.714 57.105 207.868 56.9684 207.868 56.7805Z" fill="#E58868"/>
<path d="M210.229 65.2847C210.143 65.131 209.938 65.0798 209.784 65.1652L201.195 70.2886C201.041 70.374 200.99 70.5789 201.075 70.7326C201.161 70.8863 201.366 70.9376 201.52 70.8522L210.109 65.7287C210.28 65.6433 210.331 65.4384 210.229 65.2847Z" fill="#E58868"/>
<path d="M216.559 71.4497C216.405 71.3644 216.2 71.4156 216.114 71.5864L211.272 80.3133C211.187 80.467 211.238 80.6719 211.409 80.7573C211.563 80.8427 211.768 80.7915 211.854 80.6207L216.696 71.8938C216.781 71.7401 216.73 71.5351 216.559 71.4497Z" fill="#E58868"/>
<path d="M225.148 73.6025C224.96 73.6025 224.823 73.7562 224.823 73.9441L225.045 83.9177C225.045 84.1056 225.199 84.2422 225.387 84.2422C225.576 84.2422 225.712 84.0885 225.712 83.9006L225.49 73.927C225.473 73.7392 225.336 73.6025 225.148 73.6025Z" fill="#E58868"/>
<path d="M233.651 71.1432C233.497 71.2456 233.445 71.4335 233.548 71.5872L238.766 80.0921C238.869 80.2458 239.057 80.297 239.211 80.1945C239.365 80.0921 239.416 79.9042 239.314 79.7505L234.096 71.2456C233.993 71.0919 233.805 71.0407 233.651 71.1432Z" fill="#E58868"/>
<path d="M239.742 64.7559C239.656 64.9096 239.708 65.1145 239.879 65.1999L248.69 69.9305C248.844 70.0159 249.049 69.9647 249.135 69.7939C249.22 69.6402 249.169 69.4353 248.998 69.3499L240.187 64.6192C240.033 64.5338 239.827 64.6022 239.742 64.7559Z" fill="#E58868"/>
<path d="M241.812 56.1651C241.812 56.3529 241.966 56.4896 242.154 56.4896L252.146 56.1651C252.334 56.1651 252.471 56.0114 252.471 55.8235C252.471 55.6356 252.317 55.499 252.129 55.499L242.137 55.8235C241.932 55.8235 241.795 55.9772 241.812 56.1651Z" fill="#E58868"/>
<path d="M239.245 47.7114C239.348 47.8651 239.553 47.9164 239.707 47.8139L248.176 42.5026C248.33 42.4002 248.381 42.1952 248.279 42.0415C248.176 41.8878 247.971 41.8366 247.817 41.9391L239.348 47.2503C239.194 47.3528 239.16 47.5577 239.245 47.7114Z" fill="#E58868"/>
<path d="M232.778 41.6831C232.932 41.7684 233.138 41.7001 233.223 41.5464L237.877 32.7C237.962 32.5463 237.894 32.3413 237.74 32.2559C237.586 32.1706 237.381 32.2389 237.295 32.3926L232.641 41.239C232.556 41.4098 232.624 41.5977 232.778 41.6831Z" fill="#E58868"/>
<path d="M147.661 363.468L150.381 416.393L138.901 416.649L128.173 416.889L117.754 417.111L107.779 417.333L104.991 417.401L101.158 417.486L61.4141 418.357C61.4141 418.357 41.1399 378.787 50.4472 373.169C59.7545 367.567 64.4766 379.641 64.4766 379.641C64.4766 379.641 71.4399 351.753 88.874 350.865C106.308 349.977 95.6663 372.912 114.384 370.59C133.101 368.267 117.001 358.311 123.913 355.903C130.825 353.495 123.845 337.954 133.511 339.337C142.34 340.601 134.162 362.495 147.661 363.468Z" fill="#756DB2"/>
</g>
<defs>
<clipPath id="clip0_182_739">
<rect width="435" height="456" fill="white" transform="matrix(-1 0 0 1 435 0)"/>
</clipPath>
</defs>
</svg>
