<svg width="541" height="374" viewBox="0 0 541 374" fill="none" xmlns="http://www.w3.org/2000/svg">
<path d="M241.649 61.6258L243.172 58.5507C243.172 58.5507 240.054 54.6454 239.197 51.6118C238.34 48.5797 236.738 38.451 236.738 38.451C236.738 38.451 239.651 38.5098 240.826 41.3269C242 44.144 243.927 45.6149 243.927 45.6149L245.461 39.0087C245.461 39.0087 248.669 29.4105 250.659 26.2034C250.659 26.2034 253.387 26.9446 252.832 28.9904C252.278 31.0362 249.87 39.9047 249.87 39.9047L257.373 25.4407C257.373 25.4407 259.688 25.164 259.563 27.8449C259.563 27.8449 261.724 29.2499 261.701 31.3975C261.678 33.5451 260.392 34.7909 260.392 34.7909C260.392 34.7909 262.504 35.5794 262.535 36.5787C262.565 37.5779 258.555 47.9059 258.555 47.9059C258.555 47.9059 257.5 55.7622 256.742 58.8732C255.983 61.9842 253.381 63.4752 253.381 63.4752L247.784 69.9696L241.649 61.6258Z" fill="#FFBEA1"/>
<path d="M243.862 50.631C243.861 50.631 243.859 50.631 243.858 50.631C243.671 50.6281 243.522 50.4748 243.525 50.2884L243.588 45.609C243.591 45.424 243.742 45.2764 243.927 45.2764C243.928 45.2764 243.929 45.2764 243.931 45.2764C244.117 45.2792 244.266 45.4326 244.263 45.619L244.2 50.2984C244.198 50.4833 244.047 50.631 243.862 50.631Z" fill="#F28766"/>
<path d="M248.603 41.1052C248.52 41.1052 248.437 41.0751 248.372 41.0134C248.236 40.8858 248.23 40.6722 248.358 40.536L249.812 38.992C249.941 38.8558 250.153 38.85 250.289 38.9776C250.425 39.1052 250.431 39.3188 250.303 39.455L248.85 40.9991C248.782 41.0693 248.692 41.1052 248.603 41.1052Z" fill="#F28766"/>
<path d="M251.63 42.0121C251.555 42.0121 251.479 41.9878 251.416 41.9362C251.271 41.8186 251.25 41.605 251.369 41.4616L253.218 39.195L259.264 27.6872C259.351 27.5223 259.555 27.4593 259.72 27.5453C259.885 27.6313 259.949 27.8363 259.862 28.0012L253.8 39.5391C253.79 39.5592 253.777 39.5778 253.763 39.5965L251.891 41.8889C251.825 41.9706 251.729 42.0121 251.63 42.0121Z" fill="#F28766"/>
<path d="M254.3 45.6651C254.224 45.6651 254.148 45.6393 254.085 45.5877C253.942 45.4687 253.92 45.2565 254.039 45.1117L255.259 43.6337L260.094 34.6275C260.183 34.4627 260.386 34.401 260.551 34.4899C260.716 34.5788 260.778 34.7824 260.689 34.9472L255.817 44.0078L254.56 45.5418C254.494 45.6236 254.398 45.6651 254.3 45.6651Z" fill="#F28766"/>
<path d="M195.921 260.546V329.424H168.665L142.951 253.347L195.921 260.546Z" fill="#A1EEE9"/>
<path d="M142.487 248.325C142.487 248.325 132.536 273.615 132.116 278.482C131.694 283.349 126.354 329.425 126.354 329.425H163.666L193.537 258.054L142.487 248.325Z" fill="#A1EEE9"/>
<path d="M166.156 122.088L164.249 144.615L188.08 145.45L190.422 118.379L166.156 122.088Z" fill="#FFBEA1"/>
<path d="M194.185 99.9846C193.52 98.8778 192.731 97.966 191.87 97.1374C190.882 96.1711 189.807 95.2994 188.726 94.3174C188.646 94.2586 188.577 94.1912 188.506 94.1239C187.448 93.1088 186.977 91.5863 186.151 90.3605C186.085 90.2659 186.023 90.1684 185.97 90.071L185.866 89.9176L185.833 89.8459C185.243 88.8337 184.799 87.7485 184.152 86.7894C180.307 81.0935 173.945 76.9159 167.21 77.1352C161.954 82.692 159.581 91.4071 159.991 98.3689C161.138 107.819 171.162 113.547 171.736 123.284C171.71 123.63 171.675 123.978 171.637 124.326C174.546 124.478 177.486 124.245 180.332 123.737C183.539 123.164 186.681 122.24 189.709 121.051C192.751 119.848 196.235 118.54 197.755 115.406C199.105 112.626 197.851 109.796 197.025 107.075C196.285 104.653 195.488 102.164 194.185 99.9846Z" fill="#FFBEA1"/>
<path d="M160.043 184.618C152.809 183.907 145.641 182.52 138.664 180.478C140.358 179.014 141.483 176.91 141.758 174.688C139.615 176.824 137.08 179.119 134.06 178.938C132.804 178.864 131.619 178.353 130.48 177.822C127.281 176.332 124.19 174.613 121.237 172.682C138.105 160.161 146.912 137.645 143.017 117.002C142.733 115.497 142.872 114.472 142.187 113.101C138.025 104.779 141.89 93.5349 145.668 87.8262C149.086 82.6636 156.741 78.4114 162.481 76.3943C164.038 75.8467 166.421 76.0818 167.213 77.1341C161.957 82.6909 159.584 91.406 159.994 98.3677C160.298 103.525 164.228 107.975 167.002 112.025C170.676 117.391 171.892 121.69 171.361 128.225C170.431 139.713 170.825 151.172 170.799 162.677C170.791 166.92 170.54 171.214 169.283 175.267C168.024 179.318 163.557 182.24 160.043 184.618Z" fill="#976D61"/>
<path d="M191.87 97.1363C191.173 97.165 190.422 96.8868 189.788 96.5313C188.247 95.6697 186.952 94.4396 185.693 93.2225C185.167 92.692 184.628 92.1057 184.617 91.3788C184.608 90.8627 184.777 90.1387 185.295 89.8935C185.541 89.7717 185.742 89.8491 185.834 89.8419L185.867 89.9136L185.972 90.067C186.025 90.1645 186.086 90.262 186.152 90.3566C186.977 91.5824 187.448 93.1049 188.508 94.1199C188.577 94.1873 188.647 94.2547 188.727 94.3135C189.807 95.2984 190.883 96.17 191.87 97.1363Z" fill="#F28766"/>
<path d="M174.676 101.608C174.643 101.608 174.612 101.604 174.579 101.594C174.399 101.541 174.299 101.351 174.353 101.174C175.456 97.525 178.563 95.5423 180.316 94.6864C180.484 94.6032 180.686 94.6735 180.768 94.8412C180.849 95.0089 180.78 95.2111 180.613 95.2928C178.958 96.1014 176.028 97.9651 175 101.369C174.954 101.515 174.821 101.608 174.676 101.608Z" fill="#88584A"/>
<path d="M184.073 91.7861C184.073 91.7861 186.057 93.366 188.37 94.6692C190.126 95.657 192.052 95.591 193.236 95.9136C194.272 96.196 192.33 100.616 191.379 101.578C190.082 102.89 183.752 97.978 184.073 91.7861Z" fill="#FFBEA1"/>
<path d="M166.156 122.085C169.75 122.968 171.751 120.234 175.039 118.534C172.318 116.715 171.263 115.864 168.536 114.055C167.023 113.052 164.774 111.162 162.794 111.571C160.261 112.092 159.993 115.143 160.724 117.153C161.63 119.642 163.679 121.321 166.156 122.085Z" fill="#FFBEA1"/>
<path d="M167.456 116.232C167.625 116.493 167.786 116.78 168.053 116.939C168.362 117.124 168.751 117.1 169.108 117.05C169.465 116.999 169.838 116.933 170.179 117.052C170.52 117.17 170.801 117.551 170.669 117.887C170.625 118.001 170.539 118.095 170.445 118.174C169.777 118.741 168.731 118.637 167.992 118.163C167.233 117.676 165.432 115.718 165.745 114.75C166.447 114.942 167.068 115.635 167.456 116.232Z" fill="#F28766"/>
<path d="M168.483 120.534C167.132 120.534 165.769 120.219 164.566 119.622C163.432 119.059 162.674 118.338 162.314 117.477C161.904 116.497 162.107 115.063 163.153 114.458C163.315 114.364 163.521 114.419 163.614 114.581C163.707 114.743 163.653 114.95 163.491 115.043C162.786 115.452 162.635 116.497 162.938 117.217C163.233 117.922 163.882 118.528 164.867 119.017C166.209 119.684 167.767 119.969 169.258 119.82C169.442 119.809 169.61 119.938 169.628 120.123C169.647 120.309 169.511 120.474 169.326 120.492C169.045 120.521 168.764 120.534 168.483 120.534Z" fill="#F28766"/>
<path d="M163.597 76.1363C163.597 76.1363 176.349 71.2418 184.137 81.9912L180.282 85.7732L177.019 82.2149L179.095 86.738L175.462 89.8519L171.086 84.8098L173.683 91.8533L169.902 95.413L165.601 89.0362L168.642 98.0824C168.642 98.0824 165.825 102.458 165.528 101.864C165.231 101.271 168.199 112.764 170.349 115.951C170.348 115.953 143.579 96.8997 163.597 76.1363Z" fill="#976D61"/>
<path d="M183.765 78.9938C183.676 78.9938 183.587 78.9594 183.521 78.8892C180.465 75.6979 175.837 73.9818 171.434 74.409C169.956 74.5524 168.518 74.9094 166.815 75.3997C165.125 75.8857 163.24 76.5294 162.255 77.996C162.152 78.1508 161.942 78.1924 161.786 78.0877C161.631 77.9845 161.59 77.7738 161.694 77.6189C162.805 75.9631 164.824 75.2692 166.627 74.7502C168.366 74.2485 169.839 73.8843 171.368 73.7352C175.968 73.2893 180.812 75.0843 184.009 78.4204C184.138 78.5551 184.134 78.7687 183.999 78.8978C183.934 78.9623 183.85 78.9938 183.765 78.9938Z" fill="#976D61"/>
<path d="M194.073 103.716L186.585 108.758C186.585 108.758 191.002 112.23 194.444 109.647C195.927 108.534 194.073 103.716 194.073 103.716Z" fill="#E66265"/>
<path d="M182.425 98.9945C182.049 98.9816 181.502 99.2956 180.957 99.7142C179.556 100.791 178.822 104.171 179.384 104.276C180.737 104.526 181.655 101.31 182.901 99.9178C183.337 99.4289 182.752 99.0046 182.425 98.9945Z" fill="#414141"/>
<path d="M177.814 102.253C177.778 102.253 177.741 102.247 177.705 102.234C177.529 102.174 177.434 101.982 177.494 101.806C177.785 100.948 178.342 100.117 179.1 99.3999C179.711 98.8222 180.451 98.3075 181.428 97.777C181.593 97.6882 181.797 97.7498 181.886 97.9132C181.975 98.0767 181.913 98.2817 181.749 98.3706C180.825 98.8709 180.131 99.3526 179.563 99.8888C178.884 100.531 178.389 101.268 178.132 102.022C178.087 102.164 177.955 102.253 177.814 102.253Z" fill="#F28766"/>
<path d="M190.202 120.913C190.202 120.913 186.694 123.16 180.334 123.734L189.501 129.025L190.202 120.913Z" fill="#F28766"/>
<path d="M197.979 263.119C197.979 263.119 198.493 245.119 204.15 211.176C217.813 169.81 203.224 153.207 203.379 148.949C203.379 148.949 228.385 125.688 233.219 118.404C240.535 107.382 253.386 69.4824 253.386 69.4824C253.386 69.4824 241.941 64.8145 242.397 59.543L213.959 104.889L177.347 126.646C177.347 126.646 161.715 142.046 159.531 148.394C157.348 154.742 154.746 208.452 154.746 208.452L138.629 248.326C138.629 248.326 156.066 268.776 197.979 263.119Z" fill="#F0972E"/>
<path d="M185.306 165.184C185.212 165.184 185.117 165.144 185.051 165.067C184.929 164.926 184.945 164.712 185.087 164.591L203.188 148.995C203.329 148.875 203.542 148.889 203.664 149.031C203.786 149.172 203.77 149.385 203.628 149.507L185.527 165.102C185.463 165.158 185.384 165.184 185.306 165.184Z" fill="#FFB853"/>
<path d="M167.122 322.598C167.089 322.598 167.055 322.593 167.022 322.582C166.844 322.526 166.744 322.337 166.8 322.159L181.199 275.874C181.255 275.696 181.443 275.594 181.622 275.652C181.8 275.708 181.9 275.897 181.844 276.075L167.445 322.36C167.399 322.505 167.267 322.598 167.122 322.598Z" fill="#EB7487"/>
<path d="M177.986 292.217C177.724 292.217 177.496 292.052 177.416 291.8C177.332 291.538 177.431 291.261 177.662 291.111C178.555 290.526 179.808 289.449 180.706 287.654C182.217 284.633 185.79 271.9 185.825 271.772C185.876 271.593 186.065 271.49 186.241 271.538C186.42 271.589 186.525 271.775 186.475 271.954C186.327 272.48 182.848 284.877 181.309 287.956C180.413 289.75 179.185 290.875 178.241 291.533L191.28 291.067C191.471 291.063 191.623 291.207 191.63 291.393C191.637 291.579 191.491 291.736 191.305 291.743L178.008 292.217C178.001 292.217 177.993 292.217 177.986 292.217Z" fill="#EB7487"/>
<path d="M184.025 266.709C173.459 266.709 156.741 265.003 140.732 256.214C140.568 256.124 140.508 255.919 140.598 255.756C140.689 255.591 140.892 255.532 141.057 255.622C166.876 269.797 194.561 265.403 194.839 265.357C195.021 265.324 195.197 265.45 195.227 265.635C195.257 265.818 195.134 265.993 194.949 266.023C194.842 266.041 190.638 266.709 184.025 266.709Z" fill="#EB7487"/>
<path d="M139.41 279.491C139.298 279.491 139.188 279.436 139.123 279.334C139.024 279.176 139.072 278.967 139.231 278.868C144.289 275.701 148.885 271.854 152.892 267.435C153.017 267.296 153.23 267.285 153.369 267.412C153.507 267.536 153.517 267.75 153.392 267.889C149.342 272.355 144.699 276.241 139.589 279.441C139.533 279.474 139.472 279.491 139.41 279.491Z" fill="#EB7487"/>
<path d="M211.35 121.001C211.189 121.001 211.046 120.884 211.017 120.721C210.986 120.537 211.108 120.363 211.293 120.33C218.342 119.097 225.427 117.541 232.35 115.708C232.531 115.66 232.716 115.766 232.763 115.947C232.81 116.128 232.703 116.313 232.523 116.36C225.583 118.198 218.48 119.758 211.41 120.995C211.389 120.999 211.369 121.001 211.35 121.001Z" fill="#FFB853"/>
<path d="M182.888 238.01C182.815 238.01 182.74 237.986 182.679 237.937C182.532 237.821 182.508 237.609 182.624 237.463C188.45 230.105 193.917 222.335 198.872 214.372C198.971 214.213 199.178 214.166 199.336 214.263C199.494 214.362 199.543 214.57 199.444 214.728C194.475 222.713 188.994 230.504 183.153 237.883C183.087 237.966 182.988 238.01 182.888 238.01Z" fill="#FFB853"/>
<path d="M136.687 166.549C136.629 166.549 136.568 166.533 136.515 166.502C136.355 166.406 136.303 166.199 136.398 166.039C142.626 155.582 145.899 143.622 145.864 131.452C145.854 127.905 145.559 124.303 145.272 120.817C144.968 117.11 144.653 113.277 144.68 109.487C144.742 100.622 146.848 93.5969 150.944 88.6107C151.061 88.4659 151.273 88.4458 151.418 88.5648C151.563 88.6838 151.583 88.896 151.464 89.0394C147.47 93.9023 145.414 100.784 145.354 109.492C145.328 113.249 145.641 117.068 145.944 120.762C146.231 124.258 146.528 127.875 146.538 131.449C146.574 143.741 143.266 155.823 136.977 166.384C136.914 166.49 136.802 166.549 136.687 166.549Z" fill="#88584A"/>
<path d="M149.443 163.757C149.402 163.757 149.361 163.749 149.321 163.734C149.147 163.666 149.06 163.471 149.127 163.296C153.233 152.66 151.676 140.84 150.172 129.409L149.858 127.018C148.225 114.388 147.609 101.273 154.103 90.9348C154.202 90.7785 154.412 90.7297 154.569 90.8287C154.727 90.9276 154.774 91.1369 154.675 91.2946C148.294 101.453 148.911 114.426 150.529 126.932L150.842 129.322C152.357 140.837 153.926 152.743 149.757 163.542C149.705 163.673 149.577 163.757 149.443 163.757Z" fill="#88584A"/>
<path d="M157.749 152.872C157.578 152.872 157.432 152.743 157.414 152.569C156.434 143.289 155.884 133.854 155.773 124.527C155.771 124.341 155.921 124.187 156.108 124.186C156.297 124.177 156.447 124.334 156.449 124.52C156.558 133.827 157.108 143.24 158.085 152.499C158.105 152.684 157.97 152.85 157.783 152.87C157.773 152.87 157.762 152.872 157.749 152.872Z" fill="#88584A"/>
<path d="M163.018 110.99C162.908 110.99 162.8 110.937 162.736 110.836L159.06 105.208C157.794 103.27 156.492 101.01 157.083 98.7421C157.13 98.5615 157.315 98.454 157.494 98.4998C157.675 98.5471 157.782 98.7306 157.736 98.9113C157.215 100.913 158.383 102.936 159.625 104.837L163.3 110.465C163.402 110.621 163.358 110.831 163.203 110.932C163.144 110.973 163.081 110.99 163.018 110.99Z" fill="#88584A"/>
<path d="M294.845 69.1106L296.371 78.8235L309.57 74.3133L307.423 65.8175C307.424 65.8175 297.759 64.4627 294.845 69.1106Z" fill="#FFBEA1"/>
<path d="M308.284 47.182L299.066 27.273C298.751 26.4759 297.892 26.0387 297.063 26.2523C296.544 26.3856 296.166 26.7584 295.961 27.2143L295.204 25.2573C294.928 24.5448 294.236 24.0416 293.475 24.0947C292.424 24.1663 291.709 25.1398 291.915 26.1405L292.699 29.9482L292.206 28.2035C291.935 27.2415 291.005 26.5619 290.018 26.7153C288.953 26.8802 288.243 27.8608 288.385 28.9002L292.453 44.3233L291.565 44.9584C291.565 44.9584 286.956 35.2226 286.932 35.1581C286.603 34.3222 284.995 35.234 284.737 35.8806C284.322 36.9186 284.982 39.1723 285.299 39.9823C286.701 43.5778 288.106 46.9154 288.566 50.7288C288.566 50.7288 289.776 60.7371 291.082 63.7979C291.721 65.2961 294.85 69.111 294.85 69.111L307.427 65.8179L308.284 47.182Z" fill="#FFBEA1"/>
<path d="M296.309 27.4237C296.268 27.2331 296.078 27.1112 295.885 27.1556C295.694 27.1986 295.574 27.3893 295.617 27.58C296.587 31.8867 297.895 36.7467 298.986 40.5215C299.04 40.7079 299.234 40.8139 299.42 40.7609C299.423 40.7609 299.424 40.7595 299.427 40.7595C299.614 40.7064 299.723 40.5114 299.668 40.3251C298.58 36.5589 297.277 31.7103 296.309 27.4237Z" fill="#F28766"/>
<path d="M295.697 41.9071C295.538 41.9071 295.393 41.7996 295.353 41.6376C294.819 39.4986 294.256 37.2535 293.693 35.0099C293.155 32.8652 292.617 30.7233 292.107 28.6789C292.06 28.4883 292.176 28.2962 292.365 28.2488C292.557 28.2015 292.748 28.3177 292.795 28.5069C293.304 30.5513 293.843 32.6931 294.381 34.8364C294.944 37.0801 295.508 39.3252 296.041 41.4656C296.088 41.6563 295.972 41.8484 295.783 41.8957C295.754 41.9028 295.726 41.9071 295.697 41.9071Z" fill="#F28766"/>
<path d="M293.197 52.8325C293.085 52.8325 292.974 52.7794 292.906 52.6805C292.792 52.52 292.832 52.2992 292.992 52.1859L300.868 46.6707C301.029 46.5589 301.251 46.5961 301.363 46.7582C301.476 46.9187 301.436 47.1395 301.277 47.2528L293.4 52.768C293.339 52.811 293.267 52.8325 293.197 52.8325Z" fill="#F28766"/>
<path d="M298.973 60.6539C298.973 60.6539 298.019 55.5272 307.393 46.3734C316.766 37.2196 315.587 36.5429 318.915 38.4969L312.01 51.9101L307.423 65.8193L298.973 60.6539Z" fill="#FFBEA1"/>
<path d="M297.721 59.8475C297.532 59.8475 297.376 59.6984 297.367 59.5091C297.304 58.1285 297.844 56.715 298.812 55.7286C299.259 55.2727 299.781 54.9129 300.286 54.5659C300.448 54.4541 300.61 54.3423 300.771 54.2276C303.125 52.5316 304.917 50.0801 305.817 47.3246C305.879 47.1382 306.078 47.0364 306.266 47.0981C306.452 47.1583 306.554 47.359 306.494 47.5454C305.547 50.4442 303.662 53.0219 301.186 54.8039C301.023 54.9215 300.855 55.0362 300.689 55.1508C300.19 55.4949 299.718 55.8189 299.318 56.2261C298.485 57.0748 298.021 58.2905 298.075 59.4776C298.084 59.674 297.933 59.8403 297.737 59.8489C297.733 59.8475 297.727 59.8475 297.721 59.8475Z" fill="#F28766"/>
<path d="M323.405 278.082C323.405 278.082 320.159 307.292 320.971 314.595C321.782 321.898 325.028 344.077 325.028 344.077H372.902C372.902 344.077 379.393 303.235 376.147 287.819L323.405 278.082Z" fill="#F7CF90"/>
<path d="M395.539 322.313L395.411 336.039L391.301 339.853C391.301 339.853 389.417 323.548 395.539 322.313Z" fill="#FFBEA1"/>
<path d="M393.466 323.607L393.291 341.732L386.398 346.683L383.017 345.374L393.466 323.607Z" fill="#FFBEA1"/>
<path d="M393.441 338.663C393.437 338.663 393.433 338.663 393.429 338.663C393.234 338.656 393.08 338.491 393.086 338.294L393.403 329.654C393.41 329.459 393.543 329.3 393.771 329.311C393.966 329.318 394.119 329.483 394.114 329.68L393.797 338.32C393.79 338.512 393.632 338.663 393.441 338.663Z" fill="#F28766"/>
<path d="M383.003 299.001L383.641 308.834L378.754 316.189L376.44 327.34L375.889 338.614C375.889 338.614 379.823 340.786 381.22 334.412C382.618 328.038 383.419 325.376 383.419 325.376L389.34 317.287L388.656 299.891L383.003 299.001Z" fill="#FFBEA1"/>
<path d="M381.607 323.492L385.105 328.843L384.161 338.723L381.297 343.028C381.297 343.028 376.955 344.913 376.876 348.258L383.182 347.37L389.331 341.034L390.988 331.486L395.477 322.558L394.048 309.759L394.773 304.46L394.243 298.318L383.005 298.998L384.454 312.501L381.607 323.492Z" fill="#FFBEA1"/>
<path d="M385.166 328.955C385.033 328.955 384.904 328.879 384.844 328.749C383.612 326.075 381.618 324.152 381.598 324.132C381.456 323.998 381.452 323.773 381.587 323.631C381.721 323.489 381.948 323.483 382.088 323.619C382.174 323.701 384.199 325.649 385.488 328.452C385.569 328.63 385.492 328.84 385.314 328.924C385.268 328.944 385.217 328.955 385.166 328.955Z" fill="#F28766"/>
<path d="M379.754 156.55C379.754 156.55 398.868 182.155 401.392 187.564C402.872 190.734 411.58 256.985 411.58 256.985L396.433 311.079C396.433 311.079 390.934 315.587 376.959 305.67C376.028 305.011 378.582 253.739 378.582 253.739L364.608 190.81L379.754 156.55Z" fill="#24B2B4"/>
<path d="M363.18 146.104C363.18 146.104 361.02 139.251 355.251 134.56C349.483 129.869 324.608 110.384 324.608 110.384L307.718 67.1143L289.866 75.2287C289.866 75.2287 300.077 126.242 304.042 132.014C308.006 137.786 331.795 171.334 331.795 171.334C331.795 171.334 327.457 195.134 327.094 201.986C326.73 208.837 319.845 285.287 319.845 285.287C319.845 285.287 352.294 303.332 382.591 294.329L379.764 156.568L363.18 146.104Z" fill="#24B2B4"/>
<path d="M399.367 126.407C399.192 126.688 398.972 126.992 398.691 127.31C398.691 127.317 398.684 127.326 398.676 127.333C397.696 128.487 396.118 129.875 394.281 131.317C394.266 131.324 394.259 131.333 394.251 131.34C388.196 136.068 379.326 141.417 379.326 141.417L379.448 142.957L380.205 157.812C371.75 162.575 362.452 165.651 352.823 166.868L351.714 167.009L357.123 153.666L357.387 143.345L356.765 136.713L348.895 133.321C347.462 132.934 346.566 131.507 346.847 130.042L350.254 120.633L348.828 112.734C348.646 112.135 348.897 111.474 349.434 111.148L356.727 108.941C358.071 108.129 359.315 103.963 360.165 102.544C361.273 100.714 362.495 98.9466 364.035 97.4513C365.286 96.2442 366.637 95.3037 368.072 94.6056C370.052 93.6264 372.178 93.1103 374.362 92.9583C382.278 92.4121 390.988 96.6843 396.452 101.913C402.303 107.511 402.174 121.792 399.367 126.407Z" fill="#FFBEA1"/>
<path d="M373.297 120.256L376.643 136.703L379.124 143.027C379.124 143.027 404.222 137.784 406.351 125.717C408.413 114.039 405.689 99.5817 387.702 93.7124C385.998 93.1561 384.381 92.3619 382.893 91.3641C381.452 90.3978 379.287 89.1864 376.572 88.3835C372.791 87.2638 368.899 89.8114 368.226 93.6952L368.047 94.7303C368.047 94.7303 367.895 95.3295 367.725 96.3832C366.401 104.519 368.315 112.853 372.919 119.691L373.297 120.256Z" fill="#3A3A3A"/>
<path d="M378.905 119.685C380.264 120.198 381.476 121.363 381.717 123.017C381.963 124.706 381.159 126.534 380.104 127.936C378.567 129.977 376.437 131.43 374.229 131.943C372.021 132.456 369.753 132.026 367.974 130.756C368.781 128.506 369.696 126.296 370.712 124.138C371.473 122.522 372.428 120.573 374.014 119.943C375.519 119.345 377.509 119.158 378.905 119.685Z" fill="#FFBEA1"/>
<path d="M374.053 130.531C373.908 130.531 373.767 130.513 373.63 130.477C373.44 130.427 373.327 130.232 373.377 130.042C373.428 129.853 373.621 129.74 373.812 129.792C374.258 129.909 374.844 129.675 375.562 129.093C377.222 127.749 378.514 125.818 379.199 123.656C379.26 123.469 379.456 123.363 379.645 123.425C379.832 123.484 379.935 123.683 379.876 123.871C379.149 126.164 377.776 128.215 376.008 129.647C375.277 130.239 374.632 130.531 374.053 130.531Z" fill="#F28766"/>
<path d="M375.924 126.091C375.542 126.359 375.108 126.601 374.886 127.047C374.659 127.504 374.688 128.117 374.332 128.452C374.053 128.716 373.674 128.673 373.333 128.686C372.992 128.699 372.562 128.876 372.49 129.269C372.397 129.241 372.304 129.212 372.21 129.183C372.245 128.236 372.737 127.301 373.385 126.633C373.971 126.029 375.161 125.089 375.919 124.889C376.979 124.613 376.893 125.408 375.924 126.091Z" fill="#F28766"/>
<path d="M363.653 113.14C363.483 113.14 363.332 113.017 363.303 112.843C362.889 110.353 362.099 107.95 360.954 105.702C360.865 105.527 360.934 105.314 361.108 105.225C361.282 105.137 361.497 105.205 361.586 105.38C362.764 107.692 363.577 110.164 364.003 112.727C364.035 112.92 363.904 113.103 363.711 113.136C363.693 113.138 363.673 113.14 363.653 113.14Z" fill="#3A3A3A"/>
<path d="M357.043 114.297C357.174 114.439 357.372 114.506 357.627 114.419C357.843 114.346 358.01 114.178 358.168 114.014C358.506 113.665 358.959 113.236 359.085 112.741C359.236 112.155 358.519 111.612 358.003 111.96C357.526 112.283 357.09 112.885 356.895 113.422C356.792 113.711 356.848 114.086 357.043 114.297Z" fill="#3A3A3A"/>
<path d="M356.18 125.817C356.139 125.817 356.098 125.809 356.058 125.795C354.345 125.171 352.72 124.323 351.229 123.272C351.069 123.159 351.031 122.938 351.143 122.777C351.256 122.617 351.477 122.579 351.638 122.691C353.077 123.706 354.646 124.526 356.3 125.128C356.485 125.196 356.58 125.399 356.512 125.583C356.461 125.728 356.324 125.817 356.18 125.817Z" fill="#F28766"/>
<path d="M371.942 112.847C371.759 112.847 371.603 112.705 371.588 112.519C371.226 107.781 371.282 102.98 371.755 98.25C371.874 97.0644 372.056 95.83 372.861 94.9283C372.991 94.782 373.216 94.7691 373.363 94.8996C373.509 95.03 373.522 95.2551 373.392 95.4014C372.728 96.144 372.569 97.2507 372.461 98.3217C371.993 103.011 371.938 107.769 372.298 112.466C372.312 112.661 372.166 112.832 371.971 112.847C371.961 112.847 371.953 112.847 371.942 112.847Z" fill="#252525"/>
<path d="M386.689 134.653C386.53 134.653 386.385 134.545 386.345 134.385C386.296 134.194 386.411 134.002 386.603 133.953C391.284 132.77 394.559 131.155 396.911 128.869C399.382 126.468 401.299 122.33 400.01 118.501C399.947 118.315 400.047 118.114 400.234 118.051C400.422 117.988 400.621 118.088 400.684 118.275C401.887 121.843 400.569 126.306 397.407 129.378C394.961 131.754 391.583 133.427 386.776 134.641C386.748 134.648 386.717 134.653 386.689 134.653Z" fill="#252525"/>
<path d="M378.626 135.453C378.504 135.453 378.385 135.39 378.319 135.277C378.221 135.107 378.278 134.889 378.448 134.791C382.494 132.436 386.64 130.128 390.769 127.932C390.94 127.839 391.158 127.905 391.249 128.078C391.341 128.252 391.275 128.467 391.102 128.558C386.98 130.751 382.843 133.053 378.805 135.403C378.75 135.437 378.688 135.453 378.626 135.453Z" fill="#252525"/>
<path d="M395.228 121.591C395.216 121.591 395.206 121.591 395.195 121.589C395 121.572 394.855 121.399 394.872 121.204C395.222 117.301 392.951 113.828 390.984 111.6C389.695 110.14 388.217 108.807 386.788 107.518C385.553 106.404 384.276 105.253 383.115 104.016C380.012 100.713 378.437 97.3852 378.428 94.1251C378.428 93.9287 378.586 93.7695 378.782 93.7695C378.977 93.7695 379.136 93.9287 379.138 94.1236C379.145 97.1974 380.656 100.363 383.631 103.53C384.772 104.745 386.038 105.887 387.262 106.991C388.707 108.292 390.201 109.64 391.516 111.129C393.575 113.462 395.952 117.114 395.579 121.268C395.565 121.452 395.41 121.591 395.228 121.591Z" fill="#252525"/>
<path d="M366.502 139.961L357.388 143.346L356.766 136.714L366.502 139.961Z" fill="#F28766"/>
<path d="M331.79 171.691C331.769 171.691 331.747 171.69 331.726 171.685C331.532 171.651 331.405 171.466 331.441 171.273L334.957 151.979C334.992 151.785 335.181 151.655 335.37 151.693C335.564 151.728 335.691 151.913 335.656 152.106L332.139 171.4C332.109 171.571 331.958 171.691 331.79 171.691Z" fill="#619831"/>
<path d="M378.041 294.666C378.017 294.666 377.992 294.664 377.969 294.659C377.777 294.618 377.653 294.431 377.693 294.24L384.708 260.243C384.11 257.787 377.439 220.268 377.149 218.643C377.115 218.449 377.244 218.264 377.436 218.231C377.631 218.201 377.813 218.324 377.848 218.518C380.339 232.53 385.125 259.259 385.409 260.121C385.429 260.179 385.432 260.244 385.419 260.304L378.387 294.383C378.354 294.551 378.206 294.666 378.041 294.666Z" fill="#619831"/>
<path d="M376.133 203.779C376.086 203.779 376.037 203.769 375.991 203.748C375.812 203.67 375.73 203.46 375.808 203.281C379.784 194.198 388.705 187.487 398.534 186.184C398.721 186.159 398.906 186.294 398.932 186.489C398.958 186.682 398.822 186.862 398.627 186.887C389.039 188.159 380.338 194.705 376.46 203.565C376.401 203.7 376.271 203.779 376.133 203.779Z" fill="#619831"/>
<path d="M314.261 121.033C314.238 121.033 314.214 121.032 314.191 121.026C313.999 120.987 313.874 120.8 313.913 120.607C314.665 116.873 316.816 113.382 319.812 111.028C319.966 110.906 320.189 110.932 320.311 111.088C320.432 111.243 320.406 111.465 320.251 111.587C317.387 113.838 315.329 117.177 314.61 120.748C314.575 120.917 314.426 121.033 314.261 121.033Z" fill="#619831"/>
<path d="M265.87 39.4008C265.616 38.6553 264.798 38.2682 264.059 38.542C263.417 38.7814 263.043 39.4509 263.176 40.1219L260.17 57.3256L263.087 69.5818C263.087 69.5818 259.896 83.2602 259.885 83.8609C265.162 83.8379 271.281 86.1361 276.268 84.4429C275.232 81.7004 276.974 74.6497 276.974 74.6497L283.436 59.7542C283.558 59.456 283.653 59.1477 283.72 58.8323L285.778 49.0721C285.975 48.1359 285.511 47.1682 284.615 46.7496C283.591 46.2708 282.368 46.7597 281.844 47.7603C281.305 48.7883 280.593 50.143 279.796 51.6627L278.133 36.1235C278.036 35.2059 277.269 34.5049 276.347 34.4877C275.771 34.4776 275.27 34.7543 274.925 35.1701L274.701 32.9207C274.62 32.1021 274.045 31.381 273.239 31.2161C272.126 30.9896 271.104 31.7939 271.031 32.892L270.75 37.0725L270.74 35.1185C270.734 34.0418 269.964 33.0698 268.895 32.9451C267.741 32.8103 266.722 33.6246 266.571 34.7443L266.069 38.4603L265.87 39.4008Z" fill="#FFBEA1"/>
<path d="M280.034 52.2411C280.031 52.0519 279.878 51.9014 279.69 51.9014C279.689 51.9014 279.687 51.9014 279.686 51.9014C279.497 51.9042 279.343 52.0605 279.346 52.2497C279.373 54.3414 279.23 55.8209 278.92 57.1772C278.879 57.3635 278.995 57.5485 279.181 57.5872C279.184 57.5872 279.186 57.5886 279.188 57.5886C279.372 57.6273 279.553 57.5126 279.594 57.3291C279.914 55.9328 280.061 54.4059 280.034 52.2411Z" fill="#F28766"/>
<path d="M275.189 35.4876C275.199 35.2983 275.051 35.1363 274.862 35.1277C274.657 35.1148 274.511 35.2654 274.502 35.4546C274.268 40.2774 274.317 45.0342 274.37 49.2821C274.373 49.5201 274.612 49.6806 274.835 49.5946C274.837 49.5932 274.839 49.5932 274.842 49.5917C274.974 49.5401 275.061 49.4125 275.06 49.2706C275.004 45.0342 274.956 40.2888 275.189 35.4876Z" fill="#F28766"/>
<path d="M270.532 50.33C270.529 50.33 270.526 50.33 270.524 50.33C270.333 50.3243 270.184 50.1666 270.188 49.9773C270.248 47.6548 270.307 45.2191 270.364 42.7833C270.423 40.3461 270.481 37.9089 270.541 35.5864C270.546 35.3972 270.69 35.2581 270.893 35.251C271.084 35.2567 271.233 35.4144 271.229 35.6037C271.169 37.9262 271.11 40.3633 271.053 42.8005C270.994 45.2363 270.936 47.672 270.876 49.9945C270.87 50.1823 270.717 50.33 270.532 50.33Z" fill="#F28766"/>
<path d="M274.508 71.5015C274.482 71.5015 274.453 71.4986 274.428 71.4914C271.698 70.8334 268.892 70.5481 266.084 70.6327C265.895 70.6527 265.735 70.4893 265.73 70.3001C265.724 70.1108 265.873 69.9517 266.062 69.946C268.93 69.8542 271.8 70.151 274.588 70.8219C274.773 70.8664 274.886 71.0527 274.842 71.2377C274.805 71.3954 274.664 71.5015 274.508 71.5015Z" fill="#F28766"/>
<path d="M265.044 50.7186C265.036 50.7186 265.027 50.7186 265.019 50.7172C264.829 50.7028 264.687 50.538 264.702 50.3487L265.527 39.3756C265.542 39.1864 265.71 39.043 265.896 39.0588C266.085 39.0731 266.227 39.238 266.213 39.4273L265.387 50.4003C265.374 50.581 265.224 50.7186 265.044 50.7186Z" fill="#F28766"/>
<path d="M207.214 373.786C207.214 373.786 200.923 315.284 200.923 303.753L264.872 297.462L279.739 373.786H207.214Z" fill="#5F5957"/>
<path d="M213.932 338.447L200.874 338.213C200.874 338.213 197.531 355.88 197.891 357.953C197.891 357.953 197.892 363.379 198.522 363.835C199.151 364.289 201.984 364.98 201.984 364.98C201.984 364.98 202.47 366.777 203.301 367.157C204.133 367.537 205.823 367.135 205.823 367.135C205.823 367.135 206.679 368.196 207.561 368.096C207.935 368.054 209.133 369.807 209.587 370.03C210.918 370.686 212.467 368.6 212.475 367.458C212.49 365.522 213.932 338.447 213.932 338.447Z" fill="#FFBEA1"/>
<path d="M211.446 365.313C211.446 365.313 216.756 365.494 218.251 366.913C219.747 368.333 219.339 370.324 216.349 370.198C213.358 370.072 209.586 370.03 209.586 370.03L211.446 365.313Z" fill="#FFBEA1"/>
<path d="M213.932 338.446C213.932 338.446 217.938 349.921 218.236 352.57C218.534 355.218 216.482 360.814 216.616 362.282C216.749 363.75 218.074 367.671 216.514 368.667C214.954 369.664 212.05 369.644 212.273 362.109C212.498 354.575 206.79 348.149 206.79 348.149L213.932 338.446Z" fill="#FFBEA1"/>
<path d="M215.621 367.898C215 367.898 214.381 367.682 213.919 367.351C213.204 366.837 212.656 366.026 212.247 364.87C211.39 362.447 211.475 359.85 211.555 357.337C211.601 355.923 211.648 354.461 211.525 353.054C211.509 352.865 211.648 352.697 211.837 352.682C212.019 352.669 212.193 352.805 212.21 352.994C212.336 354.441 212.289 355.923 212.242 357.357C212.159 359.919 212.081 362.339 212.894 364.638C213.255 365.656 213.721 366.36 214.319 366.789C214.928 367.226 215.893 367.411 216.555 366.919C216.707 366.806 216.924 366.839 217.037 366.991C217.15 367.143 217.119 367.359 216.966 367.472C216.566 367.771 216.094 367.898 215.621 367.898Z" fill="#F28766"/>
<path d="M201.73 364.893C201.583 364.893 201.445 364.797 201.4 364.648L200.556 361.852C200.502 361.67 200.605 361.478 200.785 361.423C200.967 361.367 201.16 361.472 201.214 361.653L202.059 364.448C202.113 364.63 202.01 364.822 201.829 364.877C201.796 364.888 201.763 364.893 201.73 364.893Z" fill="#F28766"/>
<path d="M204.942 366.751C204.767 366.751 204.616 366.618 204.599 366.44C204.514 365.555 204.272 364.704 203.881 363.908C203.798 363.738 203.866 363.531 204.037 363.448C204.208 363.363 204.414 363.434 204.497 363.604C204.926 364.476 205.191 365.408 205.283 366.374C205.301 366.563 205.162 366.731 204.973 366.75C204.963 366.751 204.953 366.751 204.942 366.751Z" fill="#F28766"/>
<path d="M208.399 369.182C208.258 369.182 208.124 369.093 208.074 368.951C207.71 367.905 207.465 366.816 207.346 365.717C207.326 365.528 207.462 365.358 207.651 365.338C207.848 365.321 208.011 365.456 208.03 365.644C208.143 366.692 208.375 367.728 208.723 368.725C208.787 368.904 208.69 369.1 208.511 369.163C208.475 369.175 208.438 369.182 208.399 369.182Z" fill="#F28766"/>
<path d="M240.748 138.687L246.004 127.628L261.728 72.5892C261.728 72.5892 269.655 70.4459 277.454 76.7826L272.213 133.394L261.383 192.305C261.383 192.305 265.77 204.004 267.719 214.24C269.669 224.476 264.307 252.26 264.307 252.26L268.207 298.08C268.207 298.08 247.735 316.602 217.513 314.165L209.714 193.279L240.748 138.687Z" fill="#F2F8F9"/>
<path d="M236.254 132.475C237.944 134.041 239.528 136.066 240.747 138.686L249.277 139.904L248.058 147.216C248.058 147.216 251.214 153.079 251.47 155.502C252.201 162.408 240.259 170.613 240.259 170.613L240.747 178.656L244.077 178.006C244.077 178.006 247.083 195.96 243.671 197.909C240.259 199.859 210.528 192.288 210.528 192.288L214.541 184.263L215.318 174.269C215.318 174.269 199.558 166.47 197.12 156.477C195.728 150.77 196.864 144.539 199.304 139.273C205.005 126.974 226.473 123.422 236.254 132.475Z" fill="#FFBEA1"/>
<path d="M240.261 170.614C240.261 170.614 236.443 172.97 233.355 173.295L240.748 178.657L240.261 170.614Z" fill="#F28766"/>
<path d="M239.009 147.336C238.895 147.336 238.783 147.279 238.718 147.176C237.315 144.948 236.802 142.19 237.311 139.608C237.348 139.421 237.524 139.3 237.715 139.337C237.901 139.374 238.023 139.555 237.986 139.741C237.511 142.152 237.99 144.729 239.3 146.809C239.402 146.969 239.353 147.182 239.193 147.283C239.136 147.319 239.073 147.336 239.009 147.336Z" fill="#3A3A3A"/>
<path d="M242.348 145.151C242.48 145.044 242.53 144.866 242.423 144.612C242.333 144.4 242.153 144.221 241.98 144.05C241.607 143.686 241.145 143.204 240.645 143.022C240.052 142.806 239.568 143.418 239.954 143.948C240.313 144.442 240.943 144.929 241.492 145.18C241.786 145.315 242.155 145.31 242.348 145.151Z" fill="#3A3A3A"/>
<path d="M244.576 154.316C244.47 154.316 244.365 154.267 244.298 154.175C244.186 154.022 244.219 153.807 244.372 153.694C245.836 152.62 247.099 151.319 248.13 149.827C248.238 149.671 248.453 149.632 248.609 149.74C248.765 149.847 248.804 150.062 248.696 150.218C247.623 151.774 246.304 153.13 244.78 154.248C244.717 154.293 244.646 154.316 244.576 154.316Z" fill="#F28766"/>
<path d="M215.076 174.759L226.043 175.084C226.043 175.084 241.154 167.447 230.43 128.94C230.43 128.94 215.482 122.441 203.621 132.514C191.761 142.588 192.248 158.024 198.097 163.06C203.945 168.097 215.076 174.759 215.076 174.759Z" fill="#3A3A3A"/>
<path d="M227.821 152.641C226.818 153.481 226.132 154.831 226.418 156.31C226.709 157.821 227.936 159.137 229.251 160.015C231.164 161.296 233.407 161.901 235.438 161.681C237.47 161.463 239.27 160.424 240.409 158.814C239.055 157.14 237.62 155.53 236.115 153.997C234.988 152.849 233.597 151.472 232.061 151.408C230.601 151.348 228.852 151.778 227.821 152.641Z" fill="#FFBEA1"/>
<path d="M234.555 160.552C234.175 160.552 233.735 160.461 233.232 160.281C231.299 159.585 229.517 158.245 228.217 156.506C228.104 156.354 228.134 156.139 228.287 156.024C228.439 155.909 228.656 155.941 228.769 156.094C229.99 157.727 231.658 158.985 233.465 159.634C234.241 159.914 234.804 159.939 235.14 159.711C235.298 159.604 235.511 159.645 235.617 159.803C235.725 159.961 235.683 160.174 235.526 160.281C235.257 160.461 234.936 160.552 234.555 160.552Z" fill="#F28766"/>
<path d="M231.772 155.744C232.177 155.859 232.617 155.936 232.939 156.25C233.268 156.571 233.425 157.102 233.827 157.281C234.143 157.423 234.452 157.272 234.746 157.184C235.039 157.093 235.458 157.116 235.637 157.43C235.708 157.379 235.779 157.326 235.849 157.274C235.54 156.477 234.845 155.829 234.093 155.452C233.415 155.112 232.123 154.665 231.418 154.721C230.436 154.799 230.744 155.452 231.772 155.744Z" fill="#F28766"/>
<path d="M188.048 165.385C188.479 166.986 189.275 168.463 189.92 169.991C193.721 178.997 191.865 190.12 185.348 197.407C191.197 195.867 196.599 192.664 200.755 188.269C203.925 184.917 205.119 180.259 205.743 175.813C206.325 171.66 207.248 166.377 206.474 162.234C205.661 157.887 199.829 152.54 195.309 152.423C189.874 152.284 186.95 161.313 188.048 165.385Z" fill="#3A3A3A"/>
<path d="M233.395 130.295C234.912 134.467 234.574 139.046 234.46 143.484C234.349 147.923 234.555 152.622 236.952 156.36C235.034 155.019 233.494 153.213 232.02 151.395C227.453 145.759 220.928 137.536 221.745 129.761C222.621 121.419 231.144 124.101 233.395 130.295Z" fill="#3A3A3A"/>
<path d="M231.851 147.626C231.735 147.626 231.623 147.567 231.557 147.463C230.187 145.233 229.516 142.669 228.868 140.187C228.628 139.271 228.382 138.325 228.102 137.413C226.821 133.218 224.841 130.517 222.22 129.385C222.045 129.309 221.965 129.106 222.041 128.932C222.115 128.757 222.319 128.676 222.494 128.752C225.31 129.968 227.418 132.815 228.762 137.212C229.044 138.137 229.294 139.09 229.535 140.014C230.17 142.445 230.828 144.961 232.145 147.103C232.244 147.265 232.194 147.477 232.032 147.576C231.975 147.609 231.912 147.626 231.851 147.626Z" fill="#252525"/>
<path d="M206.815 163.057C206.653 163.057 206.509 162.942 206.477 162.777C206.441 162.591 206.565 162.41 206.751 162.375C215.895 160.631 223.97 154.285 227.827 145.812C227.906 145.638 228.109 145.561 228.283 145.641C228.456 145.72 228.532 145.924 228.453 146.097C224.507 154.771 216.24 161.266 206.88 163.051C206.858 163.054 206.837 163.057 206.815 163.057Z" fill="#252525"/>
<path d="M210.319 164.638C209.706 164.638 209.092 164.625 208.481 164.598C208.292 164.589 208.144 164.428 208.153 164.239C208.162 164.05 208.332 163.899 208.511 163.909C214.141 164.155 219.913 163.25 225.202 161.294C225.38 161.227 225.577 161.32 225.643 161.498C225.709 161.676 225.619 161.874 225.44 161.94C220.641 163.714 215.45 164.638 210.319 164.638Z" fill="#252525"/>
<path d="M195.465 153.155C195.451 153.155 195.437 153.153 195.421 153.152C195.232 153.128 195.1 152.956 195.123 152.766C195.636 148.744 198.221 144.972 203.025 141.236C207.154 138.024 211.739 135.491 216.655 133.705C216.834 133.642 217.03 133.732 217.096 133.911C217.161 134.089 217.069 134.287 216.89 134.353C212.041 136.113 207.519 138.612 203.448 141.779C198.794 145.399 196.295 149.022 195.807 152.855C195.784 153.029 195.636 153.155 195.465 153.155Z" fill="#252525"/>
<path d="M204.093 155.299C203.907 155.299 203.753 155.15 203.749 154.962C203.745 154.773 203.895 154.615 204.086 154.611C207.19 154.54 210.492 153.565 213.902 151.713C216.96 150.053 219.773 147.89 222.493 145.798C222.643 145.682 222.86 145.711 222.976 145.861C223.092 146.012 223.063 146.228 222.913 146.344C220.171 148.452 217.337 150.632 214.232 152.318C210.725 154.222 207.317 155.226 204.103 155.299C204.097 155.299 204.095 155.299 204.093 155.299Z" fill="#252525"/>
<path d="M206.92 167.789C206.745 167.789 206.596 167.657 206.578 167.479C206.202 163.767 205.155 160.633 203.467 158.165C201.477 155.257 198.581 153.34 195.52 152.903C195.332 152.876 195.202 152.702 195.227 152.513C195.255 152.325 195.43 152.196 195.617 152.221C198.869 152.685 201.937 154.71 204.036 157.775C205.79 160.339 206.877 163.581 207.264 167.407C207.283 167.597 207.145 167.766 206.956 167.784C206.943 167.789 206.932 167.789 206.92 167.789Z" fill="#252525"/>
<path d="M194.661 189.556C194.622 189.556 194.583 189.548 194.545 189.535C194.366 189.471 194.272 189.275 194.337 189.095C196.36 183.434 196.388 177.188 194.419 171.509C194.122 170.652 193.772 169.79 193.435 168.957C192.734 167.225 192.01 165.435 191.686 163.549C191.259 161.055 191.666 157.486 194.225 155.643C194.38 155.532 194.595 155.567 194.705 155.72C194.816 155.875 194.781 156.09 194.628 156.2C192.327 157.859 191.971 161.132 192.366 163.432C192.677 165.244 193.386 167 194.075 168.697C194.416 169.539 194.767 170.409 195.07 171.282C197.091 177.11 197.061 183.518 194.985 189.326C194.935 189.468 194.801 189.556 194.661 189.556Z" fill="#252525"/>
<path d="M200.734 187.539C200.712 187.539 200.691 187.538 200.668 187.533C200.482 187.497 200.36 187.317 200.396 187.13C201.511 181.38 201.253 175.363 199.65 169.73C199.598 169.547 199.704 169.358 199.887 169.305C200.07 169.252 200.259 169.359 200.312 169.541C201.945 175.279 202.208 181.406 201.071 187.259C201.039 187.424 200.896 187.539 200.734 187.539Z" fill="#252525"/>
<path d="M209.714 193.28C209.714 193.28 197.041 210.341 196.553 225.939C196.314 233.589 195.579 342.925 195.579 342.925C195.579 342.925 199.478 352.674 218.488 342.925V279.071L240.423 230.814L209.714 193.28Z" fill="#F2F8F9"/>
<path d="M218.975 313.048C218.97 313.048 218.964 313.048 218.957 313.048C218.768 313.038 218.621 312.876 218.631 312.687L222.043 247.37C222.053 247.181 222.21 247.023 222.405 247.045C222.594 247.055 222.74 247.217 222.73 247.406L219.318 312.723C219.309 312.905 219.158 313.048 218.975 313.048Z" fill="#5F7A8C"/>
<path d="M224.11 238.694C223.953 238.694 223.811 238.586 223.774 238.426C221.483 228.366 213.244 219.834 203.272 217.193C203.088 217.145 202.978 216.955 203.026 216.772C203.075 216.588 203.264 216.479 203.448 216.527C213.661 219.231 222.1 227.97 224.445 238.271C224.488 238.456 224.372 238.641 224.186 238.682C224.161 238.691 224.135 238.694 224.11 238.694Z" fill="#5F7A8C"/>
<path d="M251.938 292.062C251.922 292.062 251.906 292.06 251.889 292.059C251.701 292.033 251.569 291.858 251.597 291.67C253.728 276.524 257.087 261.431 261.58 246.81C261.636 246.628 261.83 246.525 262.011 246.582C262.193 246.638 262.294 246.83 262.238 247.012C257.757 261.598 254.405 276.656 252.279 291.766C252.253 291.938 252.106 292.062 251.938 292.062Z" fill="#5F7A8C"/>
<path d="M259.918 191.676C259.777 191.676 259.647 191.59 259.595 191.451C258.518 188.536 257.063 185.769 255.271 183.229C255.162 183.074 255.2 182.859 255.354 182.75C255.511 182.64 255.724 182.677 255.835 182.833C257.661 185.422 259.143 188.241 260.242 191.213C260.308 191.391 260.216 191.588 260.038 191.654C259.996 191.669 259.956 191.676 259.918 191.676Z" fill="#5F7A8C"/>
<path d="M262.955 1.87741L260.743 2.8125L266.184 15.6837L268.396 14.7486L262.955 1.87741Z" fill="#F0972E"/>
<path d="M278.371 15.588L276.036 15.0317C277.196 10.1588 277.624 5.15107 277.308 0.151966L279.705 0C280.036 5.23853 279.587 10.4828 278.371 15.588Z" fill="#F0972E"/>
<path d="M296.784 2.12387L283.928 14.0283L285.56 15.7902L298.416 3.88574L296.784 2.12387Z" fill="#F0972E"/>
<path d="M5.00752 122.258C7.27676 122.258 9.11632 120.418 9.11632 118.149C9.11632 115.88 7.27676 114.04 5.00752 114.04C2.73828 114.04 0.898682 115.88 0.898682 118.149C0.898682 120.418 2.73828 122.258 5.00752 122.258Z" fill="#A1EEE9"/>
<path d="M107.263 107.649C110.037 107.649 112.285 105.4 112.285 102.627C112.285 99.8529 110.037 97.6045 107.263 97.6045C104.49 97.6045 102.241 99.8529 102.241 102.627C102.241 105.4 104.49 107.649 107.263 107.649Z" fill="#D3D9E8"/>
<path d="M385.944 60.307C388.041 59.4385 389.036 57.0349 388.168 54.9384C387.299 52.8418 384.896 51.8462 382.799 52.7147C380.703 53.5831 379.707 55.9867 380.576 58.0832C381.444 60.1798 383.848 61.1754 385.944 60.307Z" fill="#F0972E"/>
<path d="M71.2002 188.904H59.3311V200.773H71.2002V188.904Z" fill="#F3B256"/>
<path d="M466.07 191.187H454.2V179.319L466.07 191.187Z" fill="#A1EEE9"/>
<path d="M431.567 115.212C430.839 115.212 430.23 115.009 429.853 114.843C427.623 113.86 425.784 111.088 424.927 108.383C424.905 108.395 424.885 108.407 424.864 108.419C423.343 109.293 420.946 111.306 421.602 113.298L419.321 114.049C418.255 110.815 420.996 107.873 423.667 106.336C423.923 106.188 424.177 106.049 424.429 105.919C424.381 105.269 424.412 104.664 424.535 104.137C424.911 102.518 428.197 97.6709 431.299 96.514C432.752 95.972 433.765 96.3749 434.362 96.8093L432.948 98.7504C432.876 98.6974 432.686 98.5598 432.138 98.7633C429.942 99.582 427.099 103.709 426.875 104.679C426.858 104.755 426.844 104.833 426.832 104.917C428.749 104.319 430.517 104.277 432.117 104.799C433.841 105.361 435.345 106.873 435.947 108.654C436.453 110.148 436.284 111.622 435.471 112.802C434.155 114.714 432.711 115.212 431.567 115.212ZM427.123 107.351C427.758 109.514 429.245 111.95 430.822 112.645C431.208 112.816 432.234 113.267 433.491 111.441C433.969 110.747 433.853 109.962 433.671 109.424C433.308 108.353 432.383 107.413 431.37 107.081C430.147 106.684 428.725 106.775 427.123 107.351Z" fill="white"/>
<path d="M536.141 133.245C538.328 129.706 537.232 125.065 533.693 122.878C530.155 120.691 525.513 121.787 523.326 125.326C521.139 128.865 522.235 133.506 525.774 135.693C529.313 137.88 533.955 136.784 536.141 133.245Z" fill="#D3D9E8"/>
</svg>
