<svg width="1541" height="272" viewBox="0 0 1541 272" fill="none" xmlns="http://www.w3.org/2000/svg">
<g filter="url(#filter0_d_70_17)">
<path d="M231.471 164.915L229.897 170.74C229.622 171.724 228.874 172.511 227.89 172.747L152.602 192.937C151.028 193.37 149.729 191.599 150.634 190.221C153.232 186.325 157.207 183.334 162.087 182.035L230.291 163.774C230.999 163.538 231.668 164.207 231.471 164.915Z" fill="#6ADEDA"/>
<path d="M194.713 186.915C192.666 189.316 191.013 192.032 189.833 194.944C189.479 195.849 188.691 196.558 187.707 196.794L118.323 215.37C115.725 216.078 113.325 217.062 111.121 218.321C109.428 219.305 107.539 217.377 108.523 215.724C111.593 210.529 116.591 206.475 122.888 204.783L193.965 185.735C194.674 185.616 195.185 186.404 194.713 186.915Z" fill="#A1EEE9"/>
<path d="M187.865 202.854C187.59 205.688 187.708 208.64 188.298 211.552C188.495 212.536 187.904 213.481 186.921 213.756L138.591 226.704C127.217 229.735 119.307 239.259 117.733 250.239C117.575 251.341 116.788 252.246 115.725 252.522L105.69 255.198C103.092 255.906 100.928 254.253 100.928 251.538C97.1888 237.566 105.454 223.241 119.425 219.502L186.37 201.556C187.196 201.398 187.983 202.028 187.865 202.854Z" fill="#D0F7F4"/>
<path d="M123.045 260.432C119.661 247.76 127.178 234.694 139.85 231.309L189.242 218.085C190.108 217.849 191.013 218.164 191.604 218.873C195.185 223.162 201.049 225.288 206.795 223.753L250.756 211.985C263.901 208.483 274.133 198.211 277.675 185.066L283.382 163.813C283.893 161.885 282.122 160.075 280.194 160.626C279.289 160.862 278.58 161.57 278.344 162.475L272.716 183.452C269.647 194.944 260.673 203.917 249.181 206.987L205.496 218.676C200.419 220.053 195.185 217.023 193.847 211.946C190.462 199.273 197.979 186.207 210.652 182.822L229.031 177.903C231.983 177.116 234.305 174.794 235.092 171.842L246.623 128.865C254.534 99.3089 277.636 76.2463 307.192 68.2964L327.618 62.8259C332.931 61.4091 337.772 66.2499 336.355 71.5629L305.421 186.994C300.148 206.712 284.759 222.1 265.042 227.373L128.949 263.856C126.312 264.486 123.714 262.991 123.045 260.432Z" fill="#FBF9F1"/>
<path d="M109.133 99.0845L110.708 93.2599C110.983 92.276 111.731 91.4889 112.715 91.2527L188.003 71.0631C189.577 70.6301 190.876 72.4012 189.971 73.7786C187.373 77.6749 183.398 80.6659 178.518 81.9647L110.314 100.226C109.606 100.462 108.937 99.7929 109.133 99.0845Z" fill="#6ADEDA"/>
<path d="M145.892 77.0846C147.939 74.6838 149.592 71.9683 150.772 69.0559C151.126 68.1507 151.914 67.4423 152.897 67.2062L222.282 48.6301C224.88 47.9217 227.28 46.9378 229.484 45.6784C231.177 44.6945 233.066 46.623 232.082 48.2759C229.012 53.4709 224.014 57.5246 217.717 59.2169L146.64 78.2652C145.931 78.3833 145.42 77.5962 145.892 77.0846Z" fill="#A1EEE9"/>
<path d="M152.74 61.1453C153.015 58.3117 152.897 55.3599 152.307 52.4476C152.11 51.4637 152.701 50.5191 153.684 50.2437L202.014 37.2955C213.388 34.2651 221.298 24.741 222.872 13.7606C223.03 12.6587 223.817 11.7535 224.879 11.478L234.915 8.80177C237.513 8.09336 239.677 9.74631 239.677 12.4619C243.416 26.4333 235.151 40.7589 221.18 44.4977L154.235 62.444C153.409 62.6014 152.622 61.9718 152.74 61.1453Z" fill="#D0F7F4"/>
<path d="M217.559 3.56757C220.944 16.2402 213.427 29.3064 200.754 32.691L151.363 45.9146C150.497 46.1508 149.592 45.8359 149.001 45.1275C145.42 40.8377 139.556 38.7125 133.81 40.2474L89.8491 52.0148C76.7042 55.5175 66.4716 65.7895 62.9296 78.9344L57.2229 100.187C56.7113 102.115 58.4823 103.925 60.4108 103.374C61.316 103.138 62.0244 102.43 62.2605 101.525L67.8884 80.548C70.9582 69.056 79.9314 60.0828 91.4233 57.0131L135.109 45.3243C140.185 43.9468 145.42 46.9773 146.758 52.0542C150.143 64.7268 142.626 77.793 129.953 81.1776L111.574 86.0971C108.622 86.8843 106.3 89.2063 105.513 92.158L93.9815 135.135C86.0709 164.691 62.9689 187.754 33.4125 195.704L12.9868 201.174C7.6737 202.591 2.83291 197.75 4.24972 192.437L35.1836 77.0059C40.4573 57.2885 55.8455 41.9003 75.5628 36.6266L211.656 0.143595C214.293 -0.486102 216.89 1.00943 217.559 3.56757Z" fill="#FBF9F1"/>
</g>
<path d="M377.806 188V76H400.686C417.752 76 431.726 81.1733 442.606 91.52C453.592 101.76 459.086 115.253 459.086 132C459.086 140.107 457.912 147.36 455.566 153.76C453.219 160.053 449.966 165.333 445.806 169.6C441.646 173.867 436.579 177.387 430.606 180.16C424.739 182.933 418.339 184.96 411.406 186.24C404.579 187.413 397.059 188 388.846 188H377.806ZM426.126 157.12C432.632 151.04 435.886 142.667 435.886 132C435.886 121.333 432.632 113.013 426.126 107.04C419.619 100.96 411.139 97.92 400.686 97.92V166.08C411.139 166.08 419.619 163.093 426.126 157.12ZM544.972 188H477.932V167.2H500.172V96.8H477.932V76H544.972V96.8H522.892V167.2H544.972V188ZM638.169 188L594.809 151.52L582.329 188H558.009L599.129 76H622.809L662.009 188H638.169ZM610.649 105.76L602.169 130.72L625.369 150.24L610.649 105.76ZM680.374 188V76H703.094V167.2H739.894V188H680.374ZM947.078 168.48C955.505 168.48 962.811 166.027 968.998 161.12C975.185 156.213 979.291 149.813 981.318 141.92H930.438V121.12H1005.16V128C1005.16 138.347 1003.56 147.627 1000.36 155.84C997.265 163.947 992.998 170.453 987.558 175.36C982.225 180.267 976.091 184 969.158 186.56C962.331 189.12 954.971 190.4 947.078 190.4C930.225 190.4 916.251 184.907 905.158 173.92C894.171 162.827 888.678 148.853 888.678 132C888.678 115.147 894.171 101.227 905.158 90.24C916.251 79.1467 930.225 73.6 947.078 73.6C963.291 73.6 976.838 78.72 987.718 88.96L971.398 105.28C964.678 98.7733 956.571 95.52 947.078 95.52C937.051 95.52 928.678 99.04 921.958 106.08C915.238 113.12 911.878 121.76 911.878 132C911.878 142.24 915.238 150.88 921.958 157.92C928.678 164.96 937.051 168.48 947.078 168.48ZM1137.3 105.92H1115.86C1115.86 102.507 1114.96 99.7867 1113.14 97.76C1111.33 95.6267 1108.72 94.56 1105.3 94.56C1101.78 94.56 1099.06 95.52 1097.14 97.44C1095.22 99.2533 1094.26 101.6 1094.26 104.48C1094.26 107.68 1095.06 110.187 1096.66 112C1098.37 113.707 1101.57 115.2 1106.26 116.48L1111.06 117.76C1116.18 119.253 1120.5 120.8 1124.02 122.4C1127.54 124 1130.96 126.187 1134.26 128.96C1137.57 131.733 1140.08 135.253 1141.78 139.52C1143.49 143.68 1144.34 148.64 1144.34 154.4C1144.34 164.64 1140.72 173.173 1133.46 180C1126.21 186.827 1116.98 190.24 1105.78 190.24C1094.48 190.24 1085.25 186.773 1078.1 179.84C1071.06 172.907 1067.54 163.733 1067.54 152.32H1089.3C1089.3 156.8 1090.85 160.747 1093.94 164.16C1097.14 167.573 1101.09 169.28 1105.78 169.28C1110.8 169.28 1114.8 167.84 1117.78 164.96C1120.77 162.08 1122.26 158.56 1122.26 154.4C1122.26 150.133 1120.82 146.88 1117.94 144.64C1115.06 142.293 1110.69 140.267 1104.82 138.56L1100.82 137.44C1082.05 132.213 1072.66 121.227 1072.66 104.48C1072.66 95.2 1075.7 87.7333 1081.78 82.08C1087.86 76.4267 1095.7 73.6 1105.3 73.6C1115.76 73.6 1123.7 76.32 1129.14 81.76C1134.58 87.2 1137.3 95.2533 1137.3 105.92ZM1224.61 76H1247.33V148.48C1247.33 160.96 1243.54 171.093 1235.97 178.88C1228.5 186.56 1218.64 190.4 1206.37 190.4C1194.1 190.4 1184.24 186.56 1176.77 178.88C1169.3 171.093 1165.57 160.96 1165.57 148.48V76H1188.13V148.48C1188.13 154.453 1189.73 159.307 1192.93 163.04C1196.24 166.773 1200.72 168.64 1206.37 168.64C1212.13 168.64 1216.61 166.773 1219.81 163.04C1223.01 159.307 1224.61 154.453 1224.61 148.48V76ZM1335.05 188V140.32L1297.61 105.76V188H1274.89V76H1297.61L1335.05 110.4V76H1357.77V188H1335.05ZM1389.41 188L1402.53 148.32L1377.25 76H1403.01L1413.89 114.56L1426.69 76H1451.65L1413.25 188H1389.41ZM1532.6 188H1465.56V167.2H1487.8V96.8H1465.56V76H1532.6V96.8H1510.52V167.2H1532.6V188Z" fill="#24B2B4"/>
<path d="M801.428 120.8C798.548 123.787 797.108 127.52 797.108 132C797.108 136.48 798.548 140.267 801.428 143.36C804.415 146.347 808.148 147.84 812.628 147.84C817.108 147.84 820.788 146.347 823.668 143.36C826.655 140.267 828.148 136.48 828.148 132C828.148 127.52 826.655 123.787 823.668 120.8C820.788 117.707 817.108 116.16 812.628 116.16C808.148 116.16 804.415 117.707 801.428 120.8ZM770.708 173.92C759.721 162.827 754.228 148.853 754.228 132C754.228 115.147 759.721 101.227 770.708 90.24C781.801 79.1467 795.775 73.6 812.628 73.6C829.481 73.6 843.401 79.1467 854.388 90.24C865.481 101.227 871.028 115.147 871.028 132C871.028 148.853 865.481 162.827 854.388 173.92C843.401 184.907 829.481 190.4 812.628 190.4C795.775 190.4 781.801 184.907 770.708 173.92ZM787.508 106.08C780.788 113.12 777.428 121.76 777.428 132C777.428 142.24 780.788 150.88 787.508 157.92C794.228 164.96 802.601 168.48 812.628 168.48C822.655 168.48 831.028 164.96 837.748 157.92C844.468 150.88 847.828 142.24 847.828 132C847.828 121.76 844.468 113.12 837.748 106.08C831.028 99.04 822.655 95.52 812.628 95.52C802.601 95.52 794.228 99.04 787.508 106.08Z" fill="#F0972E"/>
<defs>
<filter id="filter0_d_70_17" x="0" y="0" width="340.605" height="272" filterUnits="userSpaceOnUse" color-interpolation-filters="sRGB">
<feFlood flood-opacity="0" result="BackgroundImageFix"/>
<feColorMatrix in="SourceAlpha" type="matrix" values="0 0 0 0 0 0 0 0 0 0 0 0 0 0 0 0 0 0 127 0" result="hardAlpha"/>
<feOffset dy="4"/>
<feGaussianBlur stdDeviation="2"/>
<feComposite in2="hardAlpha" operator="out"/>
<feColorMatrix type="matrix" values="0 0 0 0 0 0 0 0 0 0 0 0 0 0 0 0 0 0 0.25 0"/>
<feBlend mode="normal" in2="BackgroundImageFix" result="effect1_dropShadow_70_17"/>
<feBlend mode="normal" in="SourceGraphic" in2="effect1_dropShadow_70_17" result="shape"/>
</filter>
</defs>
</svg>
