<svg width="1213" height="744" viewBox="0 0 1213 744" fill="none" xmlns="http://www.w3.org/2000/svg">
<path d="M0 380.224L0.63276 371.367L64.5415 139.184C82.2587 101.857 106.936 84.7755 127.817 74.6531L401.17 0H813.096L1089.61 86.6735C1119.48 99.8326 1136.65 130.116 1141.5 143.612L1213 361.878V371.367L1145.93 611.776C1129.48 642.143 1125.05 645.306 1091.51 666.816L813.096 744H396.74L148.698 666.184L120.224 657.959C91.8767 646.318 75.0875 615.571 70.2363 601.653L0 380.224Z" fill="#2D3E4A"/>
<g filter="url(#filter0_d_115_16)">
<path d="M1002.72 547.419L999.835 558.086C999.33 559.888 997.961 561.329 996.159 561.762L858.28 598.736C855.397 599.529 853.019 596.286 854.676 593.763C859.433 586.628 866.713 581.15 875.65 578.772L1000.56 545.329C1001.85 544.896 1003.08 546.122 1002.72 547.419Z" fill="#6ADEDA"/>
<path d="M935.4 587.709C931.652 592.105 928.625 597.078 926.463 602.412C925.814 604.07 924.372 605.367 922.571 605.8L795.503 639.819C790.746 641.116 786.349 642.918 782.313 645.224C779.214 647.026 775.754 643.495 777.556 640.467C783.178 630.954 792.332 623.53 803.864 620.431L934.03 585.547C935.328 585.33 936.265 586.772 935.4 587.709Z" fill="#A1EEE9"/>
<path d="M922.859 616.899C922.354 622.089 922.571 627.494 923.652 632.828C924.012 634.63 922.931 636.359 921.129 636.864L832.621 660.576C811.792 666.126 797.305 683.568 794.422 703.677C794.134 705.695 792.692 707.353 790.746 707.857L772.367 712.758C767.61 714.056 763.646 711.029 763.646 706.056C756.799 680.469 771.935 654.234 797.521 647.387L920.12 614.521C921.634 614.232 923.075 615.386 922.859 616.899Z" fill="#D0F7F4"/>
<path d="M804.152 722.344C797.954 699.136 811.72 675.208 834.928 669.009L925.382 644.792C926.967 644.36 928.625 644.936 929.706 646.233C936.265 654.09 947.004 657.982 957.527 655.171L1038.03 633.62C1062.11 627.206 1080.85 608.394 1087.33 584.321L1097.78 545.401C1098.72 541.869 1095.48 538.554 1091.95 539.563C1090.29 539.995 1088.99 541.293 1088.56 542.95L1078.25 581.366C1072.63 602.412 1056.2 618.845 1035.15 624.467L955.149 645.873C945.851 648.396 936.265 642.846 933.814 633.548C927.616 610.34 941.382 586.412 964.59 580.213L998.249 571.204C1003.65 569.762 1007.91 565.51 1009.35 560.104L1030.47 481.399C1044.95 427.271 1087.26 385.035 1141.39 370.476L1178.8 360.457C1188.53 357.863 1197.39 366.728 1194.8 376.458L1138.15 587.853C1128.49 623.962 1100.31 652.144 1064.2 661.802L814.963 728.615C810.134 729.768 805.377 727.029 804.152 722.344Z" fill="#FBF9F1"/>
<path d="M209.536 197.459L212.419 186.792C212.924 184.99 214.293 183.548 216.095 183.116L353.974 146.142C356.857 145.349 359.235 148.592 357.578 151.115C352.821 158.25 345.541 163.728 336.604 166.106L211.699 199.549C210.401 199.981 209.176 198.756 209.536 197.459Z" fill="#6ADEDA"/>
<path d="M276.854 157.169C280.602 152.773 283.629 147.799 285.791 142.466C286.44 140.808 287.881 139.511 289.683 139.078L416.751 105.059C421.508 103.762 425.904 101.96 429.941 99.6534C433.04 97.8516 436.499 101.383 434.698 104.41C429.076 113.924 419.922 121.348 408.39 124.447L278.223 159.331C276.926 159.548 275.989 158.106 276.854 157.169Z" fill="#A1EEE9"/>
<path d="M289.395 127.979C289.9 122.789 289.683 117.384 288.602 112.05C288.242 110.248 289.323 108.519 291.125 108.014L379.633 84.3014C400.462 78.7516 414.949 61.3096 417.832 41.2008C418.12 39.1827 419.562 37.5249 421.508 37.0204L439.887 32.1193C444.644 30.822 448.608 33.8491 448.608 38.8223C455.455 64.4088 440.319 90.644 414.733 97.4911L292.134 130.357C290.62 130.645 289.179 129.492 289.395 127.979Z" fill="#D0F7F4"/>
<path d="M408.102 22.5335C414.301 45.7415 400.534 69.6703 377.326 75.8687L286.872 100.086C285.287 100.518 283.629 99.9417 282.548 98.6443C275.989 90.7882 265.25 86.8961 254.727 89.707L174.22 111.257C150.147 117.672 131.407 136.484 124.921 160.557L114.47 199.477C113.533 203.008 116.776 206.324 120.308 205.315C121.966 204.882 123.263 203.585 123.695 201.927L134.002 163.512C139.624 142.466 156.057 126.033 177.103 120.411L257.106 99.0047C266.403 96.4821 275.989 102.032 278.44 111.329C284.638 134.538 270.872 158.466 247.664 164.665L214.005 173.674C208.599 175.116 204.347 179.368 202.906 184.774L181.788 263.479C167.301 317.607 124.993 359.843 70.8647 374.402L33.4579 384.42C23.7278 387.015 14.8626 378.15 17.4573 368.42L74.108 157.025C83.766 120.915 111.947 92.7342 148.057 83.0762L397.291 16.263C402.12 15.1098 406.877 17.8486 408.102 22.5335Z" fill="#FBF9F1"/>
</g>
<path d="M224.765 343V231H247.645C264.712 231 278.685 236.173 289.565 246.52C300.552 256.76 306.045 270.253 306.045 287C306.045 295.107 304.872 302.36 302.525 308.76C300.178 315.053 296.925 320.333 292.765 324.6C288.605 328.867 283.538 332.387 277.565 335.16C271.698 337.933 265.298 339.96 258.365 341.24C251.538 342.413 244.018 343 235.805 343H224.765ZM273.085 312.12C279.592 306.04 282.845 297.667 282.845 287C282.845 276.333 279.592 268.013 273.085 262.04C266.578 255.96 258.098 252.92 247.645 252.92V321.08C258.098 321.08 266.578 318.093 273.085 312.12ZM420.731 343H353.691V322.2H375.931V251.8H353.691V231H420.731V251.8H398.651V322.2H420.731V343ZM542.729 343L499.369 306.52L486.889 343H462.569L503.689 231H527.369L566.569 343H542.729ZM515.209 260.76L506.729 285.72L529.929 305.24L515.209 260.76ZM613.734 343V231H636.454V322.2H673.254V343H613.734ZM938.038 323.48C946.464 323.48 953.771 321.027 959.958 316.12C966.144 311.213 970.251 304.813 972.278 296.92H921.398V276.12H996.118V283C996.118 293.347 994.518 302.627 991.318 310.84C988.224 318.947 983.958 325.453 978.518 330.36C973.184 335.267 967.051 339 960.118 341.56C953.291 344.12 945.931 345.4 938.038 345.4C921.184 345.4 907.211 339.907 896.118 328.92C885.131 317.827 879.638 303.853 879.638 287C879.638 270.147 885.131 256.227 896.118 245.24C907.211 234.147 921.184 228.6 938.038 228.6C954.251 228.6 967.798 233.72 978.678 243.96L962.358 260.28C955.638 253.773 947.531 250.52 938.038 250.52C928.011 250.52 919.638 254.04 912.918 261.08C906.198 268.12 902.838 276.76 902.838 287C902.838 297.24 906.198 305.88 912.918 312.92C919.638 319.96 928.011 323.48 938.038 323.48ZM384.895 456.92H363.455C363.455 453.507 362.548 450.787 360.735 448.76C358.922 446.627 356.308 445.56 352.895 445.56C349.375 445.56 346.655 446.52 344.735 448.44C342.815 450.253 341.855 452.6 341.855 455.48C341.855 458.68 342.655 461.187 344.255 463C345.962 464.707 349.162 466.2 353.855 467.48L358.655 468.76C363.775 470.253 368.095 471.8 371.615 473.4C375.135 475 378.548 477.187 381.855 479.96C385.162 482.733 387.668 486.253 389.375 490.52C391.082 494.68 391.935 499.64 391.935 505.4C391.935 515.64 388.308 524.173 381.055 531C373.802 537.827 364.575 541.24 353.375 541.24C342.068 541.24 332.842 537.773 325.695 530.84C318.655 523.907 315.135 514.733 315.135 503.32H336.895C336.895 507.8 338.442 511.747 341.535 515.16C344.735 518.573 348.682 520.28 353.375 520.28C358.388 520.28 362.388 518.84 365.375 515.96C368.362 513.08 369.855 509.56 369.855 505.4C369.855 501.133 368.415 497.88 365.535 495.64C362.655 493.293 358.282 491.267 352.415 489.56L348.415 488.44C329.642 483.213 320.255 472.227 320.255 455.48C320.255 446.2 323.295 438.733 329.375 433.08C335.455 427.427 343.295 424.6 352.895 424.6C363.348 424.6 371.295 427.32 376.735 432.76C382.175 438.2 384.895 446.253 384.895 456.92ZM501.001 427H523.721V499.48C523.721 511.96 519.935 522.093 512.361 529.88C504.895 537.56 495.028 541.4 482.761 541.4C470.495 541.4 460.628 537.56 453.161 529.88C445.695 522.093 441.961 511.96 441.961 499.48V427H464.521V499.48C464.521 505.453 466.121 510.307 469.321 514.04C472.628 517.773 477.108 519.64 482.761 519.64C488.521 519.64 493.001 517.773 496.201 514.04C499.401 510.307 501.001 505.453 501.001 499.48V427ZM640.238 539V491.32L602.798 456.76V539H580.078V427H602.798L640.238 461.4V427H662.958V539H640.238ZM723.403 539L736.523 499.32L711.243 427H737.003L747.883 465.56L760.683 427H785.643L747.243 539H723.403ZM895.388 539H828.348V518.2H850.588V447.8H828.348V427H895.388V447.8H873.308V518.2H895.388V539Z" fill="#24B2B4"/>
<path d="M763.588 275.8C760.708 278.787 759.268 282.52 759.268 287C759.268 291.48 760.708 295.267 763.588 298.36C766.574 301.347 770.308 302.84 774.788 302.84C779.268 302.84 782.948 301.347 785.828 298.36C788.814 295.267 790.308 291.48 790.308 287C790.308 282.52 788.814 278.787 785.828 275.8C782.948 272.707 779.268 271.16 774.788 271.16C770.308 271.16 766.574 272.707 763.588 275.8ZM732.868 328.92C721.881 317.827 716.388 303.853 716.388 287C716.388 270.147 721.881 256.227 732.868 245.24C743.961 234.147 757.934 228.6 774.788 228.6C791.641 228.6 805.561 234.147 816.548 245.24C827.641 256.227 833.188 270.147 833.188 287C833.188 303.853 827.641 317.827 816.548 328.92C805.561 339.907 791.641 345.4 774.788 345.4C757.934 345.4 743.961 339.907 732.868 328.92ZM749.668 261.08C742.948 268.12 739.588 276.76 739.588 287C739.588 297.24 742.948 305.88 749.668 312.92C756.388 319.96 764.761 323.48 774.788 323.48C784.814 323.48 793.188 319.96 799.908 312.92C806.628 305.88 809.988 297.24 809.988 287C809.988 276.76 806.628 268.12 799.908 261.08C793.188 254.04 784.814 250.52 774.788 250.52C764.761 250.52 756.388 254.04 749.668 261.08Z" fill="#F0972E"/>
<defs>
<filter id="filter0_d_115_16" x="13" y="16" width="1186.25" height="720.878" filterUnits="userSpaceOnUse" color-interpolation-filters="sRGB">
<feFlood flood-opacity="0" result="BackgroundImageFix"/>
<feColorMatrix in="SourceAlpha" type="matrix" values="0 0 0 0 0 0 0 0 0 0 0 0 0 0 0 0 0 0 127 0" result="hardAlpha"/>
<feOffset dy="4"/>
<feGaussianBlur stdDeviation="2"/>
<feComposite in2="hardAlpha" operator="out"/>
<feColorMatrix type="matrix" values="0 0 0 0 0 0 0 0 0 0 0 0 0 0 0 0 0 0 0.25 0"/>
<feBlend mode="normal" in2="BackgroundImageFix" result="effect1_dropShadow_115_16"/>
<feBlend mode="normal" in="SourceGraphic" in2="effect1_dropShadow_115_16" result="shape"/>
</filter>
</defs>
</svg>
