<svg width="172" height="119" viewBox="0 0 172 119" fill="none" xmlns="http://www.w3.org/2000/svg">
<mask id="path-1-outside-1_96_6" maskUnits="userSpaceOnUse" x="117.13" y="13.9141" width="55" height="65" fill="black">
<rect fill="white" x="117.13" y="13.9141" width="55" height="65"/>
<path d="M170.672 54.9536C170.35 53.225 169.747 51.5366 168.903 49.9286C168.983 49.1245 169.024 48.3205 169.024 47.5165C169.024 42.6925 167.818 37.9087 166.893 33.366C166.692 32.2806 166.451 31.557 166.29 30.954C166.21 30.6726 166.169 30.4314 166.129 30.1902C166.089 29.949 166.049 29.748 166.049 29.5068C166.049 29.2254 166.089 28.944 166.129 28.5822C166.21 28.2204 166.29 27.738 166.451 27.1752C166.531 26.8134 166.692 26.3711 166.853 25.8887C167.014 25.4063 167.134 24.8435 167.134 24.2807C167.134 23.9591 167.094 23.5973 166.973 23.2757C166.853 22.9541 166.652 22.6325 166.37 22.3511C166.089 22.0697 165.767 21.8687 165.405 21.7481C165.044 21.6275 164.682 21.5873 164.36 21.5873C163.757 21.5873 163.154 21.7481 162.632 21.9491C162.109 22.1501 161.627 22.3913 161.225 22.6325C159.657 23.5571 158.411 24.6827 157.566 26.0093C156.722 27.336 156.32 28.9038 156.32 30.6324C156.32 31.0344 156.36 31.4364 156.401 31.8786V31.9188L157.205 37.2253C157.164 37.2253 157.084 37.2253 157.004 37.1851C156.762 37.1449 156.441 37.1047 156.119 37.0243L139.999 16.4416C139.597 15.919 139.074 15.5171 138.511 15.2759C137.949 15.0347 137.346 14.9141 136.702 14.9141C135.617 14.9141 134.491 15.2758 133.527 16.0396C132.522 16.8034 131.838 17.8889 131.597 19.0145C131.235 18.5723 130.753 18.2507 130.27 18.0095C129.708 17.7683 129.105 17.6477 128.461 17.6477C127.376 17.6477 126.25 18.0095 125.245 18.7733C123.959 19.7783 123.235 21.2657 123.235 22.7129C123.235 23.5169 123.477 24.3209 123.959 25.0043C123.919 25.0043 123.879 25.0043 123.798 25.0043C122.713 25.0043 121.547 25.3662 120.582 26.13C119.296 27.135 118.572 28.6224 118.572 30.0696C118.572 30.954 118.813 31.7982 119.376 32.5218L123.517 37.8283C123.477 37.8283 123.396 37.8283 123.356 37.8283C122.271 37.8283 121.105 38.2302 120.14 38.9538C118.853 39.9588 118.13 41.4463 118.13 42.8935C118.13 43.7377 118.371 44.6221 118.934 45.3457L129.989 59.3756L138.109 69.8277C139.919 72.1593 142.17 73.9281 144.662 75.1341C147.155 76.3402 149.888 76.9432 152.622 76.9432C156.561 76.9432 160.541 75.697 163.878 73.0839C166.21 71.2749 167.978 69.0237 169.184 66.5313C170.39 64.0389 170.993 61.3052 170.993 58.5716C170.993 58.4108 170.993 58.2902 170.993 58.1696C170.993 58.0088 170.993 57.8882 170.993 57.7274C171.034 56.6822 170.873 55.7978 170.672 54.9536ZM167.818 65.6871C166.732 67.9785 165.084 70.0287 162.953 71.7171C159.898 74.0889 156.24 75.2548 152.662 75.2548C150.17 75.2548 147.677 74.692 145.386 73.6066C143.094 72.5212 141.044 70.9132 139.396 68.7423L131.275 58.2902L120.22 44.2603C119.899 43.8181 119.738 43.3357 119.738 42.7729C119.738 41.8483 120.22 40.8031 121.185 40.0393C121.869 39.5167 122.673 39.2353 123.436 39.2353C123.879 39.2353 124.24 39.3157 124.602 39.4765C124.964 39.6373 125.245 39.8784 125.487 40.1598L136.542 54.1898C136.542 54.23 136.582 54.23 136.582 54.2702L136.622 54.3104C136.662 54.3506 136.702 54.3506 136.702 54.3908C136.702 54.3908 136.702 54.3908 136.743 54.3908C136.783 54.431 136.823 54.431 136.863 54.431C136.903 54.431 136.944 54.4712 136.984 54.4712C137.024 54.4712 137.064 54.4712 137.104 54.4712C137.104 54.4712 137.104 54.4712 137.145 54.4712C137.185 54.4712 137.225 54.4712 137.225 54.4712H137.265C137.305 54.4712 137.305 54.431 137.346 54.431C137.386 54.431 137.386 54.431 137.426 54.3908C137.466 54.3908 137.466 54.3506 137.506 54.3506C137.547 54.3506 137.547 54.3104 137.587 54.3104L137.627 54.2702C137.667 54.23 137.667 54.23 137.707 54.1898C137.707 54.1898 137.707 54.1496 137.748 54.1496C137.788 54.1094 137.788 54.1094 137.788 54.0692C137.788 54.0692 137.788 54.029 137.828 54.029C137.828 53.9888 137.868 53.9888 137.868 53.9486C137.868 53.9084 137.868 53.9084 137.868 53.8682C137.868 53.828 137.868 53.828 137.868 53.7878C137.868 53.7476 137.868 53.7476 137.868 53.7074C137.868 53.7074 137.868 53.6672 137.868 53.627C137.868 53.5868 137.868 53.5868 137.868 53.5466C137.868 53.5064 137.868 53.5064 137.868 53.4662C137.868 53.426 137.868 53.426 137.828 53.3858C137.828 53.3456 137.828 53.3456 137.788 53.3054C137.788 53.2652 137.748 53.2652 137.748 53.225C137.748 53.1848 137.707 53.1848 137.707 53.1446L120.622 31.3158C120.301 30.8736 120.14 30.3912 120.14 29.8284C120.14 28.9038 120.622 27.8585 121.547 27.0947C122.23 26.5721 123.034 26.2907 123.798 26.2907C124.24 26.2907 124.602 26.3712 124.964 26.532C125.326 26.6928 125.607 26.934 125.848 27.2154L142.934 49.0442C143.135 49.2854 143.456 49.3657 143.738 49.3255C143.738 49.3255 143.738 49.3255 143.778 49.3255C143.818 49.3255 143.818 49.3256 143.858 49.2854C143.898 49.2854 143.898 49.2854 143.939 49.2452C143.939 49.2452 143.939 49.2452 143.979 49.2452C144.019 49.2452 144.059 49.2049 144.099 49.1647C144.26 49.0441 144.381 48.8432 144.381 48.6422V48.6019C144.381 48.5617 144.381 48.5215 144.381 48.4813C144.381 48.4412 144.381 48.4411 144.381 48.4009C144.381 48.3607 144.381 48.3607 144.381 48.3205C144.381 48.2803 144.341 48.2402 144.341 48.2402V48.1999C144.3 48.1597 144.3 48.1195 144.26 48.0793L125.366 23.9591C125.044 23.5169 124.884 23.0345 124.884 22.4717C124.884 21.5471 125.366 20.5019 126.331 19.7381C127.014 19.2155 127.818 18.9341 128.582 18.9341C129.024 18.9341 129.426 19.0145 129.748 19.1753C130.11 19.3361 130.391 19.5773 130.632 19.8587L149.526 43.9789C149.727 44.2201 150.049 44.3407 150.33 44.2603C150.411 44.2201 150.531 44.1799 150.612 44.1397C150.853 43.9387 150.933 43.6573 150.893 43.3759V43.3357V43.2955C150.853 43.2151 150.813 43.1347 150.773 43.0543L150.692 42.9337L133.607 21.0647C133.366 20.6627 133.205 20.2205 133.205 19.7381C133.205 18.8135 133.687 17.7683 134.612 17.0045C135.295 16.4417 136.099 16.2005 136.863 16.2005C137.305 16.2005 137.667 16.2808 138.029 16.4416C138.391 16.6024 138.672 16.8437 138.913 17.1251L155.999 38.9538C156.28 39.2754 156.762 39.3559 157.084 39.0745C157.285 38.9137 157.365 38.7126 157.365 38.5116C157.446 38.5116 157.486 38.5116 157.566 38.5116L157.848 40.4815C157.928 40.8835 158.29 41.2051 158.732 41.1247C159.134 41.0443 159.456 40.6825 159.375 40.2403L158.049 31.4364C158.009 31.0746 158.009 30.7128 158.009 30.351C158.009 28.8636 158.37 27.6174 159.054 26.532C159.737 25.4466 160.782 24.4817 162.189 23.6777C162.511 23.4767 162.953 23.2757 163.355 23.1149C163.757 22.9541 164.199 22.8737 164.561 22.8737C164.762 22.8737 164.923 22.9139 165.084 22.9541C165.245 22.9943 165.365 23.0747 165.486 23.1953C165.607 23.3159 165.687 23.4365 165.727 23.5571C165.767 23.6777 165.807 23.8385 165.807 24.0395C165.807 24.3611 165.727 24.8033 165.566 25.2053C165.446 25.6475 165.285 26.0898 165.164 26.532C165.003 27.135 164.883 27.6174 164.802 28.0596C164.722 28.5018 164.682 28.9038 164.682 29.2656C164.682 29.5872 164.722 29.9088 164.762 30.2304C164.843 30.6726 164.963 31.1148 165.084 31.5972C165.205 32.0796 165.365 32.6826 165.526 33.4062C166.451 38.0293 167.617 42.6925 167.617 47.2753C167.617 48.1195 167.576 48.9235 167.496 49.7677C167.496 49.9285 167.496 50.0491 167.576 50.1697C167.617 50.2099 168.139 51.2954 168.622 52.7426C168.863 53.4662 169.104 54.2702 169.305 55.034C169.426 55.5164 169.506 55.9988 169.546 56.4812L169.506 56.4008C169.586 56.9636 169.586 57.5666 169.586 58.1294C169.466 60.9033 168.903 63.3956 167.818 65.6871Z"/>
</mask>
<path d="M170.672 54.9536C170.35 53.225 169.747 51.5366 168.903 49.9286C168.983 49.1245 169.024 48.3205 169.024 47.5165C169.024 42.6925 167.818 37.9087 166.893 33.366C166.692 32.2806 166.451 31.557 166.29 30.954C166.21 30.6726 166.169 30.4314 166.129 30.1902C166.089 29.949 166.049 29.748 166.049 29.5068C166.049 29.2254 166.089 28.944 166.129 28.5822C166.21 28.2204 166.29 27.738 166.451 27.1752C166.531 26.8134 166.692 26.3711 166.853 25.8887C167.014 25.4063 167.134 24.8435 167.134 24.2807C167.134 23.9591 167.094 23.5973 166.973 23.2757C166.853 22.9541 166.652 22.6325 166.37 22.3511C166.089 22.0697 165.767 21.8687 165.405 21.7481C165.044 21.6275 164.682 21.5873 164.36 21.5873C163.757 21.5873 163.154 21.7481 162.632 21.9491C162.109 22.1501 161.627 22.3913 161.225 22.6325C159.657 23.5571 158.411 24.6827 157.566 26.0093C156.722 27.336 156.32 28.9038 156.32 30.6324C156.32 31.0344 156.36 31.4364 156.401 31.8786V31.9188L157.205 37.2253C157.164 37.2253 157.084 37.2253 157.004 37.1851C156.762 37.1449 156.441 37.1047 156.119 37.0243L139.999 16.4416C139.597 15.919 139.074 15.5171 138.511 15.2759C137.949 15.0347 137.346 14.9141 136.702 14.9141C135.617 14.9141 134.491 15.2758 133.527 16.0396C132.522 16.8034 131.838 17.8889 131.597 19.0145C131.235 18.5723 130.753 18.2507 130.27 18.0095C129.708 17.7683 129.105 17.6477 128.461 17.6477C127.376 17.6477 126.25 18.0095 125.245 18.7733C123.959 19.7783 123.235 21.2657 123.235 22.7129C123.235 23.5169 123.477 24.3209 123.959 25.0043C123.919 25.0043 123.879 25.0043 123.798 25.0043C122.713 25.0043 121.547 25.3662 120.582 26.13C119.296 27.135 118.572 28.6224 118.572 30.0696C118.572 30.954 118.813 31.7982 119.376 32.5218L123.517 37.8283C123.477 37.8283 123.396 37.8283 123.356 37.8283C122.271 37.8283 121.105 38.2302 120.14 38.9538C118.853 39.9588 118.13 41.4463 118.13 42.8935C118.13 43.7377 118.371 44.6221 118.934 45.3457L129.989 59.3756L138.109 69.8277C139.919 72.1593 142.17 73.9281 144.662 75.1341C147.155 76.3402 149.888 76.9432 152.622 76.9432C156.561 76.9432 160.541 75.697 163.878 73.0839C166.21 71.2749 167.978 69.0237 169.184 66.5313C170.39 64.0389 170.993 61.3052 170.993 58.5716C170.993 58.4108 170.993 58.2902 170.993 58.1696C170.993 58.0088 170.993 57.8882 170.993 57.7274C171.034 56.6822 170.873 55.7978 170.672 54.9536ZM167.818 65.6871C166.732 67.9785 165.084 70.0287 162.953 71.7171C159.898 74.0889 156.24 75.2548 152.662 75.2548C150.17 75.2548 147.677 74.692 145.386 73.6066C143.094 72.5212 141.044 70.9132 139.396 68.7423L131.275 58.2902L120.22 44.2603C119.899 43.8181 119.738 43.3357 119.738 42.7729C119.738 41.8483 120.22 40.8031 121.185 40.0393C121.869 39.5167 122.673 39.2353 123.436 39.2353C123.879 39.2353 124.24 39.3157 124.602 39.4765C124.964 39.6373 125.245 39.8784 125.487 40.1598L136.542 54.1898C136.542 54.23 136.582 54.23 136.582 54.2702L136.622 54.3104C136.662 54.3506 136.702 54.3506 136.702 54.3908C136.702 54.3908 136.702 54.3908 136.743 54.3908C136.783 54.431 136.823 54.431 136.863 54.431C136.903 54.431 136.944 54.4712 136.984 54.4712C137.024 54.4712 137.064 54.4712 137.104 54.4712C137.104 54.4712 137.104 54.4712 137.145 54.4712C137.185 54.4712 137.225 54.4712 137.225 54.4712H137.265C137.305 54.4712 137.305 54.431 137.346 54.431C137.386 54.431 137.386 54.431 137.426 54.3908C137.466 54.3908 137.466 54.3506 137.506 54.3506C137.547 54.3506 137.547 54.3104 137.587 54.3104L137.627 54.2702C137.667 54.23 137.667 54.23 137.707 54.1898C137.707 54.1898 137.707 54.1496 137.748 54.1496C137.788 54.1094 137.788 54.1094 137.788 54.0692C137.788 54.0692 137.788 54.029 137.828 54.029C137.828 53.9888 137.868 53.9888 137.868 53.9486C137.868 53.9084 137.868 53.9084 137.868 53.8682C137.868 53.828 137.868 53.828 137.868 53.7878C137.868 53.7476 137.868 53.7476 137.868 53.7074C137.868 53.7074 137.868 53.6672 137.868 53.627C137.868 53.5868 137.868 53.5868 137.868 53.5466C137.868 53.5064 137.868 53.5064 137.868 53.4662C137.868 53.426 137.868 53.426 137.828 53.3858C137.828 53.3456 137.828 53.3456 137.788 53.3054C137.788 53.2652 137.748 53.2652 137.748 53.225C137.748 53.1848 137.707 53.1848 137.707 53.1446L120.622 31.3158C120.301 30.8736 120.14 30.3912 120.14 29.8284C120.14 28.9038 120.622 27.8585 121.547 27.0947C122.23 26.5721 123.034 26.2907 123.798 26.2907C124.24 26.2907 124.602 26.3712 124.964 26.532C125.326 26.6928 125.607 26.934 125.848 27.2154L142.934 49.0442C143.135 49.2854 143.456 49.3657 143.738 49.3255C143.738 49.3255 143.738 49.3255 143.778 49.3255C143.818 49.3255 143.818 49.3256 143.858 49.2854C143.898 49.2854 143.898 49.2854 143.939 49.2452C143.939 49.2452 143.939 49.2452 143.979 49.2452C144.019 49.2452 144.059 49.2049 144.099 49.1647C144.26 49.0441 144.381 48.8432 144.381 48.6422V48.6019C144.381 48.5617 144.381 48.5215 144.381 48.4813C144.381 48.4412 144.381 48.4411 144.381 48.4009C144.381 48.3607 144.381 48.3607 144.381 48.3205C144.381 48.2803 144.341 48.2402 144.341 48.2402V48.1999C144.3 48.1597 144.3 48.1195 144.26 48.0793L125.366 23.9591C125.044 23.5169 124.884 23.0345 124.884 22.4717C124.884 21.5471 125.366 20.5019 126.331 19.7381C127.014 19.2155 127.818 18.9341 128.582 18.9341C129.024 18.9341 129.426 19.0145 129.748 19.1753C130.11 19.3361 130.391 19.5773 130.632 19.8587L149.526 43.9789C149.727 44.2201 150.049 44.3407 150.33 44.2603C150.411 44.2201 150.531 44.1799 150.612 44.1397C150.853 43.9387 150.933 43.6573 150.893 43.3759V43.3357V43.2955C150.853 43.2151 150.813 43.1347 150.773 43.0543L150.692 42.9337L133.607 21.0647C133.366 20.6627 133.205 20.2205 133.205 19.7381C133.205 18.8135 133.687 17.7683 134.612 17.0045C135.295 16.4417 136.099 16.2005 136.863 16.2005C137.305 16.2005 137.667 16.2808 138.029 16.4416C138.391 16.6024 138.672 16.8437 138.913 17.1251L155.999 38.9538C156.28 39.2754 156.762 39.3559 157.084 39.0745C157.285 38.9137 157.365 38.7126 157.365 38.5116C157.446 38.5116 157.486 38.5116 157.566 38.5116L157.848 40.4815C157.928 40.8835 158.29 41.2051 158.732 41.1247C159.134 41.0443 159.456 40.6825 159.375 40.2403L158.049 31.4364C158.009 31.0746 158.009 30.7128 158.009 30.351C158.009 28.8636 158.37 27.6174 159.054 26.532C159.737 25.4466 160.782 24.4817 162.189 23.6777C162.511 23.4767 162.953 23.2757 163.355 23.1149C163.757 22.9541 164.199 22.8737 164.561 22.8737C164.762 22.8737 164.923 22.9139 165.084 22.9541C165.245 22.9943 165.365 23.0747 165.486 23.1953C165.607 23.3159 165.687 23.4365 165.727 23.5571C165.767 23.6777 165.807 23.8385 165.807 24.0395C165.807 24.3611 165.727 24.8033 165.566 25.2053C165.446 25.6475 165.285 26.0898 165.164 26.532C165.003 27.135 164.883 27.6174 164.802 28.0596C164.722 28.5018 164.682 28.9038 164.682 29.2656C164.682 29.5872 164.722 29.9088 164.762 30.2304C164.843 30.6726 164.963 31.1148 165.084 31.5972C165.205 32.0796 165.365 32.6826 165.526 33.4062C166.451 38.0293 167.617 42.6925 167.617 47.2753C167.617 48.1195 167.576 48.9235 167.496 49.7677C167.496 49.9285 167.496 50.0491 167.576 50.1697C167.617 50.2099 168.139 51.2954 168.622 52.7426C168.863 53.4662 169.104 54.2702 169.305 55.034C169.426 55.5164 169.506 55.9988 169.546 56.4812L169.506 56.4008C169.586 56.9636 169.586 57.5666 169.586 58.1294C169.466 60.9033 168.903 63.3956 167.818 65.6871Z" fill="#FFA234"/>
<path d="M170.672 54.9536C170.35 53.225 169.747 51.5366 168.903 49.9286C168.983 49.1245 169.024 48.3205 169.024 47.5165C169.024 42.6925 167.818 37.9087 166.893 33.366C166.692 32.2806 166.451 31.557 166.29 30.954C166.21 30.6726 166.169 30.4314 166.129 30.1902C166.089 29.949 166.049 29.748 166.049 29.5068C166.049 29.2254 166.089 28.944 166.129 28.5822C166.21 28.2204 166.29 27.738 166.451 27.1752C166.531 26.8134 166.692 26.3711 166.853 25.8887C167.014 25.4063 167.134 24.8435 167.134 24.2807C167.134 23.9591 167.094 23.5973 166.973 23.2757C166.853 22.9541 166.652 22.6325 166.37 22.3511C166.089 22.0697 165.767 21.8687 165.405 21.7481C165.044 21.6275 164.682 21.5873 164.36 21.5873C163.757 21.5873 163.154 21.7481 162.632 21.9491C162.109 22.1501 161.627 22.3913 161.225 22.6325C159.657 23.5571 158.411 24.6827 157.566 26.0093C156.722 27.336 156.32 28.9038 156.32 30.6324C156.32 31.0344 156.36 31.4364 156.401 31.8786V31.9188L157.205 37.2253C157.164 37.2253 157.084 37.2253 157.004 37.1851C156.762 37.1449 156.441 37.1047 156.119 37.0243L139.999 16.4416C139.597 15.919 139.074 15.5171 138.511 15.2759C137.949 15.0347 137.346 14.9141 136.702 14.9141C135.617 14.9141 134.491 15.2758 133.527 16.0396C132.522 16.8034 131.838 17.8889 131.597 19.0145C131.235 18.5723 130.753 18.2507 130.27 18.0095C129.708 17.7683 129.105 17.6477 128.461 17.6477C127.376 17.6477 126.25 18.0095 125.245 18.7733C123.959 19.7783 123.235 21.2657 123.235 22.7129C123.235 23.5169 123.477 24.3209 123.959 25.0043C123.919 25.0043 123.879 25.0043 123.798 25.0043C122.713 25.0043 121.547 25.3662 120.582 26.13C119.296 27.135 118.572 28.6224 118.572 30.0696C118.572 30.954 118.813 31.7982 119.376 32.5218L123.517 37.8283C123.477 37.8283 123.396 37.8283 123.356 37.8283C122.271 37.8283 121.105 38.2302 120.14 38.9538C118.853 39.9588 118.13 41.4463 118.13 42.8935C118.13 43.7377 118.371 44.6221 118.934 45.3457L129.989 59.3756L138.109 69.8277C139.919 72.1593 142.17 73.9281 144.662 75.1341C147.155 76.3402 149.888 76.9432 152.622 76.9432C156.561 76.9432 160.541 75.697 163.878 73.0839C166.21 71.2749 167.978 69.0237 169.184 66.5313C170.39 64.0389 170.993 61.3052 170.993 58.5716C170.993 58.4108 170.993 58.2902 170.993 58.1696C170.993 58.0088 170.993 57.8882 170.993 57.7274C171.034 56.6822 170.873 55.7978 170.672 54.9536ZM167.818 65.6871C166.732 67.9785 165.084 70.0287 162.953 71.7171C159.898 74.0889 156.24 75.2548 152.662 75.2548C150.17 75.2548 147.677 74.692 145.386 73.6066C143.094 72.5212 141.044 70.9132 139.396 68.7423L131.275 58.2902L120.22 44.2603C119.899 43.8181 119.738 43.3357 119.738 42.7729C119.738 41.8483 120.22 40.8031 121.185 40.0393C121.869 39.5167 122.673 39.2353 123.436 39.2353C123.879 39.2353 124.24 39.3157 124.602 39.4765C124.964 39.6373 125.245 39.8784 125.487 40.1598L136.542 54.1898C136.542 54.23 136.582 54.23 136.582 54.2702L136.622 54.3104C136.662 54.3506 136.702 54.3506 136.702 54.3908C136.702 54.3908 136.702 54.3908 136.743 54.3908C136.783 54.431 136.823 54.431 136.863 54.431C136.903 54.431 136.944 54.4712 136.984 54.4712C137.024 54.4712 137.064 54.4712 137.104 54.4712C137.104 54.4712 137.104 54.4712 137.145 54.4712C137.185 54.4712 137.225 54.4712 137.225 54.4712H137.265C137.305 54.4712 137.305 54.431 137.346 54.431C137.386 54.431 137.386 54.431 137.426 54.3908C137.466 54.3908 137.466 54.3506 137.506 54.3506C137.547 54.3506 137.547 54.3104 137.587 54.3104L137.627 54.2702C137.667 54.23 137.667 54.23 137.707 54.1898C137.707 54.1898 137.707 54.1496 137.748 54.1496C137.788 54.1094 137.788 54.1094 137.788 54.0692C137.788 54.0692 137.788 54.029 137.828 54.029C137.828 53.9888 137.868 53.9888 137.868 53.9486C137.868 53.9084 137.868 53.9084 137.868 53.8682C137.868 53.828 137.868 53.828 137.868 53.7878C137.868 53.7476 137.868 53.7476 137.868 53.7074C137.868 53.7074 137.868 53.6672 137.868 53.627C137.868 53.5868 137.868 53.5868 137.868 53.5466C137.868 53.5064 137.868 53.5064 137.868 53.4662C137.868 53.426 137.868 53.426 137.828 53.3858C137.828 53.3456 137.828 53.3456 137.788 53.3054C137.788 53.2652 137.748 53.2652 137.748 53.225C137.748 53.1848 137.707 53.1848 137.707 53.1446L120.622 31.3158C120.301 30.8736 120.14 30.3912 120.14 29.8284C120.14 28.9038 120.622 27.8585 121.547 27.0947C122.23 26.5721 123.034 26.2907 123.798 26.2907C124.24 26.2907 124.602 26.3712 124.964 26.532C125.326 26.6928 125.607 26.934 125.848 27.2154L142.934 49.0442C143.135 49.2854 143.456 49.3657 143.738 49.3255C143.738 49.3255 143.738 49.3255 143.778 49.3255C143.818 49.3255 143.818 49.3256 143.858 49.2854C143.898 49.2854 143.898 49.2854 143.939 49.2452C143.939 49.2452 143.939 49.2452 143.979 49.2452C144.019 49.2452 144.059 49.2049 144.099 49.1647C144.26 49.0441 144.381 48.8432 144.381 48.6422V48.6019C144.381 48.5617 144.381 48.5215 144.381 48.4813C144.381 48.4412 144.381 48.4411 144.381 48.4009C144.381 48.3607 144.381 48.3607 144.381 48.3205C144.381 48.2803 144.341 48.2402 144.341 48.2402V48.1999C144.3 48.1597 144.3 48.1195 144.26 48.0793L125.366 23.9591C125.044 23.5169 124.884 23.0345 124.884 22.4717C124.884 21.5471 125.366 20.5019 126.331 19.7381C127.014 19.2155 127.818 18.9341 128.582 18.9341C129.024 18.9341 129.426 19.0145 129.748 19.1753C130.11 19.3361 130.391 19.5773 130.632 19.8587L149.526 43.9789C149.727 44.2201 150.049 44.3407 150.33 44.2603C150.411 44.2201 150.531 44.1799 150.612 44.1397C150.853 43.9387 150.933 43.6573 150.893 43.3759V43.3357V43.2955C150.853 43.2151 150.813 43.1347 150.773 43.0543L150.692 42.9337L133.607 21.0647C133.366 20.6627 133.205 20.2205 133.205 19.7381C133.205 18.8135 133.687 17.7683 134.612 17.0045C135.295 16.4417 136.099 16.2005 136.863 16.2005C137.305 16.2005 137.667 16.2808 138.029 16.4416C138.391 16.6024 138.672 16.8437 138.913 17.1251L155.999 38.9538C156.28 39.2754 156.762 39.3559 157.084 39.0745C157.285 38.9137 157.365 38.7126 157.365 38.5116C157.446 38.5116 157.486 38.5116 157.566 38.5116L157.848 40.4815C157.928 40.8835 158.29 41.2051 158.732 41.1247C159.134 41.0443 159.456 40.6825 159.375 40.2403L158.049 31.4364C158.009 31.0746 158.009 30.7128 158.009 30.351C158.009 28.8636 158.37 27.6174 159.054 26.532C159.737 25.4466 160.782 24.4817 162.189 23.6777C162.511 23.4767 162.953 23.2757 163.355 23.1149C163.757 22.9541 164.199 22.8737 164.561 22.8737C164.762 22.8737 164.923 22.9139 165.084 22.9541C165.245 22.9943 165.365 23.0747 165.486 23.1953C165.607 23.3159 165.687 23.4365 165.727 23.5571C165.767 23.6777 165.807 23.8385 165.807 24.0395C165.807 24.3611 165.727 24.8033 165.566 25.2053C165.446 25.6475 165.285 26.0898 165.164 26.532C165.003 27.135 164.883 27.6174 164.802 28.0596C164.722 28.5018 164.682 28.9038 164.682 29.2656C164.682 29.5872 164.722 29.9088 164.762 30.2304C164.843 30.6726 164.963 31.1148 165.084 31.5972C165.205 32.0796 165.365 32.6826 165.526 33.4062C166.451 38.0293 167.617 42.6925 167.617 47.2753C167.617 48.1195 167.576 48.9235 167.496 49.7677C167.496 49.9285 167.496 50.0491 167.576 50.1697C167.617 50.2099 168.139 51.2954 168.622 52.7426C168.863 53.4662 169.104 54.2702 169.305 55.034C169.426 55.5164 169.506 55.9988 169.546 56.4812L169.506 56.4008C169.586 56.9636 169.586 57.5666 169.586 58.1294C169.466 60.9033 168.903 63.3956 167.818 65.6871Z" stroke="#FFA234" stroke-width="2" mask="url(#path-1-outside-1_96_6)"/>
<path d="M136.702 6.59011L136.691 6.59292L136.68 6.59626C136.034 6.78997 135.639 7.43941 135.77 8.09781L135.775 8.12089L135.782 8.14343C135.96 8.73704 136.589 9.25204 137.311 9.04664C137.802 8.93422 138.321 8.86157 138.833 8.86157C139.922 8.86157 141.137 9.12534 142.28 9.65886C143.422 10.1919 144.577 11.0359 145.582 12.1182C147.395 14.0864 148.303 16.4606 148.303 18.5323C148.303 19.1336 148.228 19.69 148.081 20.2039L148.076 20.2234L148.072 20.2432C147.945 20.8786 148.313 21.5847 148.981 21.785C149.663 21.9896 150.379 21.5774 150.571 20.8771C150.787 20.102 150.871 19.3323 150.871 18.5323C150.871 15.7397 149.688 12.8089 147.484 10.3969C146.272 9.05913 144.85 8.05473 143.383 7.38426C141.921 6.71591 140.363 6.33398 138.833 6.33398C138.112 6.33398 137.387 6.4188 136.702 6.59011Z" fill="#FFA234" stroke="#FFA234"/>
<path d="M152.389 5.97393L152.387 5.97259C148.525 1.78203 143.452 -0.5 138.673 -0.5C137.554 -0.5 136.381 -0.376016 135.322 -0.0794786L135.322 -0.0795605L135.313 -0.0769097C134.668 0.116808 134.272 0.766284 134.404 1.42464L134.409 1.44772L134.415 1.47026C134.594 2.06597 135.227 2.58258 135.953 2.37122C136.833 2.1422 137.713 2.02758 138.673 2.02758C142.617 2.02758 147.071 3.96617 150.485 7.69432L150.486 7.69507C153.626 11.1106 155.218 15.2541 155.218 18.8942C155.218 19.9456 155.101 20.9817 154.836 21.8898L154.833 21.8991L154.831 21.9085C154.743 22.26 154.781 22.6156 154.952 22.916C155.123 23.2148 155.406 23.4225 155.741 23.5155C156.421 23.7157 157.133 23.3044 157.325 22.6068C157.663 21.4247 157.786 20.1707 157.786 18.9344C157.786 14.5345 155.92 9.83431 152.389 5.97393Z" fill="#FFA234" stroke="#FFA234"/>
<path d="M110.32 42.2378L110.32 42.2375C109.317 40.5396 108.822 38.6971 108.822 37.0648C108.822 35.8511 109.087 34.7207 109.535 33.7869C109.858 33.1354 109.59 32.4093 109.007 32.0851C108.381 31.7375 107.604 32.0208 107.282 32.6009L107.278 32.6076L107.274 32.6144C106.59 33.9396 106.254 35.4669 106.254 37.0246C106.254 39.1712 106.885 41.4278 108.09 43.5065L108.09 43.5065L108.092 43.51C109.176 45.3433 110.638 46.8517 112.281 47.8623C113.909 48.8644 115.687 49.4641 117.487 49.4641H117.488H117.489H117.489H117.49H117.491H117.492H117.492H117.493H117.494H117.494H117.495H117.496H117.496H117.497H117.498H117.499H117.499H117.5H117.501H117.501H117.502H117.503H117.503H117.504H117.505H117.505H117.506H117.507H117.507H117.508H117.509H117.51H117.51H117.511H117.512H117.512H117.513H117.514H117.514H117.515H117.516H117.516H117.517H117.518H117.518H117.519H117.52H117.52H117.521H117.522H117.522H117.523H117.524H117.524H117.525H117.526H117.526H117.527H117.528H117.528H117.529H117.53H117.53H117.531H117.532H117.532H117.533H117.533H117.534H117.535H117.535H117.536H117.537H117.537H117.538H117.539H117.539H117.54H117.541H117.541H117.542H117.543H117.543H117.544H117.544H117.545H117.546H117.546H117.547H117.548H117.548H117.549H117.55H117.55H117.551H117.552H117.552H117.553H117.553H117.554H117.555H117.555H117.556H117.557H117.557H117.558H117.558H117.559H117.56H117.56H117.561H117.562H117.562H117.563H117.563H117.564H117.565H117.565H117.566H117.567H117.567H117.568H117.568H117.569H117.57H117.57H117.571H117.572H117.572H117.573H117.573H117.574H117.575H117.575H117.576H117.576H117.577H117.578H117.578H117.579H117.58H117.58H117.581H117.581H117.582H117.583H117.583H117.584H117.584H117.585H117.586H117.586H117.587H117.587H117.588H117.589H117.589H117.59H117.591H117.591H117.592H117.592H117.593H117.594H117.594H117.595H117.595H117.596H117.597H117.597H117.598H117.598H117.599H117.6H117.6H117.601H117.601H117.602H117.603H117.603H117.604H117.604H117.605H117.606H117.606H117.607H117.607H117.608H117.609H117.609H117.61H117.61H117.611H117.612H117.612H117.613H117.613H117.614H117.615H117.615H117.616H117.616H117.617H117.617H117.618H117.619H117.619H117.62H117.62H117.621H117.622H117.622H117.623H117.623H117.624H117.625H117.625H117.626H117.626H117.627H117.628H117.628H117.629H117.629H117.63H117.631H117.631H117.632H117.632H117.633H117.633H117.634H117.635H117.635H117.636H117.636H117.637H117.638H117.638H117.639H117.639H117.64H117.641H117.641H117.642H117.642H117.643H117.643H117.644H117.645H117.645H117.646H117.646H117.647H117.648H117.648H117.649H117.649H117.65H117.651H117.651H117.652H117.652H117.653H117.653H117.654H117.655H117.655H117.656H117.656H117.657H117.658H117.658H117.659H117.659H117.66H117.661H117.661H117.662H117.662H117.663H117.664H117.664H117.665H117.665H117.666H117.666H117.667H117.668H117.668H117.669H117.669H117.67H117.671H117.671H117.672H117.672H117.673H117.674H117.674H117.675H117.675H117.676H117.677H117.677H117.678H117.678H117.679H117.679H117.68H117.681H117.681H117.682H117.682H117.683H117.684H117.684H117.685H117.685H117.686H117.687H117.687H117.688H117.688H117.689H117.69H117.69H117.691H117.691H117.692H117.693H117.693H117.694H117.694H117.695H117.696H117.696H117.697H117.697H117.698H117.699H117.699H117.7H117.7H117.701H117.702H117.702H117.703H117.703H117.704H117.705H117.705H117.706H117.706H117.707H117.708H117.708H117.709H117.71H117.71H117.711H117.711H117.712H117.713H117.713H117.714H117.714H117.715H117.716H117.716H117.717H117.717H117.718H117.719H117.719H117.72H117.721H117.721H117.722H117.722H117.723H117.724H117.724H117.725H117.725H117.726H117.727H117.727H117.728H117.729H117.729H117.73H117.73H117.731H117.732H117.732H117.733H117.734H117.734H117.735H117.735H117.736H117.737H117.737H117.738H117.739H117.739H117.74H117.74H117.741H117.742H117.742H117.743H117.744H117.744H117.745H117.746H117.746H117.747H117.747H117.748H117.749H117.749H117.75H117.751H117.751H117.752H117.753H117.753H117.754H117.754H117.755H117.756H117.756H117.757H117.758H117.758H117.759H117.76H117.76H117.761H117.762H117.762H117.763H117.764H117.764H117.765H117.766H117.766H117.767H117.767H117.768H117.769H117.769H117.77H117.771H117.771H117.772H117.773H117.773H117.774H117.775H117.775H117.776H117.777H117.777H117.778H117.779H117.779H117.78H117.781H117.781H117.782H117.783H117.783H117.784H117.785H117.785H117.786H117.787H117.788H117.788H117.789H117.79H117.79H117.791H117.792H117.792H117.793H117.794H117.794H117.795H117.796H117.796H117.797H117.798H117.799H117.799H117.8H117.801H117.801H117.802H117.803H117.803H117.804H117.805H117.805H117.806H117.807H117.808H117.808H117.809C118.547 49.4641 119.085 48.8534 119.032 48.1371C119.019 47.4367 118.404 46.9365 117.769 46.9365H117.768H117.768H117.767H117.767H117.766H117.766H117.765H117.765H117.765H117.764H117.764H117.763H117.763H117.762H117.762H117.761H117.761H117.76H117.76H117.759H117.759H117.758H117.758H117.757H117.757H117.757H117.756H117.756H117.755H117.755H117.754H117.754H117.753H117.753H117.752H117.752H117.751H117.751H117.75H117.75H117.749H117.749H117.749H117.748H117.748H117.747H117.747H117.746H117.746H117.745H117.745H117.744H117.744H117.743H117.743H117.742H117.742H117.741H117.741H117.74H117.74H117.74H117.739H117.739H117.738H117.738H117.737H117.737H117.736H117.736H117.735H117.735H117.734H117.734H117.733H117.733H117.732H117.732H117.732H117.731H117.731H117.73H117.73H117.729H117.729H117.728H117.728H117.727H117.727H117.726H117.726H117.725H117.725H117.724H117.724H117.724H117.723H117.723H117.722H117.722H117.721H117.721H117.72H117.72H117.719H117.719H117.718H117.718H117.717H117.717H117.716H117.716H117.716H117.715H117.715H117.714H117.714H117.713H117.713H117.712H117.712H117.711H117.711H117.71H117.71H117.709H117.709H117.708H117.708H117.708H117.707H117.707H117.706H117.706H117.705H117.705H117.704H117.704H117.703H117.703H117.702H117.702H117.701H117.701H117.7H117.7H117.7H117.699H117.699H117.698H117.698H117.697H117.697H117.696H117.696H117.695H117.695H117.694H117.694H117.693H117.693H117.692H117.692H117.692H117.691H117.691H117.69H117.69H117.689H117.689H117.688H117.688H117.687H117.687H117.686H117.686H117.685H117.685H117.684H117.684H117.683H117.683H117.683H117.682H117.682H117.681H117.681H117.68H117.68H117.679H117.679H117.678H117.678H117.677H117.677H117.676H117.676H117.675H117.675H117.675H117.674H117.674H117.673H117.673H117.672H117.672H117.671H117.671H117.67H117.67H117.669H117.669H117.668H117.668H117.667H117.667H117.667H117.666H117.666H117.665H117.665H117.664H117.664H117.663H117.663H117.662H117.662H117.661H117.661H117.66H117.66H117.659H117.659H117.659H117.658H117.658H117.657H117.657H117.656H117.656H117.655H117.655H117.654H117.654H117.653H117.653H117.652H117.652H117.651H117.651H117.651H117.65H117.65H117.649H117.649H117.648H117.648H117.647H117.647H117.646H117.646H117.645H117.645H117.644H117.644H117.643H117.643H117.643H117.642H117.642H117.641H117.641H117.64H117.64H117.639H117.639H117.638H117.638H117.637H117.637H117.636H117.636H117.635H117.635H117.635H117.634H117.634H117.633H117.633H117.632H117.632H117.631H117.631H117.63H117.63H117.629H117.629H117.628H117.628H117.627H117.627H117.626H117.626H117.626H117.625H117.625H117.624H117.624H117.623H117.623H117.622H117.622H117.621H117.621H117.62H117.62H117.619H117.619H117.618H117.618H117.618H117.617H117.617H117.616H117.616H117.615H117.615H117.614H117.614H117.613H117.613H117.612H117.612H117.611H117.611H117.61H117.61H117.61H117.609H117.609H117.608H117.608H117.607H117.607H117.606H117.606H117.605H117.605H117.604H117.604H117.603H117.603H117.602H117.602H117.602H117.601H117.601H117.6H117.6H117.599H117.599H117.598H117.598H117.597H117.597H117.596H117.596H117.595H117.595H117.594H117.594H117.594H117.593H117.593H117.592H117.592H117.591H117.591H117.59H117.59H117.589H117.589H117.588H117.588H117.587H117.587H117.586H117.586H117.586H117.585H117.585H117.584H117.584H117.583H117.583H117.582H117.582H117.581H117.581H117.58H117.58H117.579H117.579H117.578H117.578H117.578H117.577H117.577H117.576H117.576H117.575H117.575H117.574H117.574H117.573H117.573H117.572H117.572H117.571H117.571H117.57H117.57H117.569H117.569H117.569H117.568H117.568H117.567H117.567H117.566H117.566H117.565H117.565H117.564H117.564H117.563H117.563H117.562H117.562H117.561H117.561H117.561H117.56H117.56H117.559H117.559H117.558H117.558H117.557H117.557H117.556H117.556H117.555H117.555H117.554H117.554H117.553H117.553H117.553H117.552H117.552H117.551H117.551H117.55H117.55H117.549H117.549H117.548H117.548H117.547H117.547H117.546H117.546H117.545H117.545H117.545H117.544H117.544H117.543H117.543H117.542H117.542H117.541H117.541H117.54H117.54H117.539H117.539H117.538H117.538H117.537H117.537H117.537H117.536H117.536H117.535H117.535H117.534H117.534H117.533H117.533H117.532H117.532H117.531H117.531H117.53H117.53H117.529H117.529H117.529H117.528H117.528C116.271 46.9365 114.955 46.5304 113.653 45.7264C112.393 44.9245 111.204 43.7364 110.32 42.2378Z" fill="#FFA234" stroke="#FFA234"/>
<path d="M104.613 45.4964L104.613 45.4964L104.61 45.4907C102.847 42.5523 102.028 39.3849 102.028 36.4616C102.028 34.3235 102.494 32.3505 103.342 30.6552C103.668 30.0026 103.4 29.2742 102.816 28.9493L102.806 28.944L102.796 28.9392C102.144 28.6129 101.415 28.8804 101.091 29.4651L101.085 29.4746L101.08 29.4844C100.038 31.5686 99.5 33.9374 99.5 36.4215C99.5 39.8096 100.45 43.4361 102.466 46.7694C104.233 49.7277 106.538 52.0765 109.139 53.7277L109.141 53.7288C111.7 55.3389 114.565 56.2578 117.367 56.2578H117.367H117.368H117.369H117.37H117.371H117.372H117.373H117.374H117.375H117.376H117.377H117.378H117.379H117.38H117.381H117.382H117.383H117.383H117.384H117.385H117.386H117.387H117.388H117.389H117.39H117.391H117.392H117.393H117.394H117.395H117.396H117.397H117.398H117.399H117.4H117.4H117.401H117.402H117.403H117.404H117.405H117.406H117.407H117.408H117.409H117.41H117.411H117.412H117.413H117.414H117.415H117.416H117.417H117.417H117.418H117.419H117.42H117.421H117.422H117.423H117.424H117.425H117.426H117.427H117.428H117.429H117.43H117.431H117.432H117.433H117.434H117.434H117.435H117.436H117.437H117.438H117.439H117.44H117.441H117.442H117.443H117.444H117.445H117.446H117.447H117.448H117.449H117.45H117.451H117.452H117.452H117.453H117.454H117.455H117.456H117.457H117.458H117.459H117.46H117.461H117.462H117.463H117.464H117.465H117.466H117.467H117.468H117.469H117.47H117.471H117.472H117.472H117.473H117.474H117.475H117.476H117.477H117.478H117.479H117.48H117.481H117.482H117.483H117.484H117.485H117.486H117.487H117.488H117.489H117.49H117.491H117.492H117.493H117.494H117.494H117.495H117.496H117.497H117.498H117.499H117.5H117.501H117.502H117.503H117.504H117.505H117.506H117.507H117.508H117.509H117.51H117.511H117.512H117.513H117.514H117.515H117.516H117.517H117.518H117.519H117.519H117.52H117.521H117.522H117.523H117.524H117.525H117.526H117.527H117.528H117.529H117.53H117.531H117.532H117.533H117.534H117.535H117.536H117.537H117.538H117.539H117.54H117.541H117.542H117.543H117.544H117.545H117.546H117.547H117.548H117.549H117.55H117.551H117.552H117.552H117.553H117.554H117.555H117.556H117.557H117.558H117.559H117.56H117.561H117.562H117.563H117.564H117.565H117.566H117.567H117.568H117.569H117.57H117.571H117.572H117.573H117.574H117.575H117.576H117.577H117.578H117.579H117.58H117.581H117.582H117.583H117.584H117.585H117.586H117.587H117.588H117.589H117.59H117.591H117.592H117.593H117.594H117.595H117.596H117.597H117.598H117.599H117.6H117.601H117.602H117.603H117.604H117.605H117.606H117.607H117.608H117.609H117.61H117.611H117.612H117.613H117.614H117.615H117.616H117.617H117.618H117.619H117.62H117.621H117.622H117.623H117.624H117.625H117.626H117.627H117.628H117.629H117.63H117.631H117.632H117.633H117.634H117.635H117.636H117.637H117.638H117.639H117.64H117.641H117.642H117.643H117.644H117.645H117.646H117.647H117.648H117.649H117.65H117.651H117.652H117.653H117.654H117.655H117.656H117.657H117.658H117.659H117.66H117.661H117.662H117.663H117.664H117.665H117.667H117.668H117.669H117.67H117.671H117.672H117.673H117.674H117.675H117.676H117.677H117.678H117.679H117.68H117.681H117.682H117.683H117.684H117.685H117.686H117.687H117.688H117.689H117.69H117.691H117.692H117.693H117.694H117.696H117.697H117.698H117.699H117.7H117.701H117.702H117.703H117.704H117.705H117.706H117.707H117.708H117.709H117.71H117.711H117.712H117.713H117.714H117.715H117.717H117.718H117.719H117.72H117.721H117.722H117.723H117.724H117.725H117.726H117.727H117.728H117.729H117.73H117.731H117.732H117.734H117.735H117.736H117.737H117.738H117.739H117.74H117.741H117.742H117.743H117.744H117.745H117.746H117.747H117.749H117.75H117.751H117.752H117.753H117.754H117.755H117.756H117.757H117.758H117.759H117.76H117.762H117.763H117.764H117.765H117.766H117.767H117.768H117.769H117.77H117.771H117.772H117.773H117.775H117.776H117.777H117.778H117.779H117.78H117.781H117.782H117.783H117.784H117.786H117.787H117.788H117.789H117.79H117.791H117.792H117.793H117.794H117.796H117.797H117.798H117.799H117.8H117.801H117.802H117.803H117.804H117.806H117.807H117.808H117.809H117.81H117.811H117.812H117.813H117.814H117.816H117.817H117.818H117.819H117.82H117.821H117.822H117.823H117.825H117.826H117.827H117.828H117.829H117.83H117.831H117.833H117.834H117.835H117.836H117.837H117.838H117.839H117.84H117.842H117.843H117.844H117.845H117.846H117.847H117.848H117.85H117.851H117.852H117.853H117.854H117.855H117.857H117.858H117.859H117.86H117.861H117.862H117.863H117.865H117.866H117.867H117.868H117.869H117.87H117.872H117.873H117.874H117.875H117.876H117.877H117.879H117.88H117.881H117.882H117.883H117.884H117.886H117.887H117.888H117.889C118.634 56.2578 119.177 55.6345 119.111 54.9085L119.108 54.8819L119.103 54.8557C118.978 54.2296 118.418 53.7302 117.728 53.7302H117.727H117.726H117.726H117.725H117.724H117.723H117.722H117.721H117.72H117.719H117.718H117.717H117.716H117.715H117.714H117.713H117.712H117.712H117.711H117.71H117.709H117.708H117.707H117.706H117.705H117.704H117.703H117.702H117.701H117.7H117.7H117.699H117.698H117.697H117.696H117.695H117.694H117.693H117.692H117.691H117.69H117.69H117.689H117.688H117.687H117.686H117.685H117.684H117.683H117.682H117.681H117.681H117.68H117.679H117.678H117.677H117.676H117.675H117.674H117.673H117.672H117.672H117.671H117.67H117.669H117.668H117.667H117.666H117.665H117.664H117.664H117.663H117.662H117.661H117.66H117.659H117.658H117.657H117.656H117.656H117.655H117.654H117.653H117.652H117.651H117.65H117.649H117.649H117.648H117.647H117.646H117.645H117.644H117.643H117.642H117.642H117.641H117.64H117.639H117.638H117.637H117.636H117.636H117.635H117.634H117.633H117.632H117.631H117.63H117.629H117.629H117.628H117.627H117.626H117.625H117.624H117.623H117.623H117.622H117.621H117.62H117.619H117.618H117.617H117.617H117.616H117.615H117.614H117.613H117.612H117.611H117.611H117.61H117.609H117.608H117.607H117.606H117.606H117.605H117.604H117.603H117.602H117.601H117.6H117.6H117.599H117.598H117.597H117.596H117.595H117.594H117.594H117.593H117.592H117.591H117.59H117.589H117.589H117.588H117.587H117.586H117.585H117.584H117.584H117.583H117.582H117.581H117.58H117.579H117.579H117.578H117.577H117.576H117.575H117.574H117.574H117.573H117.572H117.571H117.57H117.569H117.568H117.568H117.567H117.566H117.565H117.564H117.563H117.563H117.562H117.561H117.56H117.559H117.559H117.558H117.557H117.556H117.555H117.554H117.554H117.553H117.552H117.551H117.55H117.549H117.549H117.548H117.547H117.546H117.545H117.544H117.544H117.543H117.542H117.541H117.54H117.539H117.539H117.538H117.537H117.536H117.535H117.534H117.534H117.533H117.532H117.531H117.53H117.53H117.529H117.528H117.527H117.526H117.525H117.525H117.524H117.523H117.522H117.521H117.52H117.52H117.519H117.518H117.517H117.516H117.515H117.515H117.514H117.513H117.512H117.511H117.511H117.51H117.509H117.508H117.507H117.506H117.506H117.505H117.504H117.503H117.502H117.501H117.501H117.5H117.499H117.498H117.497H117.497H117.496H117.495H117.494H117.493H117.492H117.492H117.491H117.49H117.489H117.488H117.487H117.487H117.486H117.485H117.484H117.483H117.482H117.482H117.481H117.48H117.479H117.478H117.478H117.477H117.476H117.475H117.474H117.473H117.473H117.472H117.471H117.47H117.469H117.468H117.468H117.467H117.466H117.465H117.464H117.463H117.463H117.462H117.461H117.46H117.459H117.458H117.458H117.457H117.456H117.455H117.454H117.453H117.453H117.452H117.451H117.45H117.449H117.448H117.448H117.447H117.446H117.445H117.444H117.443H117.443H117.442H117.441H117.44H117.439H117.438H117.438H117.437H117.436H117.435H117.434H117.433H117.433H117.432H117.431H117.43H117.429H117.428H117.428H117.427H117.426H117.425H117.424H117.423H117.423H117.422H117.421H117.42H117.419H117.418H117.417H117.417H117.416H117.415H117.414H117.413H117.412H117.412H117.411H117.41H117.409H117.408H117.407H117.406H117.406H117.405H117.404H117.403H117.402H117.401H117.4H117.4H117.399H117.398H117.397H117.396H117.395H117.394H117.394H117.393H117.392H117.391H117.39H117.389H117.388H117.388H117.387H117.386H117.385H117.384H117.383H117.382H117.382H117.381H117.38H117.379H117.378H117.377H117.376H117.375H117.375H117.374H117.373H117.372H117.371H117.37H117.369H117.369H117.368H117.367H117.366H117.365H117.364H117.363H117.362H117.362H117.361H117.36H117.359H117.358H117.357H117.356H117.355H117.354H117.354H117.353H117.352H117.351H117.35H117.349H117.348H117.347H117.347H117.346H117.345H117.344H117.343H117.342H117.341H117.34H117.339H117.338H117.338H117.337H117.336H117.335H117.334H117.333H117.332H117.331H117.33H117.329H117.329H117.328H117.327H117.326H117.325H117.324H117.323H117.322H117.321H117.32H117.319H117.319H117.318H117.317H117.316H117.315H117.314H117.313H117.312H117.311H117.31H117.309H117.309H117.308H117.307H117.306H117.305H117.304H117.303H117.302H117.301H117.3H117.299H117.298H117.297H117.296H117.296H117.295H117.294H117.293H117.292H117.291H117.29H117.289H117.288H117.287H117.286C115.062 53.7302 112.66 53.0003 110.438 51.5964C108.214 50.1918 106.14 48.1197 104.613 45.4964Z" fill="#FFA234" stroke="#FFA234"/>
<mask id="path-6-outside-2_96_6" maskUnits="userSpaceOnUse" x="-0.129883" y="54.9141" width="55" height="65" fill="black">
<rect fill="white" x="-0.129883" y="54.9141" width="55" height="65"/>
<path d="M1.32824 95.9536C1.64984 94.225 2.25285 92.5366 3.09706 90.9286C3.01666 90.1245 2.97649 89.3205 2.97649 88.5165C2.97649 83.6925 4.18247 78.9087 5.10708 74.366C5.30808 73.2806 5.54928 72.557 5.71008 71.954C5.79048 71.6726 5.83069 71.4314 5.87089 71.1902C5.91109 70.949 5.95127 70.748 5.95127 70.5068C5.95127 70.2254 5.91109 69.944 5.87089 69.5822C5.79049 69.2204 5.71007 68.738 5.54927 68.1752C5.46887 67.8134 5.30807 67.3711 5.14727 66.8887C4.98647 66.4063 4.86588 65.8435 4.86588 65.2807C4.86588 64.9591 4.90609 64.5973 5.0267 64.2757C5.1473 63.9541 5.3483 63.6325 5.6297 63.3511C5.9111 63.0697 6.23272 62.8687 6.59452 62.7481C6.95632 62.6275 7.31812 62.5873 7.63972 62.5873C8.24273 62.5873 8.8457 62.7481 9.36831 62.9491C9.89091 63.1501 10.3733 63.3913 10.7753 63.6325C12.3431 64.5571 13.5894 65.6827 14.4336 67.0093C15.2778 68.336 15.6798 69.9038 15.6798 71.6324C15.6798 72.0344 15.6396 72.4364 15.5994 72.8786V72.9188L14.7953 78.2253C14.8356 78.2253 14.916 78.2253 14.9964 78.1851C15.2376 78.1449 15.5592 78.1047 15.8808 78.0243L32.0011 57.4416C32.4031 56.919 32.9257 56.5171 33.4885 56.2759C34.0513 56.0347 34.6543 55.9141 35.2975 55.9141C36.3829 55.9141 37.5086 56.2758 38.4734 57.0396C39.4784 57.8034 40.1618 58.8889 40.403 60.0145C40.7648 59.5723 41.2472 59.2507 41.7296 59.0095C42.2924 58.7683 42.8954 58.6477 43.5386 58.6477C44.624 58.6477 45.7496 59.0095 46.7546 59.7733C48.041 60.7783 48.7646 62.2657 48.7646 63.7129C48.7646 64.5169 48.5235 65.3209 48.0411 66.0043C48.0813 66.0043 48.1215 66.0043 48.2019 66.0043C49.2873 66.0043 50.4531 66.3662 51.4179 67.13C52.7043 68.135 53.4279 69.6224 53.4279 71.0696C53.4279 71.954 53.1867 72.7982 52.6239 73.5218L48.4833 78.8283C48.5235 78.8283 48.6039 78.8283 48.6441 78.8283C49.7295 78.8283 50.8953 79.2302 51.8601 79.9538C53.1465 80.9588 53.8701 82.4463 53.8701 83.8935C53.8701 84.7377 53.6289 85.6221 53.0661 86.3457L42.011 100.376L33.8905 110.828C32.0815 113.159 29.8303 114.928 27.3379 116.134C24.8455 117.34 22.1118 117.943 19.3782 117.943C15.4386 117.943 11.4587 116.697 8.1221 114.084C5.79048 112.275 4.02169 110.024 2.81568 107.531C1.60966 105.039 1.00666 102.305 1.00666 99.5716C1.00666 99.4108 1.00666 99.2902 1.00666 99.1696C1.00666 99.0088 1.00666 98.8882 1.00666 98.7274C0.966461 97.6822 1.12723 96.7978 1.32824 95.9536ZM4.1825 106.687C5.26791 108.978 6.91611 111.029 9.04673 112.717C12.102 115.089 15.7602 116.255 19.338 116.255C21.8304 116.255 24.3228 115.692 26.6143 114.607C28.9057 113.521 30.9559 111.913 32.6041 109.742L40.7246 99.2902L51.7797 85.2603C52.1013 84.8181 52.2621 84.3357 52.2621 83.7729C52.2621 82.8483 51.7797 81.8031 50.8149 81.0393C50.1315 80.5167 49.3274 80.2353 48.5636 80.2353C48.1214 80.2353 47.7597 80.3157 47.3979 80.4765C47.0361 80.6373 46.7546 80.8784 46.5134 81.1598L35.4583 95.1898C35.4583 95.23 35.4181 95.23 35.4181 95.2702L35.378 95.3104C35.3378 95.3506 35.2975 95.3506 35.2975 95.3908C35.2975 95.3908 35.2975 95.3908 35.2573 95.3908C35.2171 95.431 35.177 95.431 35.1368 95.431C35.0966 95.431 35.0563 95.4712 35.0161 95.4712C34.9759 95.4712 34.9357 95.4712 34.8955 95.4712C34.8955 95.4712 34.8955 95.4712 34.8553 95.4712C34.8151 95.4712 34.775 95.4712 34.775 95.4712H34.7348C34.6946 95.4712 34.6945 95.431 34.6543 95.431C34.6141 95.431 34.6142 95.431 34.574 95.3908C34.5338 95.3908 34.5337 95.3506 34.4935 95.3506C34.4533 95.3506 34.4533 95.3104 34.4131 95.3104L34.3729 95.2702C34.3327 95.23 34.3327 95.23 34.2925 95.1898C34.2925 95.1898 34.2925 95.1496 34.2523 95.1496C34.2121 95.1094 34.2121 95.1094 34.2121 95.0692C34.2121 95.0692 34.2121 95.029 34.1719 95.029C34.1719 94.9888 34.1318 94.9888 34.1318 94.9486C34.1318 94.9084 34.1318 94.9084 34.1318 94.8682C34.1318 94.828 34.1318 94.828 34.1318 94.7878C34.1318 94.7476 34.1318 94.7476 34.1318 94.7074C34.1318 94.7074 34.1318 94.6672 34.1318 94.627C34.1318 94.5868 34.1318 94.5868 34.1318 94.5466C34.1318 94.5064 34.1318 94.5064 34.1318 94.4662C34.1318 94.426 34.1317 94.426 34.1719 94.3858C34.1719 94.3456 34.1719 94.3456 34.2121 94.3054C34.2121 94.2652 34.2523 94.2652 34.2523 94.225C34.2523 94.1848 34.2925 94.1848 34.2925 94.1446L51.3777 72.3158C51.6993 71.8736 51.8601 71.3912 51.8601 70.8284C51.8601 69.9038 51.3777 68.8585 50.4531 68.0947C49.7697 67.5721 48.9657 67.2907 48.2019 67.2907C47.7597 67.2907 47.3979 67.3712 47.0361 67.532C46.6743 67.6928 46.3928 67.934 46.1516 68.2154L29.0665 90.0442C28.8655 90.2854 28.5439 90.3657 28.2625 90.3255C28.2625 90.3255 28.2625 90.3255 28.2223 90.3255C28.1821 90.3255 28.1821 90.3256 28.1419 90.2854C28.1017 90.2854 28.1017 90.2854 28.0615 90.2452C28.0615 90.2452 28.0615 90.2452 28.0213 90.2452C27.9811 90.2452 27.9409 90.2049 27.9007 90.1647C27.7399 90.0441 27.6193 89.8432 27.6193 89.6422V89.6019C27.6193 89.5617 27.6193 89.5215 27.6193 89.4813C27.6193 89.4412 27.6193 89.4411 27.6193 89.4009C27.6193 89.3607 27.6193 89.3607 27.6193 89.3205C27.6193 89.2803 27.6595 89.2402 27.6595 89.2402V89.1999C27.6997 89.1597 27.6997 89.1195 27.7399 89.0793L46.6341 64.9591C46.9557 64.5169 47.1164 64.0345 47.1164 63.4717C47.1164 62.5471 46.634 61.5019 45.6692 60.7381C44.9858 60.2155 44.1818 59.9341 43.418 59.9341C42.9758 59.9341 42.5738 60.0145 42.2522 60.1753C41.8904 60.3361 41.609 60.5773 41.3678 60.8587L22.4737 84.9789C22.2727 85.2201 21.9511 85.3407 21.6697 85.2603C21.5892 85.2201 21.4686 85.1799 21.3882 85.1397C21.147 84.9387 21.0666 84.6573 21.1068 84.3759V84.3357V84.2955C21.147 84.2151 21.1872 84.1347 21.2274 84.0543L21.3078 83.9337L38.393 62.0647C38.6342 61.6627 38.795 61.2205 38.795 60.7381C38.795 59.8135 38.3126 58.7683 37.388 58.0045C36.7046 57.4417 35.9006 57.2005 35.1368 57.2005C34.6946 57.2005 34.3327 57.2808 33.9709 57.4416C33.6091 57.6024 33.3277 57.8437 33.0865 58.1251L16.0014 79.9538C15.72 80.2754 15.2376 80.3559 14.916 80.0745C14.715 79.9137 14.6346 79.7126 14.6346 79.5116C14.5542 79.5116 14.514 79.5116 14.4336 79.5116L14.1522 81.4815C14.0718 81.8835 13.71 82.2051 13.2678 82.1247C12.8658 82.0443 12.5442 81.6825 12.6246 81.2403L13.9512 72.4364C13.9914 72.0746 13.9913 71.7128 13.9913 71.351C13.9913 69.8636 13.6296 68.6174 12.9461 67.532C12.2627 66.4466 11.2176 65.4817 9.81055 64.6777C9.48895 64.4767 9.04673 64.2757 8.64473 64.1149C8.24273 63.9541 7.80052 63.8737 7.43872 63.8737C7.23772 63.8737 7.07689 63.9139 6.91609 63.9541C6.75529 63.9943 6.63469 64.0747 6.51409 64.1953C6.39349 64.3159 6.3131 64.4365 6.2729 64.5571C6.2327 64.6777 6.19252 64.8385 6.19252 65.0395C6.19252 65.3611 6.27291 65.8033 6.43371 66.2053C6.55431 66.6475 6.71511 67.0898 6.83571 67.532C6.99651 68.135 7.11712 68.6174 7.19753 69.0596C7.27792 69.5018 7.3181 69.9038 7.3181 70.2656C7.3181 70.5872 7.27792 70.9088 7.23772 71.2304C7.15731 71.6726 7.03669 72.1148 6.91609 72.5972C6.79549 73.0796 6.6347 73.6826 6.4739 74.4062C5.54929 79.0293 4.3835 83.6925 4.3835 88.2753C4.3835 89.1195 4.42367 89.9235 4.50407 90.7677C4.50407 90.9285 4.50409 91.0491 4.42369 91.1697C4.38349 91.2099 3.8609 92.2954 3.37849 93.7426C3.13729 94.4662 2.89606 95.2702 2.69506 96.034C2.57446 96.5164 2.49406 96.9988 2.45387 97.4812L2.49405 97.4008C2.41365 97.9636 2.41367 98.5666 2.41367 99.1294C2.53428 101.903 3.09709 104.396 4.1825 106.687Z"/>
</mask>
<path d="M1.32824 95.9536C1.64984 94.225 2.25285 92.5366 3.09706 90.9286C3.01666 90.1245 2.97649 89.3205 2.97649 88.5165C2.97649 83.6925 4.18247 78.9087 5.10708 74.366C5.30808 73.2806 5.54928 72.557 5.71008 71.954C5.79048 71.6726 5.83069 71.4314 5.87089 71.1902C5.91109 70.949 5.95127 70.748 5.95127 70.5068C5.95127 70.2254 5.91109 69.944 5.87089 69.5822C5.79049 69.2204 5.71007 68.738 5.54927 68.1752C5.46887 67.8134 5.30807 67.3711 5.14727 66.8887C4.98647 66.4063 4.86588 65.8435 4.86588 65.2807C4.86588 64.9591 4.90609 64.5973 5.0267 64.2757C5.1473 63.9541 5.3483 63.6325 5.6297 63.3511C5.9111 63.0697 6.23272 62.8687 6.59452 62.7481C6.95632 62.6275 7.31812 62.5873 7.63972 62.5873C8.24273 62.5873 8.8457 62.7481 9.36831 62.9491C9.89091 63.1501 10.3733 63.3913 10.7753 63.6325C12.3431 64.5571 13.5894 65.6827 14.4336 67.0093C15.2778 68.336 15.6798 69.9038 15.6798 71.6324C15.6798 72.0344 15.6396 72.4364 15.5994 72.8786V72.9188L14.7953 78.2253C14.8356 78.2253 14.916 78.2253 14.9964 78.1851C15.2376 78.1449 15.5592 78.1047 15.8808 78.0243L32.0011 57.4416C32.4031 56.919 32.9257 56.5171 33.4885 56.2759C34.0513 56.0347 34.6543 55.9141 35.2975 55.9141C36.3829 55.9141 37.5086 56.2758 38.4734 57.0396C39.4784 57.8034 40.1618 58.8889 40.403 60.0145C40.7648 59.5723 41.2472 59.2507 41.7296 59.0095C42.2924 58.7683 42.8954 58.6477 43.5386 58.6477C44.624 58.6477 45.7496 59.0095 46.7546 59.7733C48.041 60.7783 48.7646 62.2657 48.7646 63.7129C48.7646 64.5169 48.5235 65.3209 48.0411 66.0043C48.0813 66.0043 48.1215 66.0043 48.2019 66.0043C49.2873 66.0043 50.4531 66.3662 51.4179 67.13C52.7043 68.135 53.4279 69.6224 53.4279 71.0696C53.4279 71.954 53.1867 72.7982 52.6239 73.5218L48.4833 78.8283C48.5235 78.8283 48.6039 78.8283 48.6441 78.8283C49.7295 78.8283 50.8953 79.2302 51.8601 79.9538C53.1465 80.9588 53.8701 82.4463 53.8701 83.8935C53.8701 84.7377 53.6289 85.6221 53.0661 86.3457L42.011 100.376L33.8905 110.828C32.0815 113.159 29.8303 114.928 27.3379 116.134C24.8455 117.34 22.1118 117.943 19.3782 117.943C15.4386 117.943 11.4587 116.697 8.1221 114.084C5.79048 112.275 4.02169 110.024 2.81568 107.531C1.60966 105.039 1.00666 102.305 1.00666 99.5716C1.00666 99.4108 1.00666 99.2902 1.00666 99.1696C1.00666 99.0088 1.00666 98.8882 1.00666 98.7274C0.966461 97.6822 1.12723 96.7978 1.32824 95.9536ZM4.1825 106.687C5.26791 108.978 6.91611 111.029 9.04673 112.717C12.102 115.089 15.7602 116.255 19.338 116.255C21.8304 116.255 24.3228 115.692 26.6143 114.607C28.9057 113.521 30.9559 111.913 32.6041 109.742L40.7246 99.2902L51.7797 85.2603C52.1013 84.8181 52.2621 84.3357 52.2621 83.7729C52.2621 82.8483 51.7797 81.8031 50.8149 81.0393C50.1315 80.5167 49.3274 80.2353 48.5636 80.2353C48.1214 80.2353 47.7597 80.3157 47.3979 80.4765C47.0361 80.6373 46.7546 80.8784 46.5134 81.1598L35.4583 95.1898C35.4583 95.23 35.4181 95.23 35.4181 95.2702L35.378 95.3104C35.3378 95.3506 35.2975 95.3506 35.2975 95.3908C35.2975 95.3908 35.2975 95.3908 35.2573 95.3908C35.2171 95.431 35.177 95.431 35.1368 95.431C35.0966 95.431 35.0563 95.4712 35.0161 95.4712C34.9759 95.4712 34.9357 95.4712 34.8955 95.4712C34.8955 95.4712 34.8955 95.4712 34.8553 95.4712C34.8151 95.4712 34.775 95.4712 34.775 95.4712H34.7348C34.6946 95.4712 34.6945 95.431 34.6543 95.431C34.6141 95.431 34.6142 95.431 34.574 95.3908C34.5338 95.3908 34.5337 95.3506 34.4935 95.3506C34.4533 95.3506 34.4533 95.3104 34.4131 95.3104L34.3729 95.2702C34.3327 95.23 34.3327 95.23 34.2925 95.1898C34.2925 95.1898 34.2925 95.1496 34.2523 95.1496C34.2121 95.1094 34.2121 95.1094 34.2121 95.0692C34.2121 95.0692 34.2121 95.029 34.1719 95.029C34.1719 94.9888 34.1318 94.9888 34.1318 94.9486C34.1318 94.9084 34.1318 94.9084 34.1318 94.8682C34.1318 94.828 34.1318 94.828 34.1318 94.7878C34.1318 94.7476 34.1318 94.7476 34.1318 94.7074C34.1318 94.7074 34.1318 94.6672 34.1318 94.627C34.1318 94.5868 34.1318 94.5868 34.1318 94.5466C34.1318 94.5064 34.1318 94.5064 34.1318 94.4662C34.1318 94.426 34.1317 94.426 34.1719 94.3858C34.1719 94.3456 34.1719 94.3456 34.2121 94.3054C34.2121 94.2652 34.2523 94.2652 34.2523 94.225C34.2523 94.1848 34.2925 94.1848 34.2925 94.1446L51.3777 72.3158C51.6993 71.8736 51.8601 71.3912 51.8601 70.8284C51.8601 69.9038 51.3777 68.8585 50.4531 68.0947C49.7697 67.5721 48.9657 67.2907 48.2019 67.2907C47.7597 67.2907 47.3979 67.3712 47.0361 67.532C46.6743 67.6928 46.3928 67.934 46.1516 68.2154L29.0665 90.0442C28.8655 90.2854 28.5439 90.3657 28.2625 90.3255C28.2625 90.3255 28.2625 90.3255 28.2223 90.3255C28.1821 90.3255 28.1821 90.3256 28.1419 90.2854C28.1017 90.2854 28.1017 90.2854 28.0615 90.2452C28.0615 90.2452 28.0615 90.2452 28.0213 90.2452C27.9811 90.2452 27.9409 90.2049 27.9007 90.1647C27.7399 90.0441 27.6193 89.8432 27.6193 89.6422V89.6019C27.6193 89.5617 27.6193 89.5215 27.6193 89.4813C27.6193 89.4412 27.6193 89.4411 27.6193 89.4009C27.6193 89.3607 27.6193 89.3607 27.6193 89.3205C27.6193 89.2803 27.6595 89.2402 27.6595 89.2402V89.1999C27.6997 89.1597 27.6997 89.1195 27.7399 89.0793L46.6341 64.9591C46.9557 64.5169 47.1164 64.0345 47.1164 63.4717C47.1164 62.5471 46.634 61.5019 45.6692 60.7381C44.9858 60.2155 44.1818 59.9341 43.418 59.9341C42.9758 59.9341 42.5738 60.0145 42.2522 60.1753C41.8904 60.3361 41.609 60.5773 41.3678 60.8587L22.4737 84.9789C22.2727 85.2201 21.9511 85.3407 21.6697 85.2603C21.5892 85.2201 21.4686 85.1799 21.3882 85.1397C21.147 84.9387 21.0666 84.6573 21.1068 84.3759V84.3357V84.2955C21.147 84.2151 21.1872 84.1347 21.2274 84.0543L21.3078 83.9337L38.393 62.0647C38.6342 61.6627 38.795 61.2205 38.795 60.7381C38.795 59.8135 38.3126 58.7683 37.388 58.0045C36.7046 57.4417 35.9006 57.2005 35.1368 57.2005C34.6946 57.2005 34.3327 57.2808 33.9709 57.4416C33.6091 57.6024 33.3277 57.8437 33.0865 58.1251L16.0014 79.9538C15.72 80.2754 15.2376 80.3559 14.916 80.0745C14.715 79.9137 14.6346 79.7126 14.6346 79.5116C14.5542 79.5116 14.514 79.5116 14.4336 79.5116L14.1522 81.4815C14.0718 81.8835 13.71 82.2051 13.2678 82.1247C12.8658 82.0443 12.5442 81.6825 12.6246 81.2403L13.9512 72.4364C13.9914 72.0746 13.9913 71.7128 13.9913 71.351C13.9913 69.8636 13.6296 68.6174 12.9461 67.532C12.2627 66.4466 11.2176 65.4817 9.81055 64.6777C9.48895 64.4767 9.04673 64.2757 8.64473 64.1149C8.24273 63.9541 7.80052 63.8737 7.43872 63.8737C7.23772 63.8737 7.07689 63.9139 6.91609 63.9541C6.75529 63.9943 6.63469 64.0747 6.51409 64.1953C6.39349 64.3159 6.3131 64.4365 6.2729 64.5571C6.2327 64.6777 6.19252 64.8385 6.19252 65.0395C6.19252 65.3611 6.27291 65.8033 6.43371 66.2053C6.55431 66.6475 6.71511 67.0898 6.83571 67.532C6.99651 68.135 7.11712 68.6174 7.19753 69.0596C7.27792 69.5018 7.3181 69.9038 7.3181 70.2656C7.3181 70.5872 7.27792 70.9088 7.23772 71.2304C7.15731 71.6726 7.03669 72.1148 6.91609 72.5972C6.79549 73.0796 6.6347 73.6826 6.4739 74.4062C5.54929 79.0293 4.3835 83.6925 4.3835 88.2753C4.3835 89.1195 4.42367 89.9235 4.50407 90.7677C4.50407 90.9285 4.50409 91.0491 4.42369 91.1697C4.38349 91.2099 3.8609 92.2954 3.37849 93.7426C3.13729 94.4662 2.89606 95.2702 2.69506 96.034C2.57446 96.5164 2.49406 96.9988 2.45387 97.4812L2.49405 97.4008C2.41365 97.9636 2.41367 98.5666 2.41367 99.1294C2.53428 101.903 3.09709 104.396 4.1825 106.687Z" fill="#FFA234"/>
<path d="M1.32824 95.9536C1.64984 94.225 2.25285 92.5366 3.09706 90.9286C3.01666 90.1245 2.97649 89.3205 2.97649 88.5165C2.97649 83.6925 4.18247 78.9087 5.10708 74.366C5.30808 73.2806 5.54928 72.557 5.71008 71.954C5.79048 71.6726 5.83069 71.4314 5.87089 71.1902C5.91109 70.949 5.95127 70.748 5.95127 70.5068C5.95127 70.2254 5.91109 69.944 5.87089 69.5822C5.79049 69.2204 5.71007 68.738 5.54927 68.1752C5.46887 67.8134 5.30807 67.3711 5.14727 66.8887C4.98647 66.4063 4.86588 65.8435 4.86588 65.2807C4.86588 64.9591 4.90609 64.5973 5.0267 64.2757C5.1473 63.9541 5.3483 63.6325 5.6297 63.3511C5.9111 63.0697 6.23272 62.8687 6.59452 62.7481C6.95632 62.6275 7.31812 62.5873 7.63972 62.5873C8.24273 62.5873 8.8457 62.7481 9.36831 62.9491C9.89091 63.1501 10.3733 63.3913 10.7753 63.6325C12.3431 64.5571 13.5894 65.6827 14.4336 67.0093C15.2778 68.336 15.6798 69.9038 15.6798 71.6324C15.6798 72.0344 15.6396 72.4364 15.5994 72.8786V72.9188L14.7953 78.2253C14.8356 78.2253 14.916 78.2253 14.9964 78.1851C15.2376 78.1449 15.5592 78.1047 15.8808 78.0243L32.0011 57.4416C32.4031 56.919 32.9257 56.5171 33.4885 56.2759C34.0513 56.0347 34.6543 55.9141 35.2975 55.9141C36.3829 55.9141 37.5086 56.2758 38.4734 57.0396C39.4784 57.8034 40.1618 58.8889 40.403 60.0145C40.7648 59.5723 41.2472 59.2507 41.7296 59.0095C42.2924 58.7683 42.8954 58.6477 43.5386 58.6477C44.624 58.6477 45.7496 59.0095 46.7546 59.7733C48.041 60.7783 48.7646 62.2657 48.7646 63.7129C48.7646 64.5169 48.5235 65.3209 48.0411 66.0043C48.0813 66.0043 48.1215 66.0043 48.2019 66.0043C49.2873 66.0043 50.4531 66.3662 51.4179 67.13C52.7043 68.135 53.4279 69.6224 53.4279 71.0696C53.4279 71.954 53.1867 72.7982 52.6239 73.5218L48.4833 78.8283C48.5235 78.8283 48.6039 78.8283 48.6441 78.8283C49.7295 78.8283 50.8953 79.2302 51.8601 79.9538C53.1465 80.9588 53.8701 82.4463 53.8701 83.8935C53.8701 84.7377 53.6289 85.6221 53.0661 86.3457L42.011 100.376L33.8905 110.828C32.0815 113.159 29.8303 114.928 27.3379 116.134C24.8455 117.34 22.1118 117.943 19.3782 117.943C15.4386 117.943 11.4587 116.697 8.1221 114.084C5.79048 112.275 4.02169 110.024 2.81568 107.531C1.60966 105.039 1.00666 102.305 1.00666 99.5716C1.00666 99.4108 1.00666 99.2902 1.00666 99.1696C1.00666 99.0088 1.00666 98.8882 1.00666 98.7274C0.966461 97.6822 1.12723 96.7978 1.32824 95.9536ZM4.1825 106.687C5.26791 108.978 6.91611 111.029 9.04673 112.717C12.102 115.089 15.7602 116.255 19.338 116.255C21.8304 116.255 24.3228 115.692 26.6143 114.607C28.9057 113.521 30.9559 111.913 32.6041 109.742L40.7246 99.2902L51.7797 85.2603C52.1013 84.8181 52.2621 84.3357 52.2621 83.7729C52.2621 82.8483 51.7797 81.8031 50.8149 81.0393C50.1315 80.5167 49.3274 80.2353 48.5636 80.2353C48.1214 80.2353 47.7597 80.3157 47.3979 80.4765C47.0361 80.6373 46.7546 80.8784 46.5134 81.1598L35.4583 95.1898C35.4583 95.23 35.4181 95.23 35.4181 95.2702L35.378 95.3104C35.3378 95.3506 35.2975 95.3506 35.2975 95.3908C35.2975 95.3908 35.2975 95.3908 35.2573 95.3908C35.2171 95.431 35.177 95.431 35.1368 95.431C35.0966 95.431 35.0563 95.4712 35.0161 95.4712C34.9759 95.4712 34.9357 95.4712 34.8955 95.4712C34.8955 95.4712 34.8955 95.4712 34.8553 95.4712C34.8151 95.4712 34.775 95.4712 34.775 95.4712H34.7348C34.6946 95.4712 34.6945 95.431 34.6543 95.431C34.6141 95.431 34.6142 95.431 34.574 95.3908C34.5338 95.3908 34.5337 95.3506 34.4935 95.3506C34.4533 95.3506 34.4533 95.3104 34.4131 95.3104L34.3729 95.2702C34.3327 95.23 34.3327 95.23 34.2925 95.1898C34.2925 95.1898 34.2925 95.1496 34.2523 95.1496C34.2121 95.1094 34.2121 95.1094 34.2121 95.0692C34.2121 95.0692 34.2121 95.029 34.1719 95.029C34.1719 94.9888 34.1318 94.9888 34.1318 94.9486C34.1318 94.9084 34.1318 94.9084 34.1318 94.8682C34.1318 94.828 34.1318 94.828 34.1318 94.7878C34.1318 94.7476 34.1318 94.7476 34.1318 94.7074C34.1318 94.7074 34.1318 94.6672 34.1318 94.627C34.1318 94.5868 34.1318 94.5868 34.1318 94.5466C34.1318 94.5064 34.1318 94.5064 34.1318 94.4662C34.1318 94.426 34.1317 94.426 34.1719 94.3858C34.1719 94.3456 34.1719 94.3456 34.2121 94.3054C34.2121 94.2652 34.2523 94.2652 34.2523 94.225C34.2523 94.1848 34.2925 94.1848 34.2925 94.1446L51.3777 72.3158C51.6993 71.8736 51.8601 71.3912 51.8601 70.8284C51.8601 69.9038 51.3777 68.8585 50.4531 68.0947C49.7697 67.5721 48.9657 67.2907 48.2019 67.2907C47.7597 67.2907 47.3979 67.3712 47.0361 67.532C46.6743 67.6928 46.3928 67.934 46.1516 68.2154L29.0665 90.0442C28.8655 90.2854 28.5439 90.3657 28.2625 90.3255C28.2625 90.3255 28.2625 90.3255 28.2223 90.3255C28.1821 90.3255 28.1821 90.3256 28.1419 90.2854C28.1017 90.2854 28.1017 90.2854 28.0615 90.2452C28.0615 90.2452 28.0615 90.2452 28.0213 90.2452C27.9811 90.2452 27.9409 90.2049 27.9007 90.1647C27.7399 90.0441 27.6193 89.8432 27.6193 89.6422V89.6019C27.6193 89.5617 27.6193 89.5215 27.6193 89.4813C27.6193 89.4412 27.6193 89.4411 27.6193 89.4009C27.6193 89.3607 27.6193 89.3607 27.6193 89.3205C27.6193 89.2803 27.6595 89.2402 27.6595 89.2402V89.1999C27.6997 89.1597 27.6997 89.1195 27.7399 89.0793L46.6341 64.9591C46.9557 64.5169 47.1164 64.0345 47.1164 63.4717C47.1164 62.5471 46.634 61.5019 45.6692 60.7381C44.9858 60.2155 44.1818 59.9341 43.418 59.9341C42.9758 59.9341 42.5738 60.0145 42.2522 60.1753C41.8904 60.3361 41.609 60.5773 41.3678 60.8587L22.4737 84.9789C22.2727 85.2201 21.9511 85.3407 21.6697 85.2603C21.5892 85.2201 21.4686 85.1799 21.3882 85.1397C21.147 84.9387 21.0666 84.6573 21.1068 84.3759V84.3357V84.2955C21.147 84.2151 21.1872 84.1347 21.2274 84.0543L21.3078 83.9337L38.393 62.0647C38.6342 61.6627 38.795 61.2205 38.795 60.7381C38.795 59.8135 38.3126 58.7683 37.388 58.0045C36.7046 57.4417 35.9006 57.2005 35.1368 57.2005C34.6946 57.2005 34.3327 57.2808 33.9709 57.4416C33.6091 57.6024 33.3277 57.8437 33.0865 58.1251L16.0014 79.9538C15.72 80.2754 15.2376 80.3559 14.916 80.0745C14.715 79.9137 14.6346 79.7126 14.6346 79.5116C14.5542 79.5116 14.514 79.5116 14.4336 79.5116L14.1522 81.4815C14.0718 81.8835 13.71 82.2051 13.2678 82.1247C12.8658 82.0443 12.5442 81.6825 12.6246 81.2403L13.9512 72.4364C13.9914 72.0746 13.9913 71.7128 13.9913 71.351C13.9913 69.8636 13.6296 68.6174 12.9461 67.532C12.2627 66.4466 11.2176 65.4817 9.81055 64.6777C9.48895 64.4767 9.04673 64.2757 8.64473 64.1149C8.24273 63.9541 7.80052 63.8737 7.43872 63.8737C7.23772 63.8737 7.07689 63.9139 6.91609 63.9541C6.75529 63.9943 6.63469 64.0747 6.51409 64.1953C6.39349 64.3159 6.3131 64.4365 6.2729 64.5571C6.2327 64.6777 6.19252 64.8385 6.19252 65.0395C6.19252 65.3611 6.27291 65.8033 6.43371 66.2053C6.55431 66.6475 6.71511 67.0898 6.83571 67.532C6.99651 68.135 7.11712 68.6174 7.19753 69.0596C7.27792 69.5018 7.3181 69.9038 7.3181 70.2656C7.3181 70.5872 7.27792 70.9088 7.23772 71.2304C7.15731 71.6726 7.03669 72.1148 6.91609 72.5972C6.79549 73.0796 6.6347 73.6826 6.4739 74.4062C5.54929 79.0293 4.3835 83.6925 4.3835 88.2753C4.3835 89.1195 4.42367 89.9235 4.50407 90.7677C4.50407 90.9285 4.50409 91.0491 4.42369 91.1697C4.38349 91.2099 3.8609 92.2954 3.37849 93.7426C3.13729 94.4662 2.89606 95.2702 2.69506 96.034C2.57446 96.5164 2.49406 96.9988 2.45387 97.4812L2.49405 97.4008C2.41365 97.9636 2.41367 98.5666 2.41367 99.1294C2.53428 101.903 3.09709 104.396 4.1825 106.687Z" stroke="#FFA234" stroke-width="2" mask="url(#path-6-outside-2_96_6)"/>
<path d="M35.2979 47.5901L35.3092 47.5929L35.3203 47.5963C35.966 47.79 36.3614 48.4394 36.2298 49.0978L36.2252 49.1209L36.2184 49.1434C36.0403 49.737 35.4112 50.252 34.6888 50.0466C34.198 49.9342 33.6785 49.8616 33.1666 49.8616C32.0776 49.8616 30.8631 50.1253 29.7199 50.6589C28.5776 51.1919 27.4233 52.0359 26.4181 53.1182C24.6046 55.0864 23.6969 57.4606 23.6969 59.5323C23.6969 60.1336 23.772 60.69 23.9189 61.2039L23.9245 61.2234L23.9284 61.2432C24.0555 61.8786 23.6868 62.5847 23.019 62.785C22.3371 62.9896 21.6211 62.5774 21.4288 61.8771C21.2135 61.102 21.1291 60.3323 21.1291 59.5323C21.1291 56.7397 22.3118 53.8089 24.5156 51.3969C25.7281 50.0591 27.1504 49.0547 28.6171 48.3843C30.0791 47.7159 31.6372 47.334 33.1666 47.334C33.8884 47.334 34.6127 47.4188 35.2979 47.5901Z" fill="#FFA234" stroke="#FFA234"/>
<path d="M19.6114 46.9739L19.6127 46.9726C23.4746 42.782 28.5479 40.5 33.3269 40.5C34.4459 40.5 35.6187 40.624 36.6777 40.9205L36.6778 40.9204L36.6866 40.9231C37.3323 41.1168 37.7276 41.7663 37.596 42.4246L37.5914 42.4477L37.5846 42.4703C37.4059 43.066 36.773 43.5826 36.0473 43.3712C35.1668 43.1422 34.287 43.0276 33.3269 43.0276C29.3828 43.0276 24.9291 44.9662 21.5149 48.6943L21.5142 48.6951C18.3735 52.1106 16.7819 56.2541 16.7819 59.8942C16.7819 60.9456 16.8991 61.9817 17.1639 62.8898L17.1667 62.8991L17.169 62.9085C17.2569 63.26 17.2193 63.6156 17.0477 63.916C16.877 64.2148 16.5941 64.4225 16.2586 64.5155C15.5789 64.7157 14.867 64.3044 14.6748 63.6068C14.3374 62.4247 14.2141 61.1707 14.2141 59.9344C14.2141 55.5345 16.0796 50.8343 19.6114 46.9739Z" fill="#FFA234" stroke="#FFA234"/>
<path d="M61.6798 83.2378L61.68 83.2375C62.6833 81.5396 63.1783 79.6971 63.1783 78.0648C63.1783 76.8511 62.9128 75.7207 62.4653 74.7869C62.1421 74.1354 62.4097 73.4093 62.9933 73.0851C63.6189 72.7375 64.3961 73.0208 64.7184 73.6009L64.7221 73.6076L64.7256 73.6144C65.4096 74.9396 65.7461 76.4669 65.7461 78.0246C65.7461 80.1712 65.1155 82.4278 63.9098 84.5065L63.9098 84.5065L63.9078 84.51C62.8245 86.3433 61.3617 87.8517 59.7193 88.8623C58.091 89.8644 56.3129 90.4641 54.5126 90.4641H54.5119H54.5112H54.5105H54.5098H54.5091H54.5084H54.5077H54.507H54.5063H54.5056H54.5049H54.5042H54.5035H54.5028H54.5021H54.5014H54.5007H54.5H54.4994H54.4987H54.498H54.4973H54.4966H54.4959H54.4952H54.4945H54.4939H54.4932H54.4925H54.4918H54.4911H54.4905H54.4898H54.4891H54.4884H54.4878H54.4871H54.4864H54.4857H54.4851H54.4844H54.4837H54.483H54.4824H54.4817H54.481H54.4804H54.4797H54.479H54.4784H54.4777H54.477H54.4764H54.4757H54.475H54.4744H54.4737H54.4731H54.4724H54.4717H54.4711H54.4704H54.4698H54.4691H54.4685H54.4678H54.4672H54.4665H54.4659H54.4652H54.4646H54.4639H54.4633H54.4626H54.462H54.4613H54.4607H54.46H54.4594H54.4587H54.4581H54.4574H54.4568H54.4562H54.4555H54.4549H54.4542H54.4536H54.453H54.4523H54.4517H54.451H54.4504H54.4498H54.4491H54.4485H54.4479H54.4472H54.4466H54.446H54.4453H54.4447H54.4441H54.4434H54.4428H54.4422H54.4415H54.4409H54.4403H54.4397H54.439H54.4384H54.4378H54.4372H54.4365H54.4359H54.4353H54.4347H54.434H54.4334H54.4328H54.4322H54.4315H54.4309H54.4303H54.4297H54.4291H54.4284H54.4278H54.4272H54.4266H54.426H54.4254H54.4247H54.4241H54.4235H54.4229H54.4223H54.4217H54.4211H54.4204H54.4198H54.4192H54.4186H54.418H54.4174H54.4168H54.4162H54.4156H54.415H54.4143H54.4137H54.4131H54.4125H54.4119H54.4113H54.4107H54.4101H54.4095H54.4089H54.4083H54.4077H54.4071H54.4065H54.4059H54.4053H54.4046H54.404H54.4034H54.4028H54.4022H54.4016H54.401H54.4004H54.3998H54.3992H54.3986H54.398H54.3974H54.3968H54.3962H54.3956H54.395H54.3944H54.3938H54.3932H54.3926H54.392H54.3914H54.3909H54.3903H54.3897H54.3891H54.3885H54.3879H54.3873H54.3867H54.3861H54.3855H54.3849H54.3843H54.3837H54.3831H54.3825H54.3819H54.3813H54.3807H54.3801H54.3796H54.379H54.3784H54.3778H54.3772H54.3766H54.376H54.3754H54.3748H54.3742H54.3736H54.373H54.3724H54.3719H54.3713H54.3707H54.3701H54.3695H54.3689H54.3683H54.3677H54.3671H54.3665H54.366H54.3654H54.3648H54.3642H54.3636H54.363H54.3624H54.3618H54.3612H54.3606H54.3601H54.3595H54.3589H54.3583H54.3577H54.3571H54.3565H54.3559H54.3553H54.3548H54.3542H54.3536H54.353H54.3524H54.3518H54.3512H54.3506H54.35H54.3495H54.3489H54.3483H54.3477H54.3471H54.3465H54.3459H54.3453H54.3447H54.3442H54.3436H54.343H54.3424H54.3418H54.3412H54.3406H54.34H54.3394H54.3388H54.3383H54.3377H54.3371H54.3365H54.3359H54.3353H54.3347H54.3341H54.3335H54.3329H54.3324H54.3318H54.3312H54.3306H54.33H54.3294H54.3288H54.3282H54.3276H54.327H54.3264H54.3258H54.3253H54.3247H54.3241H54.3235H54.3229H54.3223H54.3217H54.3211H54.3205H54.3199H54.3193H54.3187H54.3181H54.3175H54.3169H54.3163H54.3158H54.3152H54.3146H54.314H54.3134H54.3128H54.3122H54.3116H54.311H54.3104H54.3098H54.3092H54.3086H54.308H54.3074H54.3068H54.3062H54.3056H54.305H54.3044H54.3038H54.3032H54.3026H54.302H54.3014H54.3008H54.3002H54.2996H54.299H54.2984H54.2978H54.2972H54.2966H54.296H54.2953H54.2947H54.2941H54.2935H54.2929H54.2923H54.2917H54.2911H54.2905H54.2899H54.2893H54.2887H54.2881H54.2875H54.2868H54.2862H54.2856H54.285H54.2844H54.2838H54.2832H54.2826H54.2819H54.2813H54.2807H54.2801H54.2795H54.2789H54.2783H54.2776H54.277H54.2764H54.2758H54.2752H54.2746H54.2739H54.2733H54.2727H54.2721H54.2715H54.2708H54.2702H54.2696H54.269H54.2683H54.2677H54.2671H54.2665H54.2658H54.2652H54.2646H54.264H54.2633H54.2627H54.2621H54.2614H54.2608H54.2602H54.2596H54.2589H54.2583H54.2577H54.257H54.2564H54.2558H54.2551H54.2545H54.2539H54.2532H54.2526H54.2519H54.2513H54.2507H54.25H54.2494H54.2488H54.2481H54.2475H54.2468H54.2462H54.2455H54.2449H54.2442H54.2436H54.243H54.2423H54.2417H54.241H54.2404H54.2397H54.2391H54.2384H54.2378H54.2371H54.2365H54.2358H54.2352H54.2345H54.2338H54.2332H54.2325H54.2319H54.2312H54.2306H54.2299H54.2292H54.2286H54.2279H54.2272H54.2266H54.2259H54.2253H54.2246H54.2239H54.2233H54.2226H54.2219H54.2213H54.2206H54.2199H54.2192H54.2186H54.2179H54.2172H54.2165H54.2159H54.2152H54.2145H54.2138H54.2132H54.2125H54.2118H54.2111H54.2104H54.2098H54.2091H54.2084H54.2077H54.207H54.2063H54.2056H54.205H54.2043H54.2036H54.2029H54.2022H54.2015H54.2008H54.2001H54.1994H54.1987H54.198H54.1973H54.1966H54.1959H54.1952H54.1945H54.1938H54.1931H54.1924H54.1917H54.191C53.4534 90.4641 52.9146 89.8534 52.9676 89.1371C52.9808 88.4367 53.5956 87.9365 54.2312 87.9365H54.2317H54.2322H54.2327H54.2331H54.2336H54.2341H54.2345H54.235H54.2355H54.2359H54.2364H54.2369H54.2374H54.2378H54.2383H54.2388H54.2392H54.2397H54.2402H54.2407H54.2411H54.2416H54.2421H54.2425H54.243H54.2435H54.244H54.2444H54.2449H54.2454H54.2458H54.2463H54.2468H54.2473H54.2477H54.2482H54.2487H54.2491H54.2496H54.2501H54.2506H54.251H54.2515H54.252H54.2524H54.2529H54.2534H54.2539H54.2543H54.2548H54.2553H54.2557H54.2562H54.2567H54.2571H54.2576H54.2581H54.2586H54.259H54.2595H54.26H54.2604H54.2609H54.2614H54.2619H54.2623H54.2628H54.2633H54.2637H54.2642H54.2647H54.2652H54.2656H54.2661H54.2666H54.267H54.2675H54.268H54.2685H54.2689H54.2694H54.2699H54.2703H54.2708H54.2713H54.2718H54.2722H54.2727H54.2732H54.2736H54.2741H54.2746H54.2751H54.2755H54.276H54.2765H54.2769H54.2774H54.2779H54.2783H54.2788H54.2793H54.2798H54.2802H54.2807H54.2812H54.2816H54.2821H54.2826H54.2831H54.2835H54.284H54.2845H54.2849H54.2854H54.2859H54.2864H54.2868H54.2873H54.2878H54.2882H54.2887H54.2892H54.2897H54.2901H54.2906H54.2911H54.2915H54.292H54.2925H54.293H54.2934H54.2939H54.2944H54.2948H54.2953H54.2958H54.2962H54.2967H54.2972H54.2977H54.2981H54.2986H54.2991H54.2995H54.3H54.3005H54.301H54.3014H54.3019H54.3024H54.3028H54.3033H54.3038H54.3043H54.3047H54.3052H54.3057H54.3061H54.3066H54.3071H54.3076H54.308H54.3085H54.309H54.3094H54.3099H54.3104H54.3109H54.3113H54.3118H54.3123H54.3127H54.3132H54.3137H54.3141H54.3146H54.3151H54.3156H54.316H54.3165H54.317H54.3174H54.3179H54.3184H54.3189H54.3193H54.3198H54.3203H54.3207H54.3212H54.3217H54.3222H54.3226H54.3231H54.3236H54.324H54.3245H54.325H54.3255H54.3259H54.3264H54.3269H54.3273H54.3278H54.3283H54.3288H54.3292H54.3297H54.3302H54.3306H54.3311H54.3316H54.3321H54.3325H54.333H54.3335H54.3339H54.3344H54.3349H54.3353H54.3358H54.3363H54.3368H54.3372H54.3377H54.3382H54.3386H54.3391H54.3396H54.3401H54.3405H54.341H54.3415H54.3419H54.3424H54.3429H54.3434H54.3438H54.3443H54.3448H54.3452H54.3457H54.3462H54.3467H54.3471H54.3476H54.3481H54.3485H54.349H54.3495H54.35H54.3504H54.3509H54.3514H54.3518H54.3523H54.3528H54.3532H54.3537H54.3542H54.3547H54.3551H54.3556H54.3561H54.3565H54.357H54.3575H54.358H54.3584H54.3589H54.3594H54.3598H54.3603H54.3608H54.3613H54.3617H54.3622H54.3627H54.3631H54.3636H54.3641H54.3646H54.365H54.3655H54.366H54.3664H54.3669H54.3674H54.3679H54.3683H54.3688H54.3693H54.3697H54.3702H54.3707H54.3711H54.3716H54.3721H54.3726H54.373H54.3735H54.374H54.3744H54.3749H54.3754H54.3759H54.3763H54.3768H54.3773H54.3777H54.3782H54.3787H54.3792H54.3796H54.3801H54.3806H54.381H54.3815H54.382H54.3825H54.3829H54.3834H54.3839H54.3843H54.3848H54.3853H54.3858H54.3862H54.3867H54.3872H54.3876H54.3881H54.3886H54.389H54.3895H54.39H54.3905H54.3909H54.3914H54.3919H54.3923H54.3928H54.3933H54.3938H54.3942H54.3947H54.3952H54.3956H54.3961H54.3966H54.3971H54.3975H54.398H54.3985H54.3989H54.3994H54.3999H54.4004H54.4008H54.4013H54.4018H54.4022H54.4027H54.4032H54.4037H54.4041H54.4046H54.4051H54.4055H54.406H54.4065H54.407H54.4074H54.4079H54.4084H54.4088H54.4093H54.4098H54.4102H54.4107H54.4112H54.4117H54.4121H54.4126H54.4131H54.4135H54.414H54.4145H54.415H54.4154H54.4159H54.4164H54.4168H54.4173H54.4178H54.4183H54.4187H54.4192H54.4197H54.4201H54.4206H54.4211H54.4216H54.422H54.4225H54.423H54.4234H54.4239H54.4244H54.4249H54.4253H54.4258H54.4263H54.4267H54.4272H54.4277H54.4281H54.4286H54.4291H54.4296H54.43H54.4305H54.431H54.4314H54.4319H54.4324H54.4329H54.4333H54.4338H54.4343H54.4347H54.4352H54.4357H54.4362H54.4366H54.4371H54.4376H54.438H54.4385H54.439H54.4395H54.4399H54.4404H54.4409H54.4413H54.4418H54.4423H54.4428H54.4432H54.4437H54.4442H54.4446H54.4451H54.4456H54.446H54.4465H54.447H54.4475H54.4479H54.4484H54.4489H54.4493H54.4498H54.4503H54.4508H54.4512H54.4517H54.4522H54.4526H54.4531H54.4536H54.4541H54.4545H54.455H54.4555H54.4559H54.4564H54.4569H54.4574H54.4578H54.4583H54.4588H54.4592H54.4597H54.4602H54.4607H54.4611H54.4616H54.4621H54.4625H54.463H54.4635H54.464H54.4644H54.4649H54.4654H54.4658H54.4663H54.4668H54.4672H54.4677H54.4682H54.4687H54.4691H54.4696H54.4701H54.4705H54.471H54.4715H54.472H54.4724C55.7287 87.9365 57.0449 87.5304 58.3474 86.7264C59.6066 85.9245 60.7961 84.7364 61.6798 83.2378Z" fill="#FFA234" stroke="#FFA234"/>
<path d="M67.387 86.4964L67.387 86.4964L67.3904 86.4907C69.1534 83.5523 69.9724 80.3849 69.9724 77.4616C69.9724 75.3235 69.506 73.3505 68.6584 71.6552C68.3321 71.0026 68.5996 70.2742 69.1843 69.9493L69.1938 69.944L69.2036 69.9392C69.8561 69.6129 70.5846 69.8804 70.9094 70.4651L70.9147 70.4746L70.9196 70.4844C71.9617 72.5686 72.5 74.9374 72.5 77.4215C72.5 80.8096 71.5502 84.4361 69.5341 87.7694C67.7671 90.7277 65.4618 93.0765 62.8611 94.7277L62.8593 94.7288C60.2997 96.3389 57.4349 97.2578 54.6335 97.2578H54.6325H54.6316H54.6306H54.6297H54.6288H54.6278H54.6269H54.6259H54.625H54.624H54.6231H54.6222H54.6212H54.6203H54.6193H54.6184H54.6175H54.6165H54.6156H54.6146H54.6137H54.6127H54.6118H54.6109H54.6099H54.609H54.608H54.6071H54.6061H54.6052H54.6043H54.6033H54.6024H54.6014H54.6005H54.5995H54.5986H54.5977H54.5967H54.5958H54.5948H54.5939H54.5929H54.592H54.591H54.5901H54.5892H54.5882H54.5873H54.5863H54.5854H54.5844H54.5835H54.5825H54.5816H54.5807H54.5797H54.5788H54.5778H54.5769H54.5759H54.575H54.574H54.5731H54.5721H54.5712H54.5703H54.5693H54.5684H54.5674H54.5665H54.5655H54.5646H54.5636H54.5627H54.5617H54.5608H54.5598H54.5589H54.5579H54.557H54.556H54.5551H54.5541H54.5532H54.5522H54.5513H54.5504H54.5494H54.5485H54.5475H54.5466H54.5456H54.5447H54.5437H54.5428H54.5418H54.5409H54.5399H54.5389H54.538H54.537H54.5361H54.5351H54.5342H54.5332H54.5323H54.5313H54.5304H54.5294H54.5285H54.5275H54.5266H54.5256H54.5247H54.5237H54.5228H54.5218H54.5208H54.5199H54.5189H54.518H54.517H54.5161H54.5151H54.5142H54.5132H54.5122H54.5113H54.5103H54.5094H54.5084H54.5075H54.5065H54.5055H54.5046H54.5036H54.5027H54.5017H54.5007H54.4998H54.4988H54.4979H54.4969H54.4959H54.495H54.494H54.4931H54.4921H54.4911H54.4902H54.4892H54.4882H54.4873H54.4863H54.4853H54.4844H54.4834H54.4825H54.4815H54.4805H54.4796H54.4786H54.4776H54.4767H54.4757H54.4747H54.4738H54.4728H54.4718H54.4709H54.4699H54.4689H54.4679H54.467H54.466H54.465H54.4641H54.4631H54.4621H54.4612H54.4602H54.4592H54.4582H54.4573H54.4563H54.4553H54.4543H54.4534H54.4524H54.4514H54.4504H54.4495H54.4485H54.4475H54.4465H54.4456H54.4446H54.4436H54.4426H54.4417H54.4407H54.4397H54.4387H54.4377H54.4368H54.4358H54.4348H54.4338H54.4328H54.4318H54.4309H54.4299H54.4289H54.4279H54.4269H54.4259H54.425H54.424H54.423H54.422H54.421H54.42H54.419H54.4181H54.4171H54.4161H54.4151H54.4141H54.4131H54.4121H54.4111H54.4101H54.4092H54.4082H54.4072H54.4062H54.4052H54.4042H54.4032H54.4022H54.4012H54.4002H54.3992H54.3982H54.3972H54.3962H54.3952H54.3942H54.3932H54.3922H54.3912H54.3902H54.3892H54.3882H54.3872H54.3862H54.3852H54.3842H54.3832H54.3822H54.3812H54.3802H54.3792H54.3782H54.3772H54.3762H54.3752H54.3742H54.3732H54.3722H54.3712H54.3701H54.3691H54.3681H54.3671H54.3661H54.3651H54.3641H54.3631H54.3621H54.361H54.36H54.359H54.358H54.357H54.356H54.355H54.3539H54.3529H54.3519H54.3509H54.3499H54.3488H54.3478H54.3468H54.3458H54.3448H54.3437H54.3427H54.3417H54.3407H54.3396H54.3386H54.3376H54.3366H54.3355H54.3345H54.3335H54.3325H54.3314H54.3304H54.3294H54.3283H54.3273H54.3263H54.3252H54.3242H54.3232H54.3221H54.3211H54.3201H54.319H54.318H54.317H54.3159H54.3149H54.3138H54.3128H54.3118H54.3107H54.3097H54.3086H54.3076H54.3066H54.3055H54.3045H54.3034H54.3024H54.3013H54.3003H54.2992H54.2982H54.2971H54.2961H54.2951H54.294H54.2929H54.2919H54.2908H54.2898H54.2887H54.2877H54.2866H54.2856H54.2845H54.2835H54.2824H54.2813H54.2803H54.2792H54.2782H54.2771H54.2761H54.275H54.2739H54.2729H54.2718H54.2707H54.2697H54.2686H54.2675H54.2665H54.2654H54.2643H54.2633H54.2622H54.2611H54.2601H54.259H54.2579H54.2568H54.2558H54.2547H54.2536H54.2525H54.2515H54.2504H54.2493H54.2482H54.2472H54.2461H54.245H54.2439H54.2428H54.2417H54.2407H54.2396H54.2385H54.2374H54.2363H54.2352H54.2341H54.2331H54.232H54.2309H54.2298H54.2287H54.2276H54.2265H54.2254H54.2243H54.2232H54.2221H54.221H54.2199H54.2188H54.2177H54.2166H54.2155H54.2144H54.2133H54.2122H54.2111H54.21H54.2089H54.2078H54.2067H54.2056H54.2045H54.2034H54.2023H54.2012H54.2001H54.1989H54.1978H54.1967H54.1956H54.1945H54.1934H54.1923H54.1911H54.19H54.1889H54.1878H54.1867H54.1855H54.1844H54.1833H54.1822H54.181H54.1799H54.1788H54.1777H54.1765H54.1754H54.1743H54.1732H54.172H54.1709H54.1698H54.1686H54.1675H54.1664H54.1652H54.1641H54.1629H54.1618H54.1607H54.1595H54.1584H54.1572H54.1561H54.155H54.1538H54.1527H54.1515H54.1504H54.1492H54.1481H54.1469H54.1458H54.1446H54.1435H54.1423H54.1412H54.14H54.1389H54.1377H54.1365H54.1354H54.1342H54.1331H54.1319H54.1307H54.1296H54.1284H54.1272H54.1261H54.1249H54.1237H54.1226H54.1214H54.1202H54.1191H54.1179H54.1167H54.1156H54.1144H54.1132H54.112H54.1108C53.3656 97.2578 52.8233 96.6345 52.8893 95.9085L52.8917 95.8819L52.8969 95.8557C53.0222 95.2296 53.5815 94.7302 54.2717 94.7302H54.2726H54.2735H54.2745H54.2754H54.2764H54.2773H54.2782H54.2792H54.2801H54.281H54.282H54.2829H54.2838H54.2848H54.2857H54.2866H54.2875H54.2885H54.2894H54.2903H54.2912H54.2922H54.2931H54.294H54.2949H54.2959H54.2968H54.2977H54.2986H54.2995H54.3004H54.3014H54.3023H54.3032H54.3041H54.305H54.3059H54.3068H54.3077H54.3086H54.3096H54.3105H54.3114H54.3123H54.3132H54.3141H54.315H54.3159H54.3168H54.3177H54.3186H54.3195H54.3204H54.3213H54.3222H54.3231H54.324H54.3249H54.3258H54.3267H54.3276H54.3284H54.3293H54.3302H54.3311H54.332H54.3329H54.3338H54.3347H54.3356H54.3364H54.3373H54.3382H54.3391H54.34H54.3409H54.3418H54.3426H54.3435H54.3444H54.3453H54.3462H54.347H54.3479H54.3488H54.3497H54.3505H54.3514H54.3523H54.3532H54.354H54.3549H54.3558H54.3567H54.3575H54.3584H54.3593H54.3601H54.361H54.3619H54.3627H54.3636H54.3645H54.3653H54.3662H54.3671H54.3679H54.3688H54.3697H54.3705H54.3714H54.3723H54.3731H54.374H54.3748H54.3757H54.3766H54.3774H54.3783H54.3791H54.38H54.3808H54.3817H54.3826H54.3834H54.3843H54.3851H54.386H54.3868H54.3877H54.3885H54.3894H54.3902H54.3911H54.3919H54.3928H54.3936H54.3945H54.3953H54.3962H54.397H54.3979H54.3987H54.3996H54.4004H54.4013H54.4021H54.403H54.4038H54.4047H54.4055H54.4063H54.4072H54.408H54.4089H54.4097H54.4106H54.4114H54.4122H54.4131H54.4139H54.4148H54.4156H54.4164H54.4173H54.4181H54.419H54.4198H54.4206H54.4215H54.4223H54.4232H54.424H54.4248H54.4257H54.4265H54.4273H54.4282H54.429H54.4298H54.4307H54.4315H54.4323H54.4332H54.434H54.4348H54.4357H54.4365H54.4373H54.4382H54.439H54.4398H54.4407H54.4415H54.4423H54.4432H54.444H54.4448H54.4457H54.4465H54.4473H54.4481H54.449H54.4498H54.4506H54.4515H54.4523H54.4531H54.4539H54.4548H54.4556H54.4564H54.4573H54.4581H54.4589H54.4597H54.4606H54.4614H54.4622H54.463H54.4639H54.4647H54.4655H54.4664H54.4672H54.468H54.4688H54.4697H54.4705H54.4713H54.4721H54.473H54.4738H54.4746H54.4754H54.4763H54.4771H54.4779H54.4787H54.4796H54.4804H54.4812H54.482H54.4829H54.4837H54.4845H54.4853H54.4862H54.487H54.4878H54.4886H54.4895H54.4903H54.4911H54.4919H54.4928H54.4936H54.4944H54.4952H54.4961H54.4969H54.4977H54.4985H54.4993H54.5002H54.501H54.5018H54.5026H54.5035H54.5043H54.5051H54.5059H54.5068H54.5076H54.5084H54.5092H54.5101H54.5109H54.5117H54.5125H54.5134H54.5142H54.515H54.5159H54.5167H54.5175H54.5183H54.5192H54.52H54.5208H54.5216H54.5225H54.5233H54.5241H54.5249H54.5258H54.5266H54.5274H54.5283H54.5291H54.5299H54.5307H54.5316H54.5324H54.5332H54.534H54.5349H54.5357H54.5365H54.5374H54.5382H54.539H54.5399H54.5407H54.5415H54.5423H54.5432H54.544H54.5448H54.5457H54.5465H54.5473H54.5482H54.549H54.5498H54.5507H54.5515H54.5523H54.5532H54.554H54.5548H54.5557H54.5565H54.5573H54.5582H54.559H54.5598H54.5607H54.5615H54.5624H54.5632H54.564H54.5649H54.5657H54.5665H54.5674H54.5682H54.5691H54.5699H54.5707H54.5716H54.5724H54.5733H54.5741H54.575H54.5758H54.5766H54.5775H54.5783H54.5792H54.58H54.5809H54.5817H54.5825H54.5834H54.5842H54.5851H54.5859H54.5868H54.5876H54.5885H54.5893H54.5902H54.591H54.5919H54.5927H54.5936H54.5944H54.5953H54.5961H54.597H54.5978H54.5987H54.5995H54.6004H54.6012H54.6021H54.603H54.6038H54.6047H54.6055H54.6064H54.6072H54.6081H54.609H54.6098H54.6107H54.6115H54.6124H54.6133H54.6141H54.615H54.6158H54.6167H54.6176H54.6184H54.6193H54.6202H54.621H54.6219H54.6228H54.6236H54.6245H54.6254H54.6262H54.6271H54.628H54.6289H54.6297H54.6306H54.6315H54.6323H54.6332H54.6341H54.635H54.6358H54.6367H54.6376H54.6385H54.6394H54.6402H54.6411H54.642H54.6429H54.6438H54.6446H54.6455H54.6464H54.6473H54.6482H54.6491H54.6499H54.6508H54.6517H54.6526H54.6535H54.6544H54.6553H54.6562H54.6571H54.658H54.6588H54.6597H54.6606H54.6615H54.6624H54.6633H54.6642H54.6651H54.666H54.6669H54.6678H54.6687H54.6696H54.6705H54.6714H54.6723H54.6732H54.6741H54.675H54.676H54.6769H54.6778H54.6787H54.6796H54.6805H54.6814H54.6823H54.6832H54.6842H54.6851H54.686H54.6869H54.6878H54.6887H54.6897H54.6906H54.6915H54.6924H54.6933H54.6943H54.6952H54.6961H54.697H54.698H54.6989H54.6998H54.7008H54.7017H54.7026H54.7035H54.7045H54.7054H54.7063H54.7073H54.7082H54.7092H54.7101H54.711H54.712H54.7129H54.7139C56.9385 94.7302 59.3395 94.0003 61.5623 92.5964C63.7863 91.1918 65.8601 89.1197 67.387 86.4964Z" fill="#FFA234" stroke="#FFA234"/>
</svg>
