<svg width="131" height="123" viewBox="0 0 131 123" fill="none" xmlns="http://www.w3.org/2000/svg">
<path d="M28.9954 4.32344C27.6348 2.96319 25.9932 1.86908 24.1742 1.10024C22.4291 0.375763 20.5065 -0.0234375 18.51 -0.0234375C16.5135 -0.0234375 14.591 0.375763 12.8459 1.10024C11.0268 1.8543 9.38528 2.94841 8.0247 4.32344C6.66412 5.6837 5.56973 7.32487 4.80071 9.14347C4.07605 10.8881 3.67676 12.8102 3.67676 14.8062C3.67676 16.8023 4.07605 18.7244 4.80071 20.469C5.55494 22.2876 6.66412 23.9288 8.0247 25.2891C9.38528 26.6493 11.0268 27.7434 12.8459 28.4975C14.591 29.2219 16.5135 29.6211 18.51 29.6211C20.5065 29.6211 22.4291 29.2219 24.1742 28.4975C25.9932 27.7434 27.6348 26.6493 28.9954 25.2891C30.3559 23.9288 31.4503 22.2876 32.2193 20.469C32.944 18.7244 33.3433 16.8023 33.3433 14.8062C33.3433 12.8102 32.944 10.8881 32.2193 9.14347C31.4651 7.32487 30.3559 5.6837 28.9954 4.32344ZM23.1537 3.59897C24.6326 4.20517 25.9636 5.10707 27.0876 6.23076C28.2115 7.35444 29.1137 8.68512 29.72 10.1637C30.3116 11.583 30.6369 13.1503 30.6369 14.8062C30.6369 16.4622 30.3116 18.0295 29.72 19.4488C29.1137 20.9274 28.2115 22.2581 27.0876 23.3817C25.9636 24.5054 24.6326 25.4073 23.1537 26.0135C21.734 26.605 20.1664 26.9302 18.51 26.9302C16.8537 26.9302 15.286 26.605 13.8663 26.0135C12.3874 25.4073 11.0564 24.5054 9.93246 23.3817C8.8085 22.2581 7.90638 20.9274 7.30004 19.4488C6.70848 18.0295 6.38312 16.4622 6.38312 14.8062C6.38312 13.1503 6.70848 11.583 7.30004 10.1637C7.90638 8.68512 8.8085 7.35444 9.93246 6.23076C11.0564 5.10707 12.3874 4.20517 13.8663 3.59897C15.286 3.00756 16.8537 2.68228 18.51 2.68228C20.1664 2.68228 21.734 3.00756 23.1537 3.59897Z" fill="#FFA234" stroke="#FFA234"/>
<path d="M5.03719 15.368C4.29775 15.3532 3.70619 14.747 3.72097 14.0077C3.73576 13.2685 4.34211 12.6771 5.08156 12.6918C12.4612 12.8249 14.5169 11.8195 17.1197 10.5332C17.4599 10.3558 17.8148 10.1931 18.1697 10.0157C18.4359 9.89741 18.6578 9.77913 18.8796 9.67564C21.2754 8.50759 23.686 7.35434 29.8973 6.54114C30.6368 6.45243 31.3023 6.96992 31.391 7.70919C31.4797 8.44845 30.9621 9.11379 30.2227 9.2025C24.4698 9.95656 22.2515 11.0211 20.0331 12.0856C19.7817 12.2039 19.5303 12.337 19.2937 12.4405C18.924 12.6179 18.5986 12.7806 18.288 12.9284C15.3746 14.3922 13.0824 15.5158 5.03719 15.368Z" fill="#FFA234" stroke="#FFA234"/>
<path d="M1.01479 112.182C1.01479 116.869 3.60284 119.9 6.90077 121.231C8.14303 121.734 9.50361 121.985 10.8642 122C12.2248 122 13.5854 121.748 14.8276 121.246C16.6319 120.506 18.2291 119.25 19.2791 117.475C20.3291 119.25 21.9263 120.506 23.7305 121.246C24.9728 121.748 26.3334 122 27.694 122C29.0545 122 30.4151 121.748 31.6574 121.231C34.9553 119.9 37.5434 116.869 37.5434 112.182C37.5434 94.0259 37.5138 75.8843 37.5138 57.7279L59.8598 37.8564C62.8028 35.2394 63.6014 32.6372 63.0986 30.5081C62.8472 29.414 62.2408 28.4529 61.4127 27.7137C60.6141 27.004 59.6084 26.4717 58.4992 26.1612C55.7041 25.4071 52.1252 26.0725 49.4484 28.9408L35.2511 41.0648C32.8701 37.5459 28.6996 34.9289 24.0855 33.6869C20.8911 32.8294 17.4748 32.6076 14.2656 33.2138C10.9973 33.82 7.95078 35.269 5.59934 37.7233C2.80424 40.636 1 44.9386 1 50.8675V112.182H1.01479ZM20.6397 112.182V75.2781C20.6397 74.5388 20.0333 73.9326 19.2939 73.9326C18.5544 73.9326 17.9481 74.5388 17.9481 75.2781V112.182C17.9481 115.627 16.1438 117.801 13.822 118.747C12.8903 119.131 11.8846 119.309 10.8642 119.309C9.85854 119.309 8.83811 119.117 7.90641 118.732C5.55497 117.786 3.70637 115.583 3.70637 112.182V50.8675C3.70637 45.6926 5.21483 42.0111 7.55148 39.5863C9.48883 37.5607 12.0325 36.3631 14.7685 35.8604C17.5636 35.3429 20.5805 35.5351 23.4052 36.2891C27.8123 37.472 31.7017 40.0298 33.5651 43.4157C33.9201 44.4359 35.0145 44.9386 35.8426 44.1106L50.8386 31.3065C51.2083 30.9812 51.4153 30.7742 51.7703 30.4341C53.6337 28.6747 55.9703 28.2755 57.8042 28.7782C58.514 28.9704 59.15 29.2957 59.6232 29.7245C60.0521 30.1089 60.3626 30.5968 60.4957 31.1291C60.7915 32.3562 60.1704 33.9974 58.0851 35.8456L35.2807 56.1163C34.9553 56.3972 34.7926 56.8112 34.837 57.24C34.837 75.559 34.8518 93.8632 34.8518 112.182C34.8518 115.598 33.0032 117.786 30.6517 118.732C29.72 119.117 28.6996 119.309 27.694 119.309C26.6883 119.309 25.6679 119.117 24.7362 118.747C22.4439 117.801 20.6397 115.627 20.6397 112.182Z" fill="#FFA234" stroke="#FFA234"/>
<path d="M102.451 4.32344C103.812 2.96319 105.454 1.86908 107.273 1.10024C109.018 0.375763 110.94 -0.0234375 112.937 -0.0234375C114.933 -0.0234375 116.856 0.375763 118.601 1.10024C120.42 1.8543 122.062 2.94841 123.422 4.32344C124.783 5.6837 125.877 7.32487 126.646 9.14347C127.371 10.8881 127.77 12.8102 127.77 14.8062C127.77 16.8023 127.371 18.7244 126.646 20.469C125.892 22.2876 124.797 23.9288 123.422 25.2891C122.062 26.6493 120.42 27.7434 118.601 28.4975C116.856 29.2219 114.933 29.6211 112.937 29.6211C110.94 29.6211 109.018 29.2219 107.273 28.4975C105.454 27.7434 103.812 26.6493 102.451 25.2891C101.091 23.9288 99.9965 22.2876 99.2275 20.469C98.5028 18.7244 98.1035 16.8023 98.1035 14.8062C98.1035 12.8102 98.5028 10.8881 99.2275 9.14347C99.9817 7.32487 101.076 5.6837 102.451 4.32344ZM108.278 3.59897C106.799 4.20517 105.468 5.10707 104.344 6.23076C103.22 7.35444 102.318 8.68512 101.712 10.1637C101.12 11.583 100.795 13.1503 100.795 14.8062C100.795 16.4622 101.12 18.0295 101.712 19.4488C102.318 20.9274 103.22 22.2581 104.344 23.3817C105.468 24.5054 106.799 25.4073 108.278 26.0135C109.698 26.605 111.266 26.9302 112.922 26.9302C114.578 26.9302 116.146 26.605 117.566 26.0135C119.045 25.4073 120.376 24.5054 121.5 23.3817C122.624 22.2581 123.526 20.9274 124.132 19.4488C124.724 18.0295 125.049 16.4622 125.049 14.8062C125.049 13.1503 124.724 11.583 124.132 10.1637C123.526 8.68512 122.624 7.35444 121.5 6.23076C120.376 5.10707 119.045 4.20517 117.566 3.59897C116.146 3.00756 114.578 2.68228 112.922 2.68228C111.28 2.68228 109.713 3.00756 108.278 3.59897Z" fill="#FFA234" stroke="#FFA234"/>
<path d="M126.41 15.368C127.149 15.3532 127.741 14.747 127.726 14.0077C127.711 13.2685 127.105 12.6771 126.365 12.6918C118.986 12.8249 116.93 11.8195 114.327 10.5332C113.987 10.3558 113.632 10.1931 113.277 10.0157C113.011 9.89741 112.789 9.77913 112.567 9.67564C110.171 8.50759 107.761 7.35434 101.549 6.54114C100.81 6.45243 100.145 6.96992 100.056 7.70919C99.9671 8.44845 100.485 9.11379 101.224 9.2025C106.977 9.95656 109.195 11.0211 111.414 12.0856C111.665 12.2039 111.916 12.337 112.153 12.4405C112.523 12.6179 112.848 12.7806 113.159 12.9284C116.057 14.3922 118.364 15.5158 126.41 15.368Z" fill="#FFA234" stroke="#FFA234"/>
<path d="M130.432 112.182C130.432 116.869 127.844 119.9 124.546 121.231C123.304 121.734 121.943 121.985 120.583 122C119.222 122 117.861 121.748 116.619 121.246C114.8 120.506 113.218 119.25 112.168 117.475C111.118 119.25 109.52 120.506 107.716 121.246C106.474 121.748 105.113 122 103.753 122C102.392 122 101.032 121.748 99.7893 121.231C96.4914 119.9 93.9033 116.869 93.9033 112.182C93.9033 94.0259 93.9329 75.8843 93.9329 57.7279L71.5869 37.8564C68.6439 35.2394 67.8453 32.6372 68.3481 30.5081C68.5996 29.414 69.2059 28.4529 70.0341 27.7137C70.8327 27.004 71.8383 26.4717 72.9475 26.1612C75.7426 25.4071 79.3215 26.0725 81.9835 28.9408L96.1808 41.0648C98.5619 37.5459 102.732 34.9289 107.346 33.6869C110.541 32.8294 113.957 32.6076 117.166 33.2138C120.435 33.82 123.481 35.269 125.833 37.7233C128.628 40.636 130.432 44.9386 130.432 50.8675V112.182ZM110.807 112.182V75.2781C110.807 74.5388 111.413 73.9326 112.153 73.9326C112.892 73.9326 113.499 74.5388 113.499 75.2781V112.182C113.499 115.627 115.303 117.801 117.625 118.747C118.556 119.131 119.562 119.309 120.583 119.309C121.588 119.309 122.609 119.117 123.54 118.732C125.892 117.786 127.74 115.583 127.74 112.182V50.8675C127.74 45.6926 126.232 42.0111 123.895 39.5863C121.958 37.5607 119.414 36.3631 116.678 35.8604C113.883 35.3429 110.866 35.5351 108.027 36.2891C103.62 37.472 99.7302 40.0298 97.8668 43.4157C97.5118 44.4359 96.4175 44.9386 95.5893 44.1106L80.5933 31.3065C80.2236 30.9812 80.0166 30.7742 79.6617 30.4341C77.7983 28.6747 75.4616 28.2755 73.6278 28.7782C72.9179 28.9704 72.282 29.2957 71.8087 29.7245C71.3799 30.1089 71.0693 30.5968 70.9362 31.1291C70.6404 32.3562 71.2615 33.9974 73.3468 35.8456L96.1513 56.1163C96.4766 56.3972 96.6393 56.8112 96.5949 57.24C96.5949 75.559 96.5801 93.8632 96.5801 112.182C96.5801 115.598 98.4288 117.786 100.78 118.732C101.712 119.117 102.732 119.309 103.738 119.309C104.744 119.309 105.764 119.117 106.696 118.747C109.003 117.801 110.807 115.627 110.807 112.182Z" fill="#FFA234" stroke="#FFA234"/>
</svg>
