<svg width="155" height="124" viewBox="0 0 155 124" fill="none" xmlns="http://www.w3.org/2000/svg">
<path d="M107.99 63.9756L108.091 63.0052L107.183 62.6371C105.939 62.1018 104.728 61.6333 103.551 61.1649C100.962 60.1276 98.5071 59.1572 96.2204 57.9526C91.5798 55.4766 87.7799 51.6286 84.9215 46.5426L84.8879 46.4756C83.3074 43.6984 82.7694 43.3973 79.5747 43.7988C75.8421 44.2672 71.5041 44.5684 67.4351 43.1296C65.3166 42.3934 63.7025 42.5273 61.8866 43.598C58.2548 45.7061 55.8672 48.7844 54.8248 52.6993C54.5221 53.7366 54.3204 54.8073 54.085 55.8446C53.9841 56.3131 53.8832 56.7815 53.7823 57.25L53.7151 57.618L53.8496 57.9861C54.0513 58.5549 54.0177 59.0234 53.8159 59.2911C53.6142 59.5253 53.2106 59.6591 52.6726 59.6257H52.6053H52.5381C52.2018 59.6257 51.6301 59.6257 51.3611 59.358C51.1594 59.1572 51.0585 58.6888 51.0921 58.053C51.2939 54.5062 51.8992 49.9556 54.892 46.3753C55.9681 45.0703 57.2123 43.8657 58.5238 42.6277C59.1291 42.0588 59.7344 41.4565 60.3733 40.8543L61.0795 40.1516L60.6087 39.3151V39.2816C60.5415 39.0808 60.3733 38.7128 60.037 38.3782C57.4141 35.4336 56.3044 31.8199 55.6655 28.9757C54.7239 24.9604 53.7487 21.4805 52.639 18.4021C51.193 14.3869 48.3346 11.8773 44.5347 11.3419C39.9613 10.7062 35.926 12.3458 32.9332 13.818C32.4287 14.0523 31.958 14.3534 31.6217 14.5542C31.5208 14.6211 31.3863 14.688 31.319 14.7549L29.9739 15.558L30.9491 16.7626C31.3863 17.3314 31.8571 17.8333 32.3279 18.3352C33.2358 19.3391 34.0765 20.2759 34.6145 21.2798C36.3296 24.3916 36.5986 28.0723 35.5225 32.5225C35.1862 33.8275 34.7827 35.1659 34.3455 36.4374C34.0093 37.5416 33.6393 38.6458 33.3367 39.7835C31.6553 46.0407 32.0252 52.6993 34.48 59.6257C35.5561 62.6371 37.7419 65.2805 39.356 66.9201C42.1808 69.7977 46.1488 70.9019 49.6461 71.8723C56.3716 73.7461 63.1308 73.8799 69.7554 72.2403C75.6403 70.8015 80.7181 68.0243 84.8543 63.9421C85.0224 63.7748 85.1569 63.641 85.3251 63.4737C85.5604 63.2394 85.8295 63.0052 86.0649 62.7375C87.41 61.3656 87.8808 61.8006 88.1834 62.1018C88.6206 62.5368 88.856 62.9383 88.856 63.3064C88.856 63.8417 88.3852 64.4106 87.9816 64.7786C86.8719 65.8159 85.7622 66.8197 84.6189 67.857C84.1145 68.3255 83.5764 68.7939 83.072 69.2623L82.0968 70.1658L82.9711 71.1696C83.072 71.27 83.1392 71.3704 83.2401 71.5042C83.5092 71.8388 83.7782 72.1734 84.2153 72.4746C88.2843 75.3857 92.7904 76.8245 97.6664 76.7575C98.0699 76.7575 98.5071 76.8579 98.7425 77.0252C99.3478 77.4602 99.3814 77.7948 99.2133 78.2298C98.9779 78.8656 98.608 79.2671 97.431 79.3005C91.2099 79.5682 85.8295 77.5941 81.0207 73.2442C80.4154 72.7088 79.2048 71.6046 77.1872 72.575C75.5394 73.378 73.6563 74.0472 71.4368 74.6161C61.483 77.226 51.6638 76.2556 41.4746 71.6715L40.8357 71.4038C38.4817 70.3331 36.0269 69.2289 33.5048 68.3924C25.8041 65.8159 19.0113 68.3924 15.7158 75.1849C13.5973 79.5682 13.6645 83.55 15.9176 86.9965C18.137 90.376 21.5334 92.7517 26.0059 94.0567C31.8234 95.7297 37.6074 95.8636 42.4834 95.7297C44.8374 95.6628 47.1577 94.6255 48.7045 93.8559C50.0496 93.1533 50.9912 91.5806 51.1594 89.7068C51.2939 87.8999 50.6886 86.3273 49.5116 85.4573C47.6957 84.1523 45.678 83.1151 43.694 82.5128C39.6587 81.3082 35.5561 81.5424 31.5881 81.8101L30.5792 81.877C29.1669 81.9774 29.0996 81.3082 29.0324 80.8732C28.9315 80.0032 29.3014 79.5348 30.1757 79.4009C30.8819 79.3006 31.6217 79.2671 32.3951 79.2336C32.9332 79.2002 33.5048 79.2002 34.0765 79.1332C40.5667 78.5309 45.678 79.5682 50.0833 82.312C52.2354 83.6504 53.5469 85.5242 53.9505 87.7661C54.354 90.0749 53.6142 92.5844 52 94.6255C50.1505 96.9343 47.3258 97.8043 44.5683 98.3731L43.5595 98.5739L43.5259 99.6112C43.4922 100.481 43.4586 101.351 43.425 102.188C43.3577 104.028 43.3241 105.734 43.1223 107.441C42.8197 110.051 42.3825 112.728 41.979 115.304C41.7436 116.81 41.5082 118.383 41.2728 119.922C41.2056 120.491 41.3401 120.993 41.4746 121.327C41.5082 121.428 41.5418 121.494 41.5418 121.595L41.8781 123L43.2569 122.565C43.3577 122.532 43.4586 122.498 43.5595 122.498C43.9294 122.398 44.4002 122.298 44.8374 121.996C45.3754 121.628 45.7117 121.16 45.9807 120.758L46.048 120.658C46.7878 119.621 47.4939 118.55 48.2337 117.479C49.6797 115.371 51.1594 113.163 52.7062 111.088C55.8336 106.872 58.961 103.961 62.4919 101.987C67.1325 99.3435 70.3944 96.4659 72.7147 92.8856C73.1855 92.1494 73.5554 91.3464 73.9253 90.5768C74.0934 90.2422 74.2279 89.9076 74.3961 89.573L75.035 88.268L73.6899 87.7326C73.2527 87.5653 72.8828 87.398 72.4793 87.2307C71.6722 86.8961 70.9997 86.6284 70.2935 86.3273C69.52 86.0261 69.1838 85.3569 69.3519 84.5204C69.4192 84.1524 70.0581 83.6839 70.8315 83.7843C71.605 83.9181 72.412 84.1858 73.1182 84.4535C73.9925 84.7881 74.9005 85.1227 75.7748 85.4908C77.3553 86.1265 79.0031 86.7623 80.6844 87.2976C87.0737 89.2384 93.5302 89.3387 99.9531 87.5653C106.107 85.8588 110.983 82.0778 115.355 75.6868L116.195 74.4487L114.85 73.7461C109.739 71.2365 107.587 68.0912 107.99 63.9756ZM99.146 85.0558C93.2276 86.6954 87.2755 86.595 81.3906 84.7881C79.8101 84.3196 78.2296 83.6839 76.6827 83.0816C75.8084 82.7135 74.8669 82.3789 73.9589 82.0109C73.1518 81.7097 72.1766 81.3751 71.1342 81.2078C69.0493 80.9067 67.0316 82.1447 66.6281 84.0185C66.1909 86.16 67.1998 88.1007 69.2174 88.8703C69.8563 89.138 70.5289 89.4057 71.2687 89.7068C70.966 90.3426 70.697 90.9114 70.3271 91.4468C68.2758 94.6255 65.3166 97.2355 61.0459 99.6446C57.1451 101.887 53.7823 104.998 50.4195 109.549C48.839 111.69 47.3258 113.899 45.8798 116.04C45.2745 116.91 44.7028 117.78 44.0975 118.684C44.2321 117.713 44.4002 116.71 44.5347 115.739C44.9382 113.129 45.3418 110.452 45.6781 107.776C45.8798 105.935 45.9471 104.162 46.0143 102.255C46.0143 101.753 46.048 101.251 46.048 100.749C48.9736 100.046 51.8655 98.942 53.9841 96.2986C56.1026 93.6552 57.0106 90.4095 56.5061 87.3311C56.0017 84.3866 54.2195 81.8101 51.4284 80.0702C46.4851 76.9918 40.8693 75.8206 33.7402 76.4899C33.2358 76.5233 32.7314 76.5568 32.1933 76.5902C31.3863 76.6237 30.512 76.6572 29.6713 76.791C27.351 77.1591 26.0059 78.9325 26.2749 81.2078C26.5439 83.4497 28.1917 84.7212 30.6465 84.5539L31.6553 84.4869C35.5561 84.2527 39.2552 84.0185 42.8197 85.0893C44.5347 85.5912 46.2834 86.4946 47.8639 87.6323C48.2674 87.9334 48.4691 88.6695 48.4019 89.506C48.3346 90.4095 47.9311 91.2125 47.4267 91.4802C46.1152 92.1494 44.1648 93.0529 42.3489 93.0863C37.641 93.1867 32.1261 93.0863 26.6784 91.5137C22.7776 90.376 19.9865 88.4353 18.0697 85.5577C16.3211 82.9143 16.3211 79.9028 18.0361 76.3895C20.7263 70.8685 26.1404 68.8274 32.5296 70.9688C34.9172 71.7719 37.3048 72.8427 39.5914 73.8799L40.2304 74.1811C50.8903 78.9659 61.5839 80.0032 72.0085 77.2595C74.3961 76.6237 76.4474 75.8876 78.2296 75.0176C78.5995 74.8503 78.5995 74.8503 79.0703 75.2518C84.3499 80.0032 90.5373 82.2785 97.3974 81.9774C99.5496 81.877 100.962 80.9401 101.601 79.0998C102.206 77.4268 101.668 75.8541 100.121 74.8168C99.415 74.3484 98.4398 74.0472 97.4983 74.0807C93.1939 74.1476 89.3267 72.9096 85.7286 70.3666C85.8967 70.1993 86.0985 70.032 86.2666 69.8647C87.4436 68.7939 88.5533 67.7901 89.6966 66.7528C90.84 65.6821 91.4117 64.5444 91.4117 63.3398C91.4117 62.5702 91.1426 61.3656 89.932 60.1945C89.125 59.4249 86.9056 57.9192 84.0136 60.8972C83.8118 61.1314 83.5764 61.3322 83.341 61.5329C83.1729 61.7002 83.0048 61.8675 82.8366 62.0348C79.0703 65.749 74.4297 68.3255 69.0156 69.6304C62.8618 71.1362 56.5734 71.0023 50.285 69.2623C46.9559 68.3254 43.5259 67.3886 41.1719 65.0129C39.726 63.5406 37.8092 61.2653 36.9012 58.6888C34.6482 52.2978 34.2783 46.1745 35.8251 40.4527C36.1278 39.382 36.4641 38.2778 36.8003 37.207C37.2375 35.8686 37.6747 34.4967 38.0109 33.0914C39.2888 27.9719 38.8853 23.6889 36.8676 19.9413C36.1614 18.6364 35.1862 17.5322 34.211 16.4614C34.1101 16.361 34.0429 16.2607 33.942 16.1603C33.9756 16.1603 33.9756 16.1268 34.0093 16.1268C37.9437 14.1526 41.0374 13.4834 44.0303 13.8849C47.5612 14.3869 49.209 17.0637 49.9824 19.2052C51.0585 22.1832 52.0001 25.5293 52.908 29.4776C53.6142 32.4891 54.7911 36.3371 57.5486 39.6497C57.2123 39.9843 56.8761 40.3189 56.5398 40.62C55.2283 41.8915 53.8832 43.163 52.7062 44.6019C49.2089 48.7844 48.5364 53.8704 48.301 57.8523C48.2338 59.2911 48.57 60.3953 49.3435 61.1649C50.0833 61.901 51.1257 62.2691 52.4708 62.2356C53.9168 62.2691 55.0938 61.7672 55.8336 60.8303C56.5061 59.9268 56.7079 58.7222 56.3716 57.4507C56.4389 57.0827 56.5398 56.7146 56.607 56.38C56.8088 55.3762 57.0442 54.3389 57.3132 53.3685C58.1875 50.1228 60.1043 47.6802 63.1644 45.8734C64.3078 45.2041 65.0812 45.1372 66.4599 45.6391C71.0669 47.2452 75.8084 46.9441 79.8437 46.4422C80.4827 46.3753 81.357 46.2414 81.5251 46.3083C81.6933 46.4087 82.0632 47.1114 82.4331 47.7471L82.4667 47.8141C85.5941 53.3351 89.7639 57.5177 94.8417 60.2614C97.2629 61.5664 99.785 62.5702 102.442 63.6075C103.316 63.9756 104.257 64.3102 105.165 64.7117C105.098 69.095 107.385 72.6084 112.093 75.4191C108.427 80.5721 104.257 83.6504 99.146 85.0558Z" fill="#FFA234" stroke="#FFA234"/>
<path d="M153.858 46.4754C153.286 41.6571 150.764 37.8426 148.41 34.7642L146.964 32.8904L146.09 35.0988C144.98 37.943 142.963 40.0175 140.138 41.3225C133.345 44.4009 126.552 43.7986 119.961 39.4822C118.717 38.6791 117.339 38.1103 115.624 39.5826C114.043 40.921 112.53 41.5233 110.882 41.5233H110.579L110.31 41.6571C108.595 42.4936 106.813 42.2929 104.627 41.6906C101.164 40.7871 98.0362 38.8129 95.0434 35.7011C94.0682 34.6638 94.4717 34.2288 94.7744 33.8608C95.8168 32.7231 96.5903 33.3589 96.8256 33.5931C97.1283 33.8608 97.431 34.1954 97.7336 34.53C98.1371 34.9984 98.5407 35.4669 99.0787 35.9019C99.8521 36.5376 100.693 37.0395 101.534 37.5414C101.87 37.7422 102.206 37.943 102.542 38.1772L102.879 38.4114H103.282C103.316 38.4114 103.383 38.4114 103.45 38.4114C107.587 40.0845 111.084 39.6829 114.178 37.1734L115.321 36.2365L114.245 35.1992C113.572 34.5634 112.933 33.8942 112.261 33.2585C110.748 31.7862 109.201 30.2805 107.721 28.7747C106.342 27.4029 104.896 25.9306 103.518 24.3914C103.181 24.0233 103.013 23.4545 103.047 22.9191C103.08 22.5845 103.181 22.3838 103.249 22.3168C104.089 21.5807 105.098 22.0492 105.703 22.6514C106.41 23.3876 107.149 24.1237 107.856 24.8599C111.824 28.9755 115.926 33.225 120.769 36.638C126.25 40.5194 131.832 41.5233 137.347 39.5491C140.642 38.378 142.963 36.203 143.803 33.4592C144.611 30.9162 144.073 28.1725 142.324 25.7633C137.011 18.5358 129.68 13.5167 120.399 10.8398C119.39 10.5387 118.347 10.3714 117.271 10.1706C116.767 10.0702 116.195 10.0033 115.624 9.86947L112.563 9.26718L114.245 11.8771C114.413 12.1113 114.514 12.3121 114.615 12.4794C114.816 12.814 114.985 13.0817 115.186 13.3494C119.02 17.9 123.156 21.4134 127.83 24.0568C129.108 24.7929 128.873 25.1945 128.637 25.6295C128.268 26.3321 127.427 26.8006 126.553 26.3321C124.568 25.2948 123.156 24.4249 121.878 23.488C116.632 19.6065 112.126 14.5874 108.562 8.59797C107.889 7.4603 106.847 6.32265 105.569 5.31883C102.811 3.14388 99.3141 2.17353 94.9089 2.34083C91.1089 2.47467 86.6701 5.05115 85.4595 9.63526C84.6861 12.6133 85.0896 15.4574 86.7374 18.335C87.4435 19.5731 87.4099 20.0415 87.0736 20.4765C86.7374 20.945 86.2666 21.1457 85.7621 21.0788C85.0896 21.0119 84.5179 20.51 84.2153 19.7404C83.9126 18.9373 83.6436 18.1008 83.3746 17.2308C83.1392 16.4612 82.9038 15.6916 82.6348 14.922C82.4666 14.4871 81.8277 12.9813 80.5835 12.6802C80.3145 12.6133 80.0454 12.5463 79.7428 12.4794C77.9942 12.011 76.1783 11.5425 74.2951 11.6094C71.5376 11.6763 68.8138 12.1113 66.1572 12.5129C65.7201 12.5798 65.2829 12.6467 64.8458 12.7136C64.2068 12.814 63.6688 12.6802 63.1307 11.8102C62.8281 11.3418 62.929 10.8733 63.3325 10.5387C63.8369 10.1372 64.644 9.83601 65.6528 9.60179C71.2686 8.43066 76.2455 8.49758 80.8525 9.86947L81.9286 10.2041L85.4595 3.24426L84.5516 2.57505C80.8525 -0.168727 71.504 -0.369483 63.9714 0.366652C56.4052 1.10279 47.3594 3.07696 44.6692 6.48995L43.4922 7.96223L45.2744 8.56451C45.5771 8.6649 45.9134 8.76527 46.216 8.86565C46.8549 9.06641 47.4266 9.23372 47.9647 9.50141C51.8991 11.3752 54.522 14.7547 56.2371 20.1754C56.8424 22.1161 57.3468 24.1237 57.8512 26.0979C58.3892 28.2728 58.9609 30.5482 59.6671 32.7231C60.8104 36.1696 63.3997 38.7795 66.7625 39.9172C69.4864 40.8206 72.4456 41.1217 75.0349 41.4229C76.2119 41.5567 77.3216 41.356 78.4313 41.1887C78.9021 41.1217 79.4065 41.0548 79.8773 40.9879L81.4578 40.8206L80.8189 38.5453C80.718 38.1103 80.6171 37.7757 80.5162 37.4411C80.3817 36.8388 80.2136 36.2699 80.0454 35.6677C79.6755 34.2623 79.3056 32.8904 79.0702 31.5185C78.9694 30.9832 79.003 30.5816 79.1711 30.3474C79.3393 30.0797 79.7764 29.9793 80.1127 29.9124C80.7516 29.812 81.4242 29.812 81.7268 31.2843C81.9958 32.5223 82.3321 33.8273 82.7356 35.2661C84.0808 39.9506 86.2329 44.3005 89.1249 48.1819C92.3868 52.5653 96.4221 55.6437 101.096 57.3836C101.534 57.5509 101.937 57.7182 102.408 57.919C105.064 59.0232 108.36 60.3951 111.689 57.7182H111.723C114.716 56.4132 117.91 56.5471 121.273 56.6809L122.013 56.7144C127.528 56.9152 133.816 56.6809 138.221 50.9257C138.49 50.5911 139.028 50.5911 139.533 50.9592C140.575 51.6618 140.441 52.1303 140.138 52.6657C139.869 53.1676 139.432 53.6695 138.961 54.2048L138.894 54.2718C135.935 57.6178 131.899 59.1905 125.813 59.4247C124.367 59.4916 122.853 59.4582 121.407 59.4582C119.323 59.4582 117.17 59.4582 115.052 59.592C113.27 59.7259 111.756 60.7297 110.983 62.3023C110.176 63.9754 110.31 65.983 111.319 67.5557C112.967 70.0652 115.624 71.6713 118.986 72.2736C120.634 72.5413 122.282 72.7086 123.93 72.7086C124.737 72.7086 125.544 72.6751 126.351 72.6082L126.721 72.5748C131.563 72.1398 136.54 71.6713 141.113 69.0279C145.081 66.7191 148.074 63.9419 150.226 60.5289C153.286 55.8779 154.43 51.2938 153.858 46.4754ZM148.108 59.0232C146.191 62.0346 143.501 64.5442 139.903 66.6188C135.867 68.961 131.361 69.3625 126.62 69.7975L126.25 69.831C124.131 70.0317 121.811 69.9314 119.592 69.5298C116.935 69.0614 114.951 67.8903 113.707 65.983C113.169 65.1799 113.101 64.2096 113.505 63.4065C113.875 62.6704 114.547 62.2354 115.354 62.1685C116.969 62.0347 118.65 62.0346 120.298 62.0346C120.701 62.0346 121.138 62.0346 121.542 62.0346C123.022 62.0346 124.535 62.0347 126.048 62.0012C130.319 61.8674 136.506 61.0643 141.046 55.9448L141.113 55.8779C141.618 55.309 142.223 54.6398 142.627 53.8368C143.669 51.9295 143.131 50.0557 141.181 48.6838C139.466 47.5127 137.347 47.7469 136.17 49.2192C132.841 53.5022 128.537 54.2049 122.181 53.9706L121.441 53.9372C117.944 53.8033 114.312 53.636 110.781 55.1752C110.647 55.2087 110.411 55.2756 110.176 55.4764C108.158 57.2163 106.309 56.5806 103.484 55.4094C103.013 55.2087 102.542 55.0079 102.072 54.8406C97.9017 53.3014 94.2699 50.4907 91.3443 46.5424C88.6205 42.8952 86.6028 38.8464 85.3586 34.4965C84.9551 33.1246 84.6524 31.8866 84.417 30.7155C83.879 28.139 82.0967 26.8675 79.7092 27.269C78.4986 27.4698 77.5906 27.9717 77.0189 28.8082C76.4473 29.6447 76.2455 30.7155 76.4809 31.987C76.7499 33.4592 77.1535 34.9315 77.5234 36.3369C77.6915 36.9057 77.826 37.508 77.9942 38.0768C78.0278 38.2107 78.0614 38.378 78.095 38.5118C77.1198 38.6791 76.1783 38.8129 75.3712 38.7126C72.9164 38.4449 70.1253 38.1772 67.6705 37.3407C65.1148 36.4707 63.1307 34.4965 62.2564 31.8531C61.5502 29.7451 61.0122 27.5367 60.4742 25.3952C59.9697 23.3876 59.4653 21.313 58.8264 19.3054C56.876 13.1486 53.7822 9.23372 49.1416 7.02531C48.9399 6.92493 48.7045 6.82455 48.5027 6.75763C51.5292 5.0846 57.4477 3.61234 64.2741 2.94313C71.9076 2.20699 78.8685 2.67543 82.0295 4.08078L80.5835 6.95841C75.842 5.75382 70.7642 5.75381 65.1484 6.92493C63.736 7.22608 62.5927 7.69453 61.752 8.33029C60.2388 9.46795 59.9025 11.4756 60.8777 13.1152C62.1891 15.2566 64.0051 15.4909 65.2829 15.2901C65.7201 15.2232 66.1572 15.1563 66.628 15.0893C69.1837 14.6878 71.8403 14.2863 74.4296 14.2194C75.9093 14.1859 77.5234 14.5874 79.1039 15.0224C79.3393 15.0893 79.5747 15.1563 79.8101 15.1897C79.9109 15.2901 80.0455 15.5578 80.1463 15.8255C80.4154 16.5282 80.6171 17.2308 80.8525 17.967C81.1215 18.8704 81.3906 19.7738 81.7605 20.6773C82.433 22.3503 83.8454 23.488 85.4595 23.6887C86.9391 23.856 88.3851 23.2203 89.2594 21.9822C90.7727 19.9077 89.5621 17.8331 89.0577 16.9631C87.7798 14.7213 87.4435 12.5798 88.0488 10.271C88.8895 6.99185 92.2523 5.0846 95.0097 4.98422C98.7424 4.85038 101.634 5.61998 103.887 7.39339C104.896 8.19645 105.737 9.06642 106.241 9.93639C110.008 16.2605 114.716 21.5138 120.264 25.6295C121.643 26.6333 123.156 27.5702 125.275 28.6744C127.326 29.7451 129.814 28.9755 130.958 26.8675C131.496 25.9306 132.37 23.5214 129.142 21.6811C125.241 19.4727 121.744 16.6285 118.515 13.0148C118.885 13.0817 119.255 13.1821 119.625 13.2825C128.436 15.8589 135.094 20.3761 140.004 27.2021C141.248 28.9421 141.651 30.8493 141.113 32.5558C140.508 34.4965 138.793 36.0357 136.305 36.9392C131.63 38.6122 126.99 37.7757 122.181 34.3627C117.574 31.0835 113.539 26.9344 109.671 22.9191C108.965 22.183 108.225 21.4469 107.519 20.7107C105.737 18.9039 103.148 18.6696 101.399 20.2088C100.76 20.7777 100.357 21.6476 100.289 22.6514C100.222 23.8895 100.659 25.1945 101.466 26.0979C102.879 27.704 104.392 29.1763 105.771 30.5816C107.284 32.0874 108.831 33.5931 110.344 35.0654C110.613 35.333 110.882 35.6007 111.151 35.8684C109.133 36.9726 106.914 36.9392 104.19 35.768C103.955 35.6676 103.719 35.6342 103.551 35.6342C103.349 35.5003 103.114 35.3665 102.879 35.2327C102.105 34.7308 101.365 34.2958 100.693 33.7604C100.357 33.4927 100.02 33.1246 99.684 32.7231C99.3141 32.3216 98.9778 31.8866 98.507 31.5185C96.6911 29.9793 94.3708 30.1801 92.6894 32.0204C91.1762 33.6935 91.3107 35.7346 92.9921 37.4745C96.3549 40.9544 99.8858 43.1628 103.82 44.2001C106.006 44.7689 108.595 45.2039 111.117 44.0997C113.303 44.0328 115.321 43.1963 117.305 41.5233C117.608 41.289 117.708 41.2556 117.708 41.2556C117.742 41.2556 117.877 41.2556 118.448 41.6236C125.88 46.4754 133.547 47.1446 141.214 43.6647C143.938 42.4267 146.09 40.5195 147.536 38.0768C149.218 40.5195 150.731 43.3636 151.168 46.7097C151.672 50.9592 150.664 54.9744 148.108 59.0232Z" fill="#FFA234" stroke="#FFA234"/>
<path d="M22.542 65.5818C24.4924 65.1468 26.4765 64.9461 28.595 64.7453C29.5702 64.6449 30.579 64.5445 31.5879 64.4107L33.5719 64.1765L32.5967 62.4365C30.2427 58.3209 29.8728 53.4021 29.5366 48.6842C29.2339 44.7693 29.8056 40.8209 31.2516 36.9729C32.4622 33.6938 33.5383 30.147 33.3701 26.2655C33.2356 23.4214 31.8569 21.0457 29.6375 19.9415C27.4853 18.8707 24.9296 19.1384 22.6765 20.7111C20.2553 22.3841 17.9014 24.4921 15.9174 26.7674C11.2095 32.1211 9.35997 37.6422 10.2343 43.6985C10.9741 48.9184 12.9581 53.971 16.22 59.1908C16.8253 60.1612 16.4218 60.6296 15.9174 60.9977C15.5138 61.2654 14.9758 61.3992 14.5386 61.2988C14.3369 61.2319 14.1687 61.165 14.1015 60.9977C12.521 58.1201 10.8732 55.0417 9.56174 51.9299C8.95644 50.4911 8.5529 48.9853 8.14937 47.3457C7.98123 46.6096 7.77947 45.8735 7.57771 45.1374L6.77064 42.3601L5.15651 44.7358C3.77778 46.7769 2.73532 48.7846 2.02914 50.8257C0.246875 55.9451 1.12119 60.9642 2.09639 64.7788C2.97071 68.2252 4.78661 71.5378 7.40957 74.6162C7.94761 75.2519 8.62016 75.6535 9.22546 76.0215C9.46085 76.1888 9.69625 76.3227 9.89801 76.4565L11.0414 77.2596L12.1511 75.4862C12.4537 75.0177 12.7564 74.5493 13.059 74.0474C13.1935 73.8466 13.2944 73.6458 13.3617 73.4785C13.4289 73.3782 13.4625 73.2443 13.5298 73.1439C16.1528 68.7606 18.9102 66.4183 22.542 65.5818ZM11.2095 71.772C11.1086 71.9393 11.0414 72.1066 10.9405 72.2739C10.8732 72.4078 10.806 72.5416 10.7387 72.642C10.5706 72.9097 10.4024 73.1774 10.2343 73.4785C9.89801 73.2778 9.59536 73.0435 9.3936 72.8093C7.00603 70.0656 5.42553 67.121 4.61846 64.0761C3.74415 60.6296 2.93708 56.1124 4.48396 51.6956C4.82023 50.7587 5.22377 49.8218 5.69455 48.885C6.03083 50.2234 6.43436 51.5953 7.00603 52.9002C8.38477 56.1125 10.0661 59.2578 11.6803 62.2023C12.1174 63.0053 12.8909 63.5742 13.8325 63.8084C14.9758 64.0761 16.2873 63.8419 17.3297 63.1392C19.2465 61.8342 19.6837 59.7262 18.4058 57.7186C15.3121 52.8333 13.4962 48.1154 12.79 43.2636C12.0502 38.0437 13.6979 33.1919 17.8341 28.4739C19.6837 26.3659 21.8695 24.4252 24.1225 22.8526C25.5349 21.8822 27.0817 21.648 28.3596 22.2837C29.7047 22.9529 30.5454 24.4587 30.6127 26.299C30.7472 29.7455 29.7383 32.9911 28.6286 36.0026C27.0818 40.2186 26.4428 44.5351 26.7791 48.8515C27.0818 53.0341 27.4517 57.752 29.3012 61.9346C28.9649 61.9681 28.6286 62.0015 28.2923 62.035C26.0729 62.2692 23.988 62.47 21.9031 62.9384C16.22 64.2769 13.0926 68.6267 11.2095 71.772Z" fill="#FFA234" stroke="#FFA234"/>
</svg>
