<svg width="144" height="123" viewBox="0 0 144 123" fill="none" xmlns="http://www.w3.org/2000/svg">
<path d="M73.4501 27.8897V0H70.5498V27.8897" fill="#FFA234"/>
<path d="M70.5498 95.0947V122.984H73.4501V95.0947" fill="#FFA234"/>
<path d="M105.617 62.9569H133.478V60.0566H105.617" fill="#FFA234"/>
<path d="M38.3829 60.0566H10.4932V62.9569H38.3829" fill="#FFA234"/>
<path d="M96.7988 38.7581L116.515 19.0419L114.464 16.9912L94.748 36.7074" fill="#FFA234"/>
<path d="M47.2006 84.2256L27.4844 103.942L29.5351 105.992L49.2513 86.2763" fill="#FFA234"/>
<path d="M94.748 86.2763L114.464 105.992L116.515 103.942L96.7988 84.2256" fill="#FFA234"/>
<path d="M49.2513 36.7074L29.5351 16.9912L27.4844 19.0419L47.2006 38.7581" fill="#FFA234"/>
<path d="M82.913 38.2015L90.8522 18.4267L88.157 17.3428L80.2178 37.1175" fill="#FFA234"/>
<path d="M61.0877 84.7822L53.1484 104.557L55.8437 105.641L63.7829 85.8662" fill="#FFA234"/>
<path d="M95.3047 72.3905L115.05 80.3297L116.134 77.6345L96.3593 69.7246" fill="#FFA234"/>
<path d="M48.6956 50.5935L28.9501 42.6543L27.8662 45.3495L47.641 53.2887" fill="#FFA234"/>
<path d="M96.1836 52.7331L115.783 44.3837L114.64 41.6885L95.041 50.0671" fill="#FFA234"/>
<path d="M47.8158 70.252L28.2168 78.6306L29.3593 81.2965L48.9583 72.9179" fill="#FFA234"/>
<path d="M80.7451 85.6904L89.1238 105.26L91.7897 104.118L83.411 84.5479" fill="#FFA234"/>
<path d="M63.2555 37.3226L54.8769 17.7236L52.2109 18.8662L60.5896 38.4359" fill="#FFA234"/>
<path d="M79.9247 28.798L85.3445 1.43553L82.4735 0.878906L77.083 28.2413" fill="#FFA234"/>
<path d="M64.075 94.1865L58.6553 121.549L61.497 122.106L66.9167 94.7431" fill="#FFA234"/>
<path d="M104.68 69.4316L132.042 74.822L132.599 71.9803L105.266 66.5898" fill="#FFA234"/>
<path d="M39.2911 53.5535L11.958 48.1631L11.4014 51.0048L38.7345 56.3953" fill="#FFA234"/>
<path d="M100.725 44.0024L123.898 28.4755L122.286 26.0439L99.1133 41.5708" fill="#FFA234"/>
<path d="M43.2756 79.0107L20.1025 94.5083L21.7138 96.9399L44.8869 81.413" fill="#FFA234"/>
<path d="M89.5039 90.2314L105.031 113.375L107.433 111.764L91.9062 88.5908" fill="#FFA234"/>
<path d="M54.4955 32.7825L38.9687 9.60938L36.5664 11.2207L52.0933 34.3938" fill="#FFA234"/>
<path d="M87.2197 40.7504L98.8209 22.9091L96.3893 21.3271L84.7881 39.1684" fill="#FFA234"/>
<path d="M56.7809 82.2334L45.1797 100.104L47.6112 101.686L59.2125 83.8154" fill="#FFA234"/>
<path d="M92.7266 76.7265L110.597 88.3277L112.179 85.8961L94.3085 74.2656" fill="#FFA234"/>
<path d="M51.2728 46.2877L33.4023 34.6572L31.8203 37.0888L49.6908 48.7193" fill="#FFA234"/>
<path d="M97.414 57.5955L118.273 53.1718L117.658 50.3301L96.8281 54.7538" fill="#FFA234"/>
<path d="M46.5853 65.3887L25.7266 69.8124L26.3418 72.6541L47.1712 68.2304" fill="#FFA234"/>
<path d="M75.9111 86.9209L80.3055 107.75L83.1472 107.164L78.7528 86.3057" fill="#FFA234"/>
<path d="M68.0886 36.0638L63.6649 15.2344L60.8525 15.8203L65.2469 36.679" fill="#FFA234"/>
<path d="M27.9531 61.8439C29.4179 73.8845 25.7559 82.6733 48.2845 81.5015C75.4418 80.0952 64.8074 69.6073 63.3426 57.5667C62.3465 49.3052 74.4165 42.4499 68.3522 38.5829C55.7256 39.5496 58.9482 35.6826 45.4721 35.331C42.4253 35.2431 37.4157 30.878 34.0466 41.7761C28.246 46.8736 26.957 53.5531 27.9531 61.8439Z" fill="#B38474"/>
<path d="M67.9721 50.8869C71.3118 50.6525 72.1907 38.9928 68.8216 39.2271L48.2266 41.688C44.8868 41.9223 46.0294 49.4221 46.0294 49.4221C45.795 52.6447 67.9721 50.8869 67.9721 50.8869Z" fill="#B38474"/>
<path d="M69.9054 62.0484C73.4795 62.0484 73.4502 49.0996 69.8761 49.0996L48.0506 50.2129C44.4765 50.2129 46.3221 58.6501 46.3221 58.6501C46.3221 62.2535 69.9054 62.0484 69.9054 62.0484Z" fill="#B38474"/>
<path d="M70.0812 73.2984C73.6553 73.2984 74.5342 60.3789 70.9601 60.3789L50.2186 61.4922C46.6444 61.4922 48.4901 69.9294 48.4901 69.9294C48.4608 73.5035 70.0812 73.2984 70.0812 73.2984Z" fill="#B38474"/>
<path d="M65.8039 80.2419C68.4992 80.3884 70.8135 78.3083 70.9893 75.6131C71.1358 72.9179 69.0558 70.5742 66.3606 70.4277L54.525 70.8965C51.8005 70.75 52.8551 77.2244 52.8551 77.2244C52.6793 79.9196 65.8039 80.2419 65.8039 80.2419Z" fill="#B38474"/>
<path d="M68.7336 38.5244L48.1386 40.9853L48.2265 41.7177L48.1679 40.9853C47.4941 41.0439 46.9374 41.3075 46.498 41.7177C45.8535 42.3329 45.5312 43.1532 45.3555 44.032C45.1504 44.9109 45.1211 45.8484 45.0918 46.698C45.0918 48.2507 45.2969 49.5397 45.2969 49.5397L46 49.4225L45.2676 49.3639V49.4811C45.2676 49.6862 45.3262 49.9205 45.4141 50.1256C45.5605 50.4186 45.7656 50.6236 46 50.7701C46.2343 50.9459 46.498 51.0631 46.791 51.1803L47.0546 50.5065L46.6738 49.8912C46.3222 50.1256 46.0293 50.4186 45.8242 50.7701C45.502 51.2682 45.3262 51.8834 45.209 52.4986C45.0918 53.1138 45.0625 53.7876 45.0625 54.4321C45.0625 56.6586 45.5312 58.8558 45.5312 58.8851L46.2343 58.7386H45.5019C45.5019 59.0609 45.6191 59.3538 45.7656 59.6175C46.0586 60.0569 46.4687 60.3499 46.9667 60.5843C47.7284 60.9651 48.6659 61.2288 49.7792 61.4924C50.8924 61.7268 52.1814 61.9319 53.5583 62.0784L53.6462 61.346L53.6169 60.6136L50.0721 60.7893L50.1014 61.5217V60.7893C49.5155 60.7893 48.9882 60.9651 48.578 61.2874C48.2558 61.5217 48.0214 61.844 47.8456 62.1662C47.582 62.6643 47.4062 63.2209 47.3183 63.8068C47.2304 64.3927 47.1718 65.008 47.1718 65.6232C47.1718 67.8497 47.6406 70.0469 47.6698 70.0762L48.373 69.9297H47.6406C47.6406 70.164 47.6992 70.3984 47.787 70.6035C47.9628 70.955 48.2265 71.2187 48.5487 71.4531C49.0175 71.7753 49.6327 72.039 50.3358 72.2733C51.0389 72.5077 51.8592 72.6835 52.738 72.8593L52.8845 72.1269L52.2107 71.8925C51.9178 72.7421 51.8299 73.7381 51.8299 74.6463C51.8299 76.0818 52.035 77.3123 52.035 77.3123L52.738 77.1951L52.0056 77.1658V77.2537C52.0056 77.5759 52.1228 77.8689 52.2693 78.1032C52.5623 78.572 53.0017 78.8649 53.529 79.0993C54.4372 79.5387 55.6091 79.8317 56.8981 80.0954C58.8316 80.4469 61.0288 80.6813 62.7573 80.7985C64.4857 80.9157 65.7162 80.945 65.7162 80.945L65.7454 79.4802H65.599C64.8959 79.4509 61.7026 79.3337 58.7144 78.9235C57.2203 78.7185 55.7848 78.4255 54.7888 78.074C54.2907 77.8982 53.9099 77.6931 53.6755 77.5173L53.4704 77.3123L53.4412 77.2537V77.1658V77.0779V77.0193C53.4119 76.7849 53.2654 75.7596 53.2654 74.617C53.2654 73.7967 53.3533 72.9179 53.5583 72.3612L53.8513 71.5702L53.031 71.4238C51.742 71.1894 50.6287 70.8964 49.9549 70.5742C49.6034 70.3984 49.369 70.2519 49.2518 70.1054L49.1346 69.959V69.9004V69.8125L49.1054 69.7246V69.6953C49.0468 69.4609 48.6659 67.4688 48.6659 65.5646C48.6659 64.5685 48.7831 63.6018 49.0468 62.9865C49.1932 62.6643 49.3397 62.4592 49.5155 62.342C49.6913 62.2248 49.867 62.1369 50.16 62.1369H50.1893L53.7341 61.9612L53.7927 60.5257C51.7713 60.2913 49.9256 59.969 48.6659 59.5589C48.0507 59.3538 47.5527 59.1488 47.289 58.9437C47.1425 58.8558 47.0839 58.7679 47.0253 58.7093L46.996 58.6214V58.5335V58.4457V58.4164C46.9375 58.182 46.5566 56.1899 46.5566 54.2856C46.5566 53.4946 46.6152 52.733 46.791 52.147C46.8789 51.8541 46.9667 51.5904 47.1132 51.4146C47.2304 51.2389 47.3476 51.0924 47.4941 51.0045L48.7538 50.2428L47.3769 49.7155C47.0839 49.5983 46.8788 49.4811 46.8203 49.3932L46.7617 49.3346L46.7324 49.3639H46.7617L46.7324 49.3932H46.7617L46.7031 49.4225H46.7617V49.4518L46.7031 49.4811H46.7617V49.3932V49.3053C46.7324 49.1881 46.5859 48.0163 46.5859 46.6687C46.5859 45.6433 46.7031 44.4715 46.996 43.6805C47.1425 43.2704 47.3476 42.9481 47.5527 42.743C47.7577 42.538 47.9628 42.4501 48.3144 42.4208H48.3437L68.968 39.9599L68.7336 38.5244Z" fill="#2D3E4A"/>
<path d="M47.1719 51.2382L64.7201 50.0664L64.603 48.6016L47.084 49.7734" fill="#2D3E4A"/>
<path d="M51.5664 61.9609L67.0347 62.3124L67.064 60.8476L51.5957 60.4961" fill="#2D3E4A"/>
<path d="M52.9727 72.8593L68.0894 73.0058L68.1187 71.5703L52.9727 71.4238" fill="#2D3E4A"/>
<path d="M47.1129 29.9695C35.3945 34.0416 26.2542 37.0005 28.8615 49.3341C29.5646 52.7325 54.8177 44.6175 55.9017 39.0512C66.0088 49.1291 73.2449 42.6547 70.0809 39.2563C67.7372 36.7369 68.0595 33.6608 67.3564 31.9909C64.8369 25.9853 55.9017 26.9227 47.1129 29.9695Z" fill="#B38474"/>
<path d="M41.0488 48.7194C44.5643 47.5768 48.2263 46.0534 51.0973 44.4422C52.5328 43.6219 53.7926 42.8016 54.7593 41.9227C55.2281 41.4833 55.6382 41.0438 55.9604 40.6044C56.2827 40.165 56.5171 39.6669 56.605 39.1689L55.9019 39.0224L55.3745 39.5497C59.5053 43.6512 63.2258 45.1746 66.1261 45.1746C67.7374 45.1746 69.0558 44.7058 70.0225 43.9734C70.96 43.241 71.5459 42.1864 71.5459 41.0731C71.5459 40.2528 71.2237 39.4326 70.6084 38.788L69.5538 39.7841C69.9639 40.2235 70.1104 40.663 70.1104 41.1024C70.1104 41.6883 69.7882 42.3329 69.1436 42.8602C68.4698 43.3875 67.4738 43.7684 66.1554 43.7684C63.7825 43.7684 60.3841 42.5086 56.4292 38.583L55.4624 37.6162L55.1988 38.9638C55.1402 39.1982 55.023 39.4912 54.7886 39.8427C54.3785 40.4286 53.6754 41.1024 52.7379 41.7762C51.3317 42.8016 49.4274 43.827 47.3181 44.823C45.2088 45.7898 42.8652 46.698 40.6094 47.4304L41.0488 48.7194Z" fill="#2D3E4A"/>
<path d="M39.0566 66.4139C42.5721 65.2713 45.1209 64.1581 46.8494 63.2499C47.7282 62.7812 48.3727 62.371 48.8708 61.9609C49.1344 61.7851 49.3395 61.58 49.486 61.4043C49.6618 61.2285 49.7789 61.0527 49.8961 60.8183L48.5778 60.2031C48.5485 60.291 48.2849 60.5547 47.8747 60.8476C47.2302 61.3164 46.1462 61.9609 44.6228 62.664C43.0995 63.3671 41.1073 64.1581 38.5879 64.9784L39.0566 66.4139Z" fill="#2D3E4A"/>
<path d="M43.3632 72.4782C45.3261 69.6365 46.6444 67.3807 47.494 65.6229C47.9041 64.744 48.2264 64.0116 48.4021 63.3964C48.6072 62.7812 48.6951 62.2832 48.6951 61.873L48.6658 61.4922L47.2596 61.7851V61.873C47.2596 62.0488 47.201 62.4297 47.0252 62.957C46.4979 64.5683 45.0624 67.4979 42.1621 71.6579L43.3632 72.4782Z" fill="#2D3E4A"/>
<path d="M36.42 80.2419C36.42 80.2419 20.9518 79.1579 10.5517 94.2746C4.89758 102.478 -3.01233 64.6271 1.177 55.604C4.98547 47.3718 33.6369 39.2568 33.6369 39.2568L36.42 80.2419Z" fill="#B38474"/>
<path d="M116.018 61.8439C114.553 73.8845 118.215 82.6733 95.6863 81.5015C68.5289 80.0952 79.1633 69.6073 80.6281 57.5667C81.6242 49.3052 69.5543 42.4499 75.6185 38.5829C88.2451 39.5496 85.0225 35.6826 98.4987 35.331C101.545 35.2431 106.555 30.878 109.924 41.7761C115.754 46.8736 117.043 53.5531 116.018 61.8439Z" fill="#FBE8CA"/>
<path d="M76.0284 50.8869C72.6594 50.6525 71.8098 38.9928 75.1788 39.2271L95.7739 41.688C99.1136 41.9223 97.9711 49.4221 97.9711 49.4221C98.1762 52.6447 76.0284 50.8869 76.0284 50.8869Z" fill="#FBE8CA"/>
<path d="M74.0947 62.0484C70.5206 62.0484 70.5499 49.0996 74.124 49.0996L95.9495 50.2129C99.5236 50.2129 97.6779 58.6501 97.6779 58.6501C97.6779 62.2535 74.0947 62.0484 74.0947 62.0484Z" fill="#FBE8CA"/>
<path d="M73.9189 73.2984C70.3448 73.2984 69.4659 60.3789 73.0401 60.3789L93.7816 61.4922C97.3557 61.4922 95.5101 69.9294 95.5101 69.9294C95.5394 73.5035 73.9189 73.2984 73.9189 73.2984Z" fill="#FBE8CA"/>
<path d="M78.1956 80.2419C75.5004 80.3884 73.1567 78.3083 73.0102 75.6131C72.8637 72.9179 74.9438 70.5742 77.639 70.4277L89.4745 70.8965C92.1991 70.75 91.1444 77.2244 91.1444 77.2244C91.3202 79.9196 78.1956 80.2419 78.1956 80.2419Z" fill="#FBE8CA"/>
<path d="M75.0908 39.9599L95.6859 42.4208H95.7152C96.0667 42.4501 96.2718 42.5673 96.4769 42.743C96.7991 43.036 97.0628 43.6219 97.2093 44.325C97.3557 45.0281 97.4144 45.8777 97.4144 46.6687C97.4144 47.3718 97.3851 48.0456 97.3265 48.5143C97.2972 48.7487 97.2679 48.9538 97.2679 49.1003L97.2386 49.2467V49.276V49.3639V49.4518H97.2972L97.2386 49.4225V49.4518H97.2972L97.2386 49.4225L97.0921 49.5397C96.9749 49.6276 96.8284 49.6862 96.5941 49.8034L95.2172 50.3307L96.4769 51.0924C96.6233 51.1803 96.7405 51.2975 96.8577 51.5025C97.0335 51.7955 97.18 52.2056 97.2679 52.7037C97.3558 53.2017 97.385 53.7876 97.385 54.3735C97.385 55.3989 97.2679 56.4242 97.1507 57.2152C97.0921 57.5961 97.0335 57.9476 97.0042 58.1527L96.9456 58.4164L96.9163 58.475V58.5043V58.5921V58.68L96.887 58.7679C96.8284 58.8558 96.6234 59.0609 96.2425 59.2367C95.6859 59.5296 94.8363 59.7933 93.7817 60.0276C92.727 60.262 91.4966 60.4378 90.1489 60.6136L90.2075 62.0491L93.7524 62.2248H93.7817C94.0746 62.2248 94.2504 62.3127 94.4262 62.4299C94.5433 62.5178 94.6605 62.6643 94.7777 62.8694C94.9535 63.1623 95.0707 63.5725 95.1586 64.0705C95.2464 64.5392 95.2757 65.0958 95.2757 65.6525C95.2757 66.6778 95.1585 67.7032 95.0414 68.4942C94.9828 68.875 94.9242 69.2266 94.8949 69.4317L94.8363 69.6953V69.7539V69.7832L94.807 69.8711V69.959V70.0176C94.7777 70.0469 94.7191 70.1641 94.5141 70.3105C94.2211 70.5156 93.7523 70.7207 93.1371 70.9257C92.5219 71.1308 91.7602 71.3066 90.9106 71.4531L90.0904 71.5996L90.3833 72.3905C90.5884 72.9765 90.6763 73.826 90.6763 74.6463C90.6763 75.2908 90.6177 75.9061 90.5884 76.3748C90.5591 76.6092 90.5298 76.7849 90.5298 76.9314L90.5005 77.0779V77.1365V77.2244V77.3123L90.4712 77.4001C90.4126 77.488 90.1783 77.6931 89.7974 77.8982C89.1236 78.2204 88.0396 78.5427 86.8092 78.7771C84.9636 79.1286 82.8249 79.3337 81.1258 79.4509C80.2762 79.5095 79.5438 79.5387 79.0458 79.568C78.7821 79.568 78.577 79.5973 78.4306 79.5973C78.2841 79.5973 78.2255 79.5973 78.2255 79.5973L78.2548 81.0621C78.2841 81.0621 81.536 80.9743 84.8171 80.5641C86.4577 80.359 88.1275 80.0661 89.4166 79.6266C90.0611 79.4216 90.6177 79.1579 91.0864 78.8356C91.3208 78.6599 91.5258 78.4548 91.6723 78.2204C91.8188 77.9861 91.936 77.6638 91.936 77.3708V77.283L91.2036 77.3123L91.9067 77.4294C91.9067 77.4002 92.1118 76.1697 92.1118 74.7635C92.1118 73.8553 92.0239 72.8886 91.7309 72.0097L91.0571 72.2441L91.2036 72.9765C92.5805 72.7128 93.7231 72.4198 94.6312 72.0097C95.0707 71.8046 95.4515 71.5703 95.7738 71.2773C95.9202 71.1308 96.0667 70.955 96.1546 70.75C96.2425 70.5449 96.3011 70.3105 96.3011 70.0762H95.5687L96.2718 70.2226C96.2718 70.1933 96.7698 67.9962 96.7698 65.7697C96.7698 64.6857 96.6527 63.5725 96.2718 62.635C96.0667 62.1663 95.7738 61.7268 95.3636 61.4046C94.9535 61.0823 94.3969 60.9065 93.8109 60.9065V61.6389L93.8402 60.9065L90.2954 60.7308L90.2661 61.4632L90.354 62.1955C92.434 61.9612 94.3383 61.6096 95.7445 61.1702C96.4476 60.9358 97.0628 60.6722 97.5315 60.3499C97.7659 60.1741 97.971 59.9691 98.1468 59.7347C98.2932 59.5003 98.4104 59.1781 98.4104 58.8558H97.678L98.3811 59.0023C98.3811 58.973 98.8499 56.7758 98.8792 54.5493C98.8792 53.6704 98.8206 52.8208 98.5862 52.0298C98.469 51.6197 98.3225 51.2682 98.1174 50.9166C97.9124 50.5651 97.6194 50.2721 97.2679 50.0377L96.887 50.6529L97.1507 51.3267C97.5315 51.1803 97.8831 51.0045 98.176 50.7408C98.3225 50.5943 98.469 50.4479 98.5569 50.2721C98.6448 50.0963 98.7034 49.862 98.7034 49.6276V49.5104L97.971 49.569L98.6741 49.6862C98.6741 49.6569 98.8792 48.3972 98.8792 46.8445C98.8792 45.7019 98.7913 44.4422 98.3811 43.329C98.176 42.7723 97.9124 42.2743 97.4729 41.8642C97.0628 41.454 96.4769 41.1611 95.8031 41.1318L95.7445 41.8642L95.8324 41.1318L75.2373 38.6709L75.0908 39.9599Z" fill="#2D3E4A"/>
<path d="M96.9164 49.7734L79.3681 48.6016L79.2803 50.0664L96.8286 51.2382" fill="#2D3E4A"/>
<path d="M92.4048 60.4961L76.9365 60.8476L76.9658 62.3124L92.4341 61.9609" fill="#2D3E4A"/>
<path d="M91.0278 71.4238L75.8818 71.5703V73.0058L91.0278 72.8593" fill="#2D3E4A"/>
<path d="M96.8576 29.9695C108.576 34.0416 117.716 37.0005 115.109 49.3341C114.406 52.7325 89.1528 44.6175 88.0688 39.0512C77.9617 49.1291 70.7256 42.6547 73.8896 39.2563C76.2332 36.7369 75.911 33.6608 76.6141 31.9909C79.1335 25.9853 88.0981 26.9227 96.8576 29.9695Z" fill="#FBE8CA"/>
<path d="M103.391 47.3425C99.9337 46.2292 96.3596 44.7351 93.6058 43.1824C92.2289 42.4207 91.0571 41.6005 90.2368 40.8681C89.8266 40.4872 89.4751 40.1357 89.2407 39.7841C89.0063 39.4619 88.8891 39.1689 88.8306 38.9052L88.5669 37.5576L87.6001 38.5244C83.6745 42.45 80.2468 43.7098 77.8739 43.7098C76.5555 43.7098 75.5595 43.3289 74.8857 42.8016C74.2119 42.2743 73.9189 41.6298 73.9189 41.0438C73.9189 40.6044 74.0654 40.165 74.4755 39.7255L73.4209 38.7295C72.8057 39.4033 72.4834 40.2236 72.4834 41.0145C72.4834 42.1278 73.0693 43.1824 74.0068 43.9148C74.9443 44.6765 76.2919 45.116 77.9032 45.116C80.8034 45.116 84.5241 43.6219 88.6548 39.4912L88.1567 38.9638L87.4537 39.1103C87.5415 39.6083 87.7759 40.1064 88.0982 40.5458C88.6548 41.3368 89.4751 42.0985 90.5004 42.8309C92.0238 43.9441 93.9866 45.0281 96.1545 45.9949C98.3224 46.9909 100.695 47.8991 103.01 48.6608L103.391 47.3425Z" fill="#2D3E4A"/>
<path d="M105.382 65.037C101.926 63.8944 99.4646 62.8398 97.8241 61.9609C97.0038 61.5215 96.3886 61.1406 95.9784 60.8183C95.7734 60.6426 95.6269 60.5254 95.5097 60.4082L95.3925 60.291L95.3632 60.2617L94.0449 60.8769C94.1328 61.082 94.2793 61.2578 94.455 61.4629C94.748 61.7558 95.1582 62.1074 95.7148 62.4589C97.3554 63.5429 100.285 64.9491 104.914 66.4432L105.382 65.037Z" fill="#2D3E4A"/>
<path d="M101.808 71.6286C99.8749 68.8455 98.5858 66.619 97.7948 64.9784C97.3847 64.1581 97.121 63.4843 96.9452 62.9277C96.7695 62.4004 96.7109 62.0195 96.7109 61.8437V61.7851L95.3047 61.4629C95.2754 61.6094 95.2754 61.7266 95.2754 61.8437C95.2754 62.2539 95.3926 62.7519 95.5684 63.3671C96.1543 65.2128 97.6776 68.201 100.607 72.4489L101.808 71.6286Z" fill="#2D3E4A"/>
<path d="M107.58 80.2419C107.58 80.2419 123.048 79.1579 133.448 94.2746C139.103 102.478 147.012 64.6271 142.823 55.604C139.015 47.3718 110.363 39.2568 110.363 39.2568L107.58 80.2419Z" fill="#FBE8CA"/>
</svg>
